<?xml version="1.0" encoding="utf-8"?>
<!-- Generator: Adobe Illustrator 18.1.0, SVG Export Plug-In . SVG Version: 6.00 Build 0)  -->
<svg version="1.1" id="Artwork" xmlns="http://www.w3.org/2000/svg" xmlns:xlink="http://www.w3.org/1999/xlink" x="0px" y="0px"
	 viewBox="0 0 1080 1296" enable-background="new 0 0 1080 1296" xml:space="preserve">
<g>
	<path fill="#FFFFFF" d="M1034.6,81.9v1132.3c0,39.8-32.2,72-72,72H117.4c-39.8,0-72-32.2-72-72V81.9c0-39.8,32.2-72,72-72h845.3
		C1002.4,9.9,1034.6,42.1,1034.6,81.9z"/>
	<path fill="#F16824" d="M990.7,66.6v1162.8H89.3V66.6H990.7z"/>
	<path fill="#FFFFFF" d="M132.6,76.2l-24.3,42h-19v5.4h19l24.3,42l-24.3,42h-19v5.4h19l24.3,42l-24.3,42h-19v5.4h19l24.3,42
		l-24.3,42h-19v5.4h19l24.3,42l-24.3,42h-19v5.4h19l24.3,42l-24.3,42h-19v5.4h19l24.3,42l-24.3,42h-19v5.4h19l24.3,42l-24.3,42h-19
		v5.4h19l24.3,42l-24.3,42h-19v5.4h19l24.3,42l-24.3,42h-19v5.4h19l24.3,42l-24.3,42h-19v5.4h19l24.3,42l-24.3,42h-19v5.4h19
		l24.3,42l-24.3,42h-19v5.4h19l18.3,31.8h6.2l-19.9-34.5l24.3-42h48.6l24.3,42l-19.9,34.5h6.2l18.3-31.8h48.6l18.3,31.8h6.2
		l-19.9-34.5l24.3-42h48.6l24.3,42l-19.9,34.5h6.2l18.3-31.8h48.6l18.3,31.8h6.2l-19.9-34.5l24.3-42h48.6l24.3,42l-19.9,34.5h6.2
		l18.3-31.8h48.6l18.3,31.8h6.2l-19.9-34.5l24.3-42h48.6l24.3,42l-19.9,34.5h6.2l18.3-31.8h48.6l18.3,31.8h6.2l-19.9-34.5l24.3-42
		h48.6l24.3,42l-19.9,34.5h6.2l18.3-31.8h48.6l18.3,31.8h6.2l-19.9-34.5l24.3-42h48.6l24.3,42l-19.9,34.5h6.2l18.3-31.8h0.8v-5.4
		h-0.8l-24.3-42l24.3-42h0.8v-5.4h-0.8l-24.3-42l24.3-42h0.8v-5.4h-0.8l-24.3-42l24.3-42h0.8v-5.4h-0.8l-24.3-42l24.3-42h0.8v-5.4
		h-0.8l-24.3-42l24.3-42h0.8v-5.4h-0.8l-24.3-42l24.3-42h0.8v-5.4h-0.8l-24.3-42l24.3-42h0.8v-5.4h-0.8l-24.3-42l24.3-42h0.8v-5.4
		h-0.8l-24.3-42l24.3-42h0.8v-5.4h-0.8l-24.3-42l24.3-42h0.8v-5.4h-0.8l-24.3-42l24.3-42h0.8v-5.4h-0.8l-24.3-42l24.3-42h0.8v-5.4
		h-0.8l-24.3-42l5.6-9.7h-6.2l-4,7h-48.6l-4-7h-6.2l5.6,9.7l-24.3,42h-48.6l-24.3-42l5.6-9.7h-6.2l-4,7h-48.6l-4-7h-6.2l5.6,9.7
		l-24.3,42h-48.6l-24.3-42l5.6-9.7h-6.2l-4,7h-48.6l-4-7h-6.2l5.6,9.7l-24.3,42h-48.6l-24.3-42l5.6-9.7h-6.2l-4,7h-48.6l-4-7h-6.2
		l5.6,9.7l-24.3,42h-48.6l-24.3-42l5.6-9.7h-6.2l-4,7h-48.6l-4-7h-6.2l5.6,9.7l-24.3,42h-48.6l-24.3-42l5.6-9.7h-6.2l-4,7h-48.6
		l-4-7H127L132.6,76.2z M113,210.5l24.3-42h48.6l24.3,42l-24.3,42h-48.6L113,210.5z M524.8,655.3l-24.3-42l24.3-42h48.6l24.3,42
		l-24.3,42H524.8z M597.7,702.7l-24.3,42h-48.6l-24.3-42l24.3-42h48.6L597.7,702.7z M495.9,610.5h-48.6l-24.3-42l24.3-42h48.6
		l24.3,42L495.9,610.5z M495.9,615.9l24.3,42l-24.3,42h-48.6L423,658l24.3-42H495.9z M495.9,705.4l24.3,42l-24.3,42h-48.6l-24.3-42
		l24.3-42H495.9z M524.8,750.2h48.6l24.3,42l-24.3,42h-48.6l-24.3-42L524.8,750.2z M578.1,747.5l24.3-42h48.6l24.3,42l-24.3,42
		h-48.6L578.1,747.5z M602.3,700l-24.3-42l24.3-42h48.6l24.3,42l-24.3,42H602.3z M602.3,610.5l-24.3-42l24.3-42h48.6l24.3,42
		l-24.3,42H602.3z M602.3,521l-24.3-42l24.3-42h48.6l24.3,42l-24.3,42H602.3z M597.7,523.7l-24.3,42h-48.6l-24.3-42l24.3-42h48.6
		L597.7,523.7z M495.9,521h-48.6L423,479l24.3-42h48.6l24.3,42L495.9,521z M442.6,523.7l-24.3,42h-48.6l-24.3-42l24.3-42h48.6
		L442.6,523.7z M418.4,571.2l24.3,42l-24.3,42h-48.6l-24.3-42l24.3-42H418.4z M418.4,660.7l24.3,42l-24.3,42h-48.6l-24.3-42l24.3-42
		H418.4z M418.4,750.2l24.3,42l-24.3,42h-48.6l-24.3-42l24.3-42H418.4z M418.4,839.7l24.3,42l-24.3,42h-48.6l-24.3-42l24.3-42H418.4
		z M423,837l24.3-42h48.6l24.3,42l-24.3,42h-48.6L423,837z M524.8,839.7h48.6l24.3,42l-24.3,42h-48.6l-24.3-42L524.8,839.7z
		 M578.1,837l24.3-42h48.6l24.3,42l-24.3,42h-48.6L578.1,837z M679.8,839.7h48.6l24.3,42l-24.3,42h-48.6l-24.3-42L679.8,839.7z
		 M679.8,834.3l-24.3-42l24.3-42h48.6l24.3,42l-24.3,42H679.8z M679.8,744.8l-24.3-42l24.3-42h48.6l24.3,42l-24.3,42H679.8z
		 M679.8,655.3l-24.3-42l24.3-42h48.6l24.3,42l-24.3,42H679.8z M679.8,565.8l-24.3-42l24.3-42h48.6l24.3,42l-24.3,42H679.8z
		 M679.8,476.3l-24.3-42l24.3-42h48.6l24.3,42l-24.3,42H679.8z M650.9,431.5h-48.6l-24.3-42l24.3-42h48.6l24.3,42L650.9,431.5z
		 M597.7,434.2l-24.3,42h-48.6l-24.3-42l24.3-42h48.6L597.7,434.2z M495.9,431.5h-48.6l-24.3-42l24.3-42h48.6l24.3,42L495.9,431.5z
		 M442.6,434.2l-24.3,42h-48.6l-24.3-42l24.3-42h48.6L442.6,434.2z M340.9,431.5h-48.6l-24.3-42l24.3-42h48.6l24.3,42L340.9,431.5z
		 M340.9,436.9l24.3,42l-24.3,42h-48.6L268,479l24.3-42H340.9z M340.9,526.4l24.3,42l-24.3,42h-48.6l-24.3-42l24.3-42H340.9z
		 M340.9,615.9l24.3,42l-24.3,42h-48.6L268,658l24.3-42H340.9z M340.9,705.4l24.3,42l-24.3,42h-48.6l-24.3-42l24.3-42H340.9z
		 M340.9,794.9l24.3,42l-24.3,42h-48.6L268,837l24.3-42H340.9z M340.9,884.4l24.3,42l-24.3,42h-48.6l-24.3-42l24.3-42H340.9z
		 M369.8,929.2h48.6l24.3,42l-24.3,42h-48.6l-24.3-42L369.8,929.2z M423,926.5l24.3-42h48.6l24.3,42l-24.3,42h-48.6L423,926.5z
		 M524.8,929.2h48.6l24.3,42l-24.3,42h-48.6l-24.3-42L524.8,929.2z M578.1,926.5l24.3-42h48.6l24.3,42l-24.3,42h-48.6L578.1,926.5z
		 M679.8,929.2h48.6l24.3,42l-24.3,42h-48.6l-24.3-42L679.8,929.2z M733.1,926.5l24.3-42h48.6l24.3,42l-24.3,42h-48.6L733.1,926.5z
		 M757.3,879l-24.3-42l24.3-42h48.6l24.3,42l-24.3,42H757.3z M757.3,789.5l-24.3-42l24.3-42h48.6l24.3,42l-24.3,42H757.3z
		 M757.3,700l-24.3-42l24.3-42h48.6l24.3,42l-24.3,42H757.3z M757.3,610.5l-24.3-42l24.3-42h48.6l24.3,42l-24.3,42H757.3z
		 M757.3,521l-24.3-42l24.3-42h48.6l24.3,42l-24.3,42H757.3z M757.3,431.5l-24.3-42l24.3-42h48.6l24.3,42l-24.3,42H757.3z
		 M757.3,342l-24.3-42l24.3-42h48.6l24.3,42l-24.3,42H757.3z M752.7,344.7l-24.3,42h-48.6l-24.3-42l24.3-42h48.6L752.7,344.7z
		 M650.9,342h-48.6l-24.3-42l24.3-42h48.6l24.3,42L650.9,342z M597.7,344.7l-24.3,42h-48.6l-24.3-42l24.3-42h48.6L597.7,344.7z
		 M495.9,342h-48.6L423,300l24.3-42h48.6l24.3,42L495.9,342z M442.6,344.7l-24.3,42h-48.6l-24.3-42l24.3-42h48.6L442.6,344.7z
		 M340.9,342h-48.6L268,300l24.3-42h48.6l24.3,42L340.9,342z M287.6,344.7l-24.3,42h-48.6l-24.3-42l24.3-42h48.6L287.6,344.7z
		 M263.4,392.2l24.3,42l-24.3,42h-48.6l-24.3-42l24.3-42H263.4z M263.4,481.7l24.3,42l-24.3,42h-48.6l-24.3-42l24.3-42H263.4z
		 M263.4,571.2l24.3,42l-24.3,42h-48.6l-24.3-42l24.3-42H263.4z M263.4,660.7l24.3,42l-24.3,42h-48.6l-24.3-42l24.3-42H263.4z
		 M263.4,750.2l24.3,42l-24.3,42h-48.6l-24.3-42l24.3-42H263.4z M263.4,839.7l24.3,42l-24.3,42h-48.6l-24.3-42l24.3-42H263.4z
		 M263.4,929.2l24.3,42l-24.3,42h-48.6l-24.3-42l24.3-42H263.4z M263.4,1018.7l24.3,42l-24.3,42h-48.6l-24.3-42l24.3-42H263.4z
		 M268,1016l24.3-42h48.6l24.3,42l-24.3,42h-48.6L268,1016z M369.8,1018.7h48.6l24.3,42l-24.3,42h-48.6l-24.3-42L369.8,1018.7z
		 M423,1016l24.3-42h48.6l24.3,42l-24.3,42h-48.6L423,1016z M524.8,1018.7h48.6l24.3,42l-24.3,42h-48.6l-24.3-42L524.8,1018.7z
		 M578.1,1016l24.3-42h48.6l24.3,42l-24.3,42h-48.6L578.1,1016z M679.8,1018.7h48.6l24.3,42l-24.3,42h-48.6l-24.3-42L679.8,1018.7z
		 M733.1,1016l24.3-42h48.6l24.3,42l-24.3,42h-48.6L733.1,1016z M834.9,1018.7h48.6l24.3,42l-24.3,42h-48.6l-24.3-42L834.9,1018.7z
		 M834.9,1013.3l-24.3-42l24.3-42h48.6l24.3,42l-24.3,42H834.9z M834.9,923.8l-24.3-42l24.3-42h48.6l24.3,42l-24.3,42H834.9z
		 M834.9,834.3l-24.3-42l24.3-42h48.6l24.3,42l-24.3,42H834.9z M834.9,744.8l-24.3-42l24.3-42h48.6l24.3,42l-24.3,42H834.9z
		 M834.9,655.3l-24.3-42l24.3-42h48.6l24.3,42l-24.3,42H834.9z M834.9,565.8l-24.3-42l24.3-42h48.6l24.3,42l-24.3,42H834.9z
		 M834.9,476.3l-24.3-42l24.3-42h48.6l24.3,42l-24.3,42H834.9z M834.9,386.8l-24.3-42l24.3-42h48.6l24.3,42l-24.3,42H834.9z
		 M834.9,297.3l-24.3-42l24.3-42h48.6l24.3,42l-24.3,42H834.9z M805.9,252.5h-48.6l-24.3-42l24.3-42h48.6l24.3,42L805.9,252.5z
		 M752.7,255.2l-24.3,42h-48.6l-24.3-42l24.3-42h48.6L752.7,255.2z M650.9,252.5h-48.6l-24.3-42l24.3-42h48.6l24.3,42L650.9,252.5z
		 M597.7,255.2l-24.3,42h-48.6l-24.3-42l24.3-42h48.6L597.7,255.2z M495.9,252.5h-48.6l-24.3-42l24.3-42h48.6l24.3,42L495.9,252.5z
		 M442.6,255.2l-24.3,42h-48.6l-24.3-42l24.3-42h48.6L442.6,255.2z M340.9,252.5h-48.6l-24.3-42l24.3-42h48.6l24.3,42L340.9,252.5z
		 M287.6,255.2l-24.3,42h-48.6l-24.3-42l24.3-42h48.6L287.6,255.2z M113,300l24.3-42h48.6l24.3,42l-24.3,42h-48.6L113,300z
		 M113,389.5l24.3-42h48.6l24.3,42l-24.3,42h-48.6L113,389.5z M113,479l24.3-42h48.6l24.3,42l-24.3,42h-48.6L113,479z M113,568.5
		l24.3-42h48.6l24.3,42l-24.3,42h-48.6L113,568.5z M113,658l24.3-42h48.6l24.3,42l-24.3,42h-48.6L113,658z M113,747.5l24.3-42h48.6
		l24.3,42l-24.3,42h-48.6L113,747.5z M113,837l24.3-42h48.6l24.3,42l-24.3,42h-48.6L113,837z M113,926.5l24.3-42h48.6l24.3,42
		l-24.3,42h-48.6L113,926.5z M113,1016l24.3-42h48.6l24.3,42l-24.3,42h-48.6L113,1016z M137.3,1147.5l-24.3-42l24.3-42h48.6l24.3,42
		l-24.3,42H137.3z M263.4,1192.2h-48.6l-24.3-42l24.3-42h48.6l24.3,42L263.4,1192.2z M292.3,1147.5l-24.3-42l24.3-42h48.6l24.3,42
		l-24.3,42H292.3z M418.4,1192.2h-48.6l-24.3-42l24.3-42h48.6l24.3,42L418.4,1192.2z M447.3,1147.5l-24.3-42l24.3-42h48.6l24.3,42
		l-24.3,42H447.3z M573.4,1192.2h-48.6l-24.3-42l24.3-42h48.6l24.3,42L573.4,1192.2z M602.3,1147.5l-24.3-42l24.3-42h48.6l24.3,42
		l-24.3,42H602.3z M728.4,1192.2h-48.6l-24.3-42l24.3-42h48.6l24.3,42L728.4,1192.2z M757.3,1147.5l-24.3-42l24.3-42h48.6l24.3,42
		l-24.3,42H757.3z M883.4,1192.2h-48.6l-24.3-42l24.3-42h48.6l24.3,42L883.4,1192.2z M985.2,1105.4l-24.3,42h-48.6l-24.3-42l24.3-42
		h48.6L985.2,1105.4z M985.2,1016l-24.3,42h-48.6l-24.3-42l24.3-42h48.6L985.2,1016z M985.2,926.5l-24.3,42h-48.6l-24.3-42l24.3-42
		h48.6L985.2,926.5z M985.2,837l-24.3,42h-48.6l-24.3-42l24.3-42h48.6L985.2,837z M985.2,747.5l-24.3,42h-48.6l-24.3-42l24.3-42
		h48.6L985.2,747.5z M985.2,658l-24.3,42h-48.6l-24.3-42l24.3-42h48.6L985.2,658z M985.2,568.5l-24.3,42h-48.6l-24.3-42l24.3-42
		h48.6L985.2,568.5z M985.2,479l-24.3,42h-48.6l-24.3-42l24.3-42h48.6L985.2,479z M985.2,389.5l-24.3,42h-48.6l-24.3-42l24.3-42
		h48.6L985.2,389.5z M985.2,300l-24.3,42h-48.6l-24.3-42l24.3-42h48.6L985.2,300z M985.2,210.5l-24.3,42h-48.6l-24.3-42l24.3-42
		h48.6L985.2,210.5z M912.4,78.9h48.6l24.3,42l-24.3,42h-48.6l-24.3-42L912.4,78.9z M883.4,123.7l24.3,42l-24.3,42h-48.6l-24.3-42
		l24.3-42H883.4z M757.3,78.9h48.6l24.3,42l-24.3,42h-48.6l-24.3-42L757.3,78.9z M728.4,123.7l24.3,42l-24.3,42h-48.6l-24.3-42
		l24.3-42H728.4z M602.3,78.9h48.6l24.3,42l-24.3,42h-48.6l-24.3-42L602.3,78.9z M573.4,123.7l24.3,42l-24.3,42h-48.6l-24.3-42
		l24.3-42H573.4z M447.3,78.9h48.6l24.3,42l-24.3,42h-48.6L423,121L447.3,78.9z M418.4,123.7l24.3,42l-24.3,42h-48.6l-24.3-42
		l24.3-42H418.4z M292.3,78.9h48.6l24.3,42l-24.3,42h-48.6L268,121L292.3,78.9z M263.4,123.7l24.3,42l-24.3,42h-48.6l-24.3-42
		l24.3-42H263.4z M185.9,78.9l24.3,42l-24.3,42h-48.6L113,121l24.3-42H185.9z"/>
	<path fill="#FFFFFF" d="M935.1,1149.8H144.9V146.2h790.2V1149.8z M199.8,1094.9h680.5V201.1H199.8V1094.9z"/>
	<path fill="#F16824" d="M921.4,1136.1H158.6V159.9h762.8V1136.1z M186,1108.6H894V187.4H186V1108.6z"/>
</g>
</svg>
