<?xml version="1.0" encoding="utf-8"?>
<!-- Generator: Adobe Illustrator 18.1.0, SVG Export Plug-In . SVG Version: 6.00 Build 0)  -->
<svg version="1.1" id="Artwork" xmlns="http://www.w3.org/2000/svg" xmlns:xlink="http://www.w3.org/1999/xlink" x="0px" y="0px"
	 viewBox="0 0 1080 1296" enable-background="new 0 0 1080 1296" xml:space="preserve">
<g>
	<path fill="#FFFFFF" d="M962.6,9.9H117.4c-39.8,0-72,32.2-72,72v1132.3c0,39.8,32.2,72,72,72h845.3c39.8,0,72-32.2,72-72V81.9
		C1034.6,42.1,1002.4,9.9,962.6,9.9z M964.9,66.6l-4,7h-48.6l-4-7H964.9z M907.7,1150.2l-24.3,42h-48.6l-24.3-42l0.2-0.4h96.6
		L907.7,1150.2z M752.7,1150.2l-24.3,42h-48.6l-24.3-42l0.2-0.4h96.6L752.7,1150.2z M597.7,1150.2l-24.3,42h-48.6l-24.3-42l0.2-0.4
		h96.6L597.7,1150.2z M442.6,1150.2l-24.3,42h-48.6l-24.3-42l0.2-0.4h96.6L442.6,1150.2z M287.6,1150.2l-24.3,42h-48.6l-24.3-42
		l0.2-0.4h96.6L287.6,1150.2z M89.3,1108.1h19l24.3,42l-24.3,42h-19V1108.1z M89.3,1018.7h19l24.3,42l-24.3,42h-19V1018.7z
		 M89.3,929.2h19l24.3,42l-24.3,42h-19V929.2z M89.3,839.7h19l24.3,42l-24.3,42h-19V839.7z M89.3,750.2h19l24.3,42l-24.3,42h-19
		V750.2z M89.3,660.7h19l24.3,42l-24.3,42h-19V660.7z M89.3,571.2h19l24.3,42l-24.3,42h-19V571.2z M89.3,481.7h19l24.3,42l-24.3,42
		h-19V481.7z M89.3,392.2h19l24.3,42l-24.3,42h-19V392.2z M89.3,302.7h19l24.3,42l-24.3,42h-19V302.7z M89.3,213.2h19l24.3,42
		l-24.3,42h-19V213.2z M89.3,123.7h19l24.3,42l-24.3,42h-19V123.7z M910.6,159.9h10.8v3.1v5.4v84.1v5.4V342v5.4v84.1v5.4V521v5.4
		v84.1v5.4V700v5.4v84.1v5.4V879v5.4v84.1v5.4v84.1v5.4v72.7h-15.6h-6.2h-80.8h-6.2h-61.7h-6.2h-80.8h-6.2h-61.7h-6.2h-80.8h-6.2
		h-61.7h-6.2h-80.8h-6.2h-61.7h-6.2h-80.8h-6.2h-33.8v-72.7v-5.4v-84.1v-5.4v-84.1V879v-84.1v-5.4v-84.1V700v-84.1v-5.4v-84.1V521
		v-84.1v-5.4v-84.1V342v-84.1v-5.4v-84.1V163v-3.1h29h6.2h90.4h6.2h52.1h6.2h90.4h6.2h52.1h6.2h90.4h6.2h52.1h6.2h90.4h6.2h52.1h6.2
		h90.4H910.6z M144.9,252.5h-7.6l-24.3-42l24.3-42h7.6V252.5z M144.9,257.9V342h-7.6L113,300l24.3-42H144.9z M144.9,347.4v84.1h-7.6
		l-24.3-42l24.3-42H144.9z M144.9,436.9V521h-7.6L113,479l24.3-42H144.9z M144.9,526.4v84.1h-7.6l-24.3-42l24.3-42H144.9z
		 M144.9,615.9V700h-7.6L113,658l24.3-42H144.9z M144.9,705.4v84.1h-7.6l-24.3-42l24.3-42H144.9z M144.9,794.9V879h-7.6L113,837
		l24.3-42H144.9z M144.9,884.4v84.1h-7.6l-24.3-42l24.3-42H144.9z M144.9,973.9v84.1h-7.6l-24.3-42l24.3-42H144.9z M821.8,146.2
		l13-22.5h48.6l13,22.5H821.8z M815.6,146.2h-68L733.1,121l24.3-42h48.6l24.3,42L815.6,146.2z M741.4,146.2h-74.6l13-22.5h48.6
		L741.4,146.2z M660.6,146.2h-68L578.1,121l24.3-42h48.6l24.3,42L660.6,146.2z M586.4,146.2h-74.6l13-22.5h48.6L586.4,146.2z
		 M505.6,146.2h-68L423,121l24.3-42h48.6l24.3,42L505.6,146.2z M431.4,146.2h-74.6l13-22.5h48.6L431.4,146.2z M350.6,146.2h-68
		L268,121l24.3-42h48.6l24.3,42L350.6,146.2z M276.4,146.2h-74.6l13-22.5h48.6L276.4,146.2z M195.6,146.2h-50.7V163h-7.6L113,121
		l24.3-42h48.6l24.3,42L195.6,146.2z M113,1105.4l24.3-42h7.6v84.1h-7.6L113,1105.4z M935.1,1063.4h25.8l24.3,42l-24.3,42h-25.8
		V1063.4z M935.1,1058v-84.1h25.8l24.3,42l-24.3,42H935.1z M935.1,968.5v-84.1h25.8l24.3,42l-24.3,42H935.1z M935.1,879v-84.1h25.8
		l24.3,42l-24.3,42H935.1z M935.1,789.5v-84.1h25.8l24.3,42l-24.3,42H935.1z M935.1,700v-84.1h25.8l24.3,42l-24.3,42H935.1z
		 M935.1,610.5v-84.1h25.8l24.3,42l-24.3,42H935.1z M935.1,521v-84.1h25.8l24.3,42l-24.3,42H935.1z M935.1,431.5v-84.1h25.8l24.3,42
		l-24.3,42H935.1z M935.1,342v-84.1h25.8l24.3,42l-24.3,42H935.1z M935.1,252.5v-84.1h25.8l24.3,42l-24.3,42H935.1z M935.1,163
		v-16.8h-32.5L888.1,121l24.3-42h48.6l24.3,42l-24.3,42H935.1z M902.1,66.6l5.6,9.7l-24.3,42h-48.6l-24.3-42l5.6-9.7H902.1z
		 M809.9,66.6l-4,7h-48.6l-4-7H809.9z M747.1,66.6l5.6,9.7l-24.3,42h-48.6l-24.3-42l5.6-9.7H747.1z M654.9,66.6l-4,7h-48.6l-4-7
		H654.9z M592.1,66.6l5.6,9.7l-24.3,42h-48.6l-24.3-42l5.6-9.7H592.1z M499.9,66.6l-4,7h-48.6l-4-7H499.9z M437.1,66.6l5.6,9.7
		l-24.3,42h-48.6l-24.3-42l5.6-9.7H437.1z M344.9,66.6l-4,7h-48.6l-4-7H344.9z M282.1,66.6l5.6,9.7l-24.3,42h-48.6l-24.3-42l5.6-9.7
		H282.1z M189.9,66.6l-4,7h-48.6l-4-7H189.9z M89.3,66.6H127l5.6,9.7l-24.3,42h-19V66.6z M89.3,1229.4v-31.8h19l18.3,31.8H89.3z
		 M132.9,1229.4l-19.9-34.5l24.3-42h48.6l24.3,42l-19.9,34.5H132.9z M196.5,1229.4l18.3-31.8h48.6l18.3,31.8H196.5z M287.9,1229.4
		l-19.9-34.5l24.3-42h48.6l24.3,42l-19.9,34.5H287.9z M351.5,1229.4l18.3-31.8h48.6l18.3,31.8H351.5z M442.9,1229.4l-19.9-34.5
		l24.3-42h48.6l24.3,42l-19.9,34.5H442.9z M506.5,1229.4l18.3-31.8h48.6l18.3,31.8H506.5z M598,1229.4l-19.9-34.5l24.3-42h48.6
		l24.3,42l-19.9,34.5H598z M661.5,1229.4l18.3-31.8h48.6l18.3,31.8H661.5z M753,1229.4l-19.9-34.5l24.3-42h48.6l24.3,42l-19.9,34.5
		H753z M816.5,1229.4l18.3-31.8h48.6l18.3,31.8H816.5z M908,1229.4l-19.9-34.5l24.3-42h48.6l24.3,42l-19.9,34.5H908z M990.7,1229.4
		h-19.1l18.3-31.8h0.8v-5.4h-0.8l-24.3-42l24.3-42h0.8v-5.4h-0.8l-24.3-42l24.3-42h0.8v-5.4h-0.8l-24.3-42l24.3-42h0.8v-5.4h-0.8
		l-24.3-42l24.3-42h0.8v-5.4h-0.8l-24.3-42l24.3-42h0.8v-5.4h-0.8l-24.3-42l24.3-42h0.8v-5.4h-0.8l-24.3-42l24.3-42h0.8v-5.4h-0.8
		l-24.3-42l24.3-42h0.8v-5.4h-0.8l-24.3-42l24.3-42h0.8v-5.4h-0.8l-24.3-42l24.3-42h0.8v-5.4h-0.8l-24.3-42l24.3-42h0.8v-5.4h-0.8
		l-24.3-42l24.3-42h0.8v-5.4h-0.8l-24.3-42l5.6-9.7h19.5V1229.4z M740.2,187.4H668h-6.2h-70.4h-6.2H513h-6.2h-70.4h-6.2H358h-6.2
		h-70.4h-6.2H203h-6.2H186v64.9v6v83.5v6v83.5v6v83.5v6v83.5v6v83.5v6v83.5v6v83.5v6v83.5v6v83.5v6v44.9h22.3h6.2h49.1h6.2h93.4h6.2
		h49.1h6.2h93.4h6.2h49.1h6.2h93.4h6.2h49.1h6.2h93.4h6.2h49.1h6.2h4v-13.4v-10.8v-47.5v-10.8v-20.4V995v-47.5v-10.8v-20.4v-10.8
		v-47.5v-10.8v-20.4V816v-47.5v-10.8v-20.4v-10.8V679v-10.8v-20.4V637v-47.5v-10.8v-20.4v-10.8V500v-10.8v-20.4V458v-47.5v-10.8
		v-20.4v-10.8V321v-10.8v-20.4V279v-47.5v-10.8v-20.4v-10.8v-2.1h-70.9h-6.2h-70.4H740.2z M732.3,201.1l-3.9,6.7h-48.6l-3.9-6.7
		H732.3z M880.2,297.3h-45.4l-24.3-42l24.3-42h45.4V297.3z M880.2,386.8h-45.4l-24.3-42l24.3-42h45.4V386.8z M880.2,476.3h-45.4
		l-24.3-42l24.3-42h45.4V476.3z M880.2,565.8h-45.4l-24.3-42l24.3-42h45.4V565.8z M880.2,655.3h-45.4l-24.3-42l24.3-42h45.4V655.3z
		 M880.2,744.8h-45.4l-24.3-42l24.3-42h45.4V744.8z M880.2,834.3h-45.4l-24.3-42l24.3-42h45.4V834.3z M880.2,923.8h-45.4l-24.3-42
		l24.3-42h45.4V923.8z M880.2,1013.3h-45.4l-24.3-42l24.3-42h45.4V1013.3z M199.8,955.2l15.1-26.1h48.6l24.3,42l-24.3,42h-48.6
		l-15.1-26.1V955.2z M199.8,865.7l15.1-26.1h48.6l24.3,42l-24.3,42h-48.6l-15.1-26.1V865.7z M199.8,776.2l15.1-26.1h48.6l24.3,42
		l-24.3,42h-48.6l-15.1-26.1V776.2z M199.8,686.7l15.1-26.1h48.6l24.3,42l-24.3,42h-48.6l-15.1-26.1V686.7z M199.8,597.2l15.1-26.1
		h48.6l24.3,42l-24.3,42h-48.6l-15.1-26.1V597.2z M199.8,507.8l15.1-26.1h48.6l24.3,42l-24.3,42h-48.6l-15.1-26.1V507.8z
		 M199.8,418.3l15.1-26.1h48.6l24.3,42l-24.3,42h-48.6l-15.1-26.1V418.3z M199.8,328.8l15.1-26.1h48.6l24.3,42l-24.3,42h-48.6
		l-15.1-26.1V328.8z M199.8,239.3l15.1-26.1h48.6l24.3,42l-24.3,42h-48.6l-15.1-26.1V239.3z M524.8,565.8l-24.3-42l24.3-42h48.6
		l24.3,42l-24.3,42H524.8z M597.7,613.2l-24.3,42h-48.6l-24.3-42l24.3-42h48.6L597.7,613.2z M520.2,568.5l-24.3,42h-48.6l-24.3-42
		l24.3-42h48.6L520.2,568.5z M495.9,615.9l24.3,42l-24.3,42h-48.6L423,658l24.3-42H495.9z M495.9,705.4l24.3,42l-24.3,42h-48.6
		l-24.3-42l24.3-42H495.9z M500.6,702.7l24.3-42h48.6l24.3,42l-24.3,42h-48.6L500.6,702.7z M602.3,705.4h48.6l24.3,42l-24.3,42
		h-48.6l-24.3-42L602.3,705.4z M602.3,700l-24.3-42l24.3-42h48.6l24.3,42l-24.3,42H602.3z M602.3,610.5l-24.3-42l24.3-42h48.6
		l24.3,42l-24.3,42H602.3z M602.3,521l-24.3-42l24.3-42h48.6l24.3,42l-24.3,42H602.3z M573.4,476.3h-48.6l-24.3-42l24.3-42h48.6
		l24.3,42L573.4,476.3z M520.2,479l-24.3,42h-48.6L423,479l24.3-42h48.6L520.2,479z M418.4,476.3h-48.6l-24.3-42l24.3-42h48.6
		l24.3,42L418.4,476.3z M418.4,481.7l24.3,42l-24.3,42h-48.6l-24.3-42l24.3-42H418.4z M418.4,571.2l24.3,42l-24.3,42h-48.6l-24.3-42
		l24.3-42H418.4z M418.4,660.7l24.3,42l-24.3,42h-48.6l-24.3-42l24.3-42H418.4z M418.4,750.2l24.3,42l-24.3,42h-48.6l-24.3-42
		l24.3-42H418.4z M447.3,794.9h48.6l24.3,42l-24.3,42h-48.6L423,837L447.3,794.9z M500.6,792.2l24.3-42h48.6l24.3,42l-24.3,42h-48.6
		L500.6,792.2z M602.3,794.9h48.6l24.3,42l-24.3,42h-48.6l-24.3-42L602.3,794.9z M655.6,792.2l24.3-42h48.6l24.3,42l-24.3,42h-48.6
		L655.6,792.2z M679.8,744.8l-24.3-42l24.3-42h48.6l24.3,42l-24.3,42H679.8z M679.8,655.3l-24.3-42l24.3-42h48.6l24.3,42l-24.3,42
		H679.8z M679.8,565.8l-24.3-42l24.3-42h48.6l24.3,42l-24.3,42H679.8z M679.8,476.3l-24.3-42l24.3-42h48.6l24.3,42l-24.3,42H679.8z
		 M650.9,431.5h-48.6l-24.3-42l24.3-42h48.6l24.3,42L650.9,431.5z M573.4,386.8h-48.6l-24.3-42l24.3-42h48.6l24.3,42L573.4,386.8z
		 M520.2,389.5l-24.3,42h-48.6l-24.3-42l24.3-42h48.6L520.2,389.5z M418.4,386.8h-48.6l-24.3-42l24.3-42h48.6l24.3,42L418.4,386.8z
		 M365.1,389.5l-24.3,42h-48.6l-24.3-42l24.3-42h48.6L365.1,389.5z M340.9,436.9l24.3,42l-24.3,42h-48.6L268,479l24.3-42H340.9z
		 M340.9,526.4l24.3,42l-24.3,42h-48.6l-24.3-42l24.3-42H340.9z M340.9,615.9l24.3,42l-24.3,42h-48.6L268,658l24.3-42H340.9z
		 M340.9,705.4l24.3,42l-24.3,42h-48.6l-24.3-42l24.3-42H340.9z M340.9,794.9l24.3,42l-24.3,42h-48.6L268,837l24.3-42H340.9z
		 M340.9,884.4l24.3,42l-24.3,42h-48.6l-24.3-42l24.3-42H340.9z M345.5,881.7l24.3-42h48.6l24.3,42l-24.3,42h-48.6L345.5,881.7z
		 M447.3,884.4h48.6l24.3,42l-24.3,42h-48.6l-24.3-42L447.3,884.4z M500.6,881.7l24.3-42h48.6l24.3,42l-24.3,42h-48.6L500.6,881.7z
		 M602.3,884.4h48.6l24.3,42l-24.3,42h-48.6l-24.3-42L602.3,884.4z M655.6,881.7l24.3-42h48.6l24.3,42l-24.3,42h-48.6L655.6,881.7z
		 M757.3,884.4h48.6l24.3,42l-24.3,42h-48.6l-24.3-42L757.3,884.4z M757.3,879l-24.3-42l24.3-42h48.6l24.3,42l-24.3,42H757.3z
		 M757.3,789.5l-24.3-42l24.3-42h48.6l24.3,42l-24.3,42H757.3z M757.3,700l-24.3-42l24.3-42h48.6l24.3,42l-24.3,42H757.3z
		 M757.3,610.5l-24.3-42l24.3-42h48.6l24.3,42l-24.3,42H757.3z M757.3,521l-24.3-42l24.3-42h48.6l24.3,42l-24.3,42H757.3z
		 M757.3,431.5l-24.3-42l24.3-42h48.6l24.3,42l-24.3,42H757.3z M728.4,386.8h-48.6l-24.3-42l24.3-42h48.6l24.3,42L728.4,386.8z
		 M650.9,342h-48.6l-24.3-42l24.3-42h48.6l24.3,42L650.9,342z M573.4,297.3h-48.6l-24.3-42l24.3-42h48.6l24.3,42L573.4,297.3z
		 M520.2,300l-24.3,42h-48.6L423,300l24.3-42h48.6L520.2,300z M418.4,297.3h-48.6l-24.3-42l24.3-42h48.6l24.3,42L418.4,297.3z
		 M365.1,300l-24.3,42h-48.6L268,300l24.3-42h48.6L365.1,300z M292.3,973.9h48.6l24.3,42l-24.3,42h-48.6l-24.3-42L292.3,973.9z
		 M345.5,971.2l24.3-42h48.6l24.3,42l-24.3,42h-48.6L345.5,971.2z M447.3,973.9h48.6l24.3,42l-24.3,42h-48.6l-24.3-42L447.3,973.9z
		 M500.6,971.2l24.3-42h48.6l24.3,42l-24.3,42h-48.6L500.6,971.2z M602.3,973.9h48.6l24.3,42l-24.3,42h-48.6l-24.3-42L602.3,973.9z
		 M655.6,971.2l24.3-42h48.6l24.3,42l-24.3,42h-48.6L655.6,971.2z M757.3,973.9h48.6l24.3,42l-24.3,42h-48.6l-24.3-42L757.3,973.9z
		 M830.2,300l-24.3,42h-48.6l-24.3-42l24.3-42h48.6L830.2,300z M728.4,297.3h-48.6l-24.3-42l24.3-42h48.6l24.3,42L728.4,297.3z
		 M669.7,201.1l5.4,9.4l-24.3,42h-48.6l-24.3-42l5.4-9.4H669.7z M577.3,201.1l-3.9,6.7h-48.6l-3.9-6.7H577.3z M514.7,201.1l5.4,9.4
		l-24.3,42h-48.6l-24.3-42l5.4-9.4H514.7z M422.2,201.1l-3.9,6.7h-48.6l-3.9-6.7H422.2z M359.7,201.1l5.4,9.4l-24.3,42h-48.6
		l-24.3-42l5.4-9.4H359.7z M267.2,201.1l-3.9,6.7h-48.6l-3.9-6.7H267.2z M199.8,201.1h4.9l5.4,9.4l-10.4,18V201.1z M199.8,282
		l10.4,18l-10.4,18V282z M199.8,371.5l10.4,18l-10.4,18V371.5z M199.8,461l10.4,18l-10.4,18V461z M199.8,550.5l10.4,18l-10.4,18
		V550.5z M199.8,640l10.4,18l-10.4,18V640z M199.8,729.5l10.4,18l-10.4,18V729.5z M199.8,819l10.4,18l-10.4,18V819z M199.8,908.5
		l10.4,18l-10.4,18V908.5z M199.8,998l10.4,18l-10.4,18V998z M199.8,1094.9v-7.4l4.3,7.4H199.8z M210.3,1094.9l-10.5-18.2v-31.9
		l15.1-26.1h48.6l24.3,42l-19.8,34.2H210.3z M274.1,1094.9l18.2-31.5h48.6l18.2,31.5H274.1z M365.3,1094.9l-19.8-34.2l24.3-42h48.6
		l24.3,42l-19.8,34.2H365.3z M429.1,1094.9l18.2-31.5h48.6l18.2,31.5H429.1z M520.3,1094.9l-19.8-34.2l24.3-42h48.6l24.3,42
		l-19.8,34.2H520.3z M584.1,1094.9l18.2-31.5h48.6l18.2,31.5H584.1z M675.3,1094.9l-19.8-34.2l24.3-42h48.6l24.3,42l-19.8,34.2
		H675.3z M739.1,1094.9l18.2-31.5h48.6l18.2,31.5H739.1z M810.6,1060.7l24.3-42h45.4v76.3h-49.9L810.6,1060.7z M880.2,201.1v6.7
		h-45.4l-3.9-6.7H880.2z M824.7,201.1l5.4,9.4l-24.3,42h-48.6l-24.3-42l5.4-9.4H824.7z"/>
	<path fill="#45A8DE" d="M597.7,523.7l-24.3,42h-48.6l-24.3-42l24.3-42h48.6L597.7,523.7z M500.6,702.7l24.3,42h48.6l24.3-42
		l-24.3-42h-48.6L500.6,702.7z M650.9,615.9h-48.6l-24.3,42l24.3,42h48.6l24.3-42L650.9,615.9z M650.9,705.4h-48.6l-24.3,42l24.3,42
		h48.6l24.3-42L650.9,705.4z M573.4,571.2h-48.6l-24.3,42l24.3,42h48.6l24.3-42L573.4,571.2z M810.6,1060.7l19.8,34.2h49.9v-76.3
		h-45.4L810.6,1060.7z M728.4,1018.7h-48.6l-24.3,42l19.8,34.2h57.6l19.8-34.2L728.4,1018.7z M602.3,1063.4l-18.2,31.5h84.9
		l-18.2-31.5H602.3z M805.9,884.4h-48.6l-24.3,42l24.3,42h48.6l24.3-42L805.9,884.4z M650.9,526.4h-48.6l-24.3,42l24.3,42h48.6
		l24.3-42L650.9,526.4z M757.3,1063.4l-18.2,31.5h84.9l-18.2-31.5H757.3z M573.4,834.3l24.3-42l-24.3-42h-48.6l-24.3,42l24.3,42
		H573.4z M447.3,879h48.6l24.3-42l-24.3-42h-48.6L423,837L447.3,879z M650.9,879l24.3-42l-24.3-42h-48.6l-24.3,42l24.3,42H650.9z
		 M728.4,750.2h-48.6l-24.3,42l24.3,42h48.6l24.3-42L728.4,750.2z M650.9,436.9h-48.6l-24.3,42l24.3,42h48.6l24.3-42L650.9,436.9z
		 M728.4,660.7h-48.6l-24.3,42l24.3,42h48.6l24.3-42L728.4,660.7z M573.4,392.2h-48.6l-24.3,42l24.3,42h48.6l24.3-42L573.4,392.2z
		 M447.3,436.9L423,479l24.3,42h48.6l24.3-42l-24.3-42H447.3z M447.3,789.5h48.6l24.3-42l-24.3-42h-48.6l-24.3,42L447.3,789.5z
		 M447.3,700h48.6l24.3-42l-24.3-42h-48.6L423,658L447.3,700z M447.3,610.5h48.6l24.3-42l-24.3-42h-48.6l-24.3,42L447.3,610.5z
		 M263.4,565.8l24.3-42l-24.3-42h-48.6l-15.1,26.1v31.9l15.1,26.1H263.4z M728.4,571.2h-48.6l-24.3,42l24.3,42h48.6l24.3-42
		L728.4,571.2z M199.8,461V497l10.4-18L199.8,461z M199.8,550.5v35.9l10.4-18L199.8,550.5z M199.8,640v35.9l10.4-18L199.8,640z
		 M263.4,655.3l24.3-42l-24.3-42h-48.6l-15.1,26.1v31.9l15.1,26.1H263.4z M199.8,371.5v35.9l10.4-18L199.8,371.5z M199.8,282V318
		l10.4-18L199.8,282z M263.4,297.3l24.3-42l-24.3-42h-48.6l-15.1,26.1v31.9l15.1,26.1H263.4z M263.4,476.3l24.3-42l-24.3-42h-48.6
		l-15.1,26.1v31.9l15.1,26.1H263.4z M263.4,744.8l24.3-42l-24.3-42h-48.6l-15.1,26.1v31.9l15.1,26.1H263.4z M292.3,1063.4
		l-18.2,31.5h84.9l-18.2-31.5H292.3z M199.8,729.5v35.9l10.4-18L199.8,729.5z M199.8,998v35.9l10.4-18L199.8,998z M573.4,1018.7
		h-48.6l-24.3,42l19.8,34.2h57.6l19.8-34.2L573.4,1018.7z M447.3,1063.4l-18.2,31.5h84.9l-18.2-31.5H447.3z M418.4,1018.7h-48.6
		l-24.3,42l19.8,34.2h57.6l19.8-34.2L418.4,1018.7z M263.4,1013.3l24.3-42l-24.3-42h-48.6l-15.1,26.1v31.9l15.1,26.1H263.4z
		 M263.4,834.3l24.3-42l-24.3-42h-48.6l-15.1,26.1v31.9l15.1,26.1H263.4z M199.8,819v35.9l10.4-18L199.8,819z M199.8,908.5v35.9
		l10.4-18L199.8,908.5z M263.4,923.8l24.3-42l-24.3-42h-48.6l-15.1,26.1v31.9l15.1,26.1H263.4z M263.4,1018.7h-48.6l-15.1,26.1v31.9
		l10.5,18.2h57.6l19.8-34.2L263.4,1018.7z M369.8,213.2l-24.3,42l24.3,42h48.6l24.3-42l-24.3-42H369.8z M292.3,431.5h48.6l24.3-42
		l-24.3-42h-48.6l-24.3,42L292.3,431.5z M292.3,257.9L268,300l24.3,42h48.6l24.3-42l-24.3-42H292.3z M292.3,521h48.6l24.3-42
		l-24.3-42h-48.6L268,479L292.3,521z M292.3,610.5h48.6l24.3-42l-24.3-42h-48.6l-24.3,42L292.3,610.5z M805.9,257.9h-48.6l-24.3,42
		l24.3,42h48.6l24.3-42L805.9,257.9z M728.4,213.2h-48.6l-24.3,42l24.3,42h48.6l24.3-42L728.4,213.2z M805.9,347.4h-48.6l-24.3,42
		l24.3,42h48.6l24.3-42L805.9,347.4z M292.3,700h48.6l24.3-42l-24.3-42h-48.6L268,658L292.3,700z M524.8,213.2l-24.3,42l24.3,42
		h48.6l24.3-42l-24.3-42H524.8z M602.3,257.9l-24.3,42l24.3,42h48.6l24.3-42l-24.3-42H602.3z M447.3,257.9L423,300l24.3,42h48.6
		l24.3-42l-24.3-42H447.3z M573.4,1013.3l24.3-42l-24.3-42h-48.6l-24.3,42l24.3,42H573.4z M650.9,1058l24.3-42l-24.3-42h-48.6
		l-24.3,42l24.3,42H650.9z M728.4,1013.3l24.3-42l-24.3-42h-48.6l-24.3,42l24.3,42H728.4z M495.9,1058l24.3-42l-24.3-42h-48.6
		l-24.3,42l24.3,42H495.9z M728.4,481.7h-48.6l-24.3,42l24.3,42h48.6l24.3-42L728.4,481.7z M292.3,789.5h48.6l24.3-42l-24.3-42
		h-48.6l-24.3,42L292.3,789.5z M292.3,879h48.6l24.3-42l-24.3-42h-48.6L268,837L292.3,879z M292.3,968.5h48.6l24.3-42l-24.3-42
		h-48.6l-24.3,42L292.3,968.5z M292.3,1058h48.6l24.3-42l-24.3-42h-48.6l-24.3,42L292.3,1058z M418.4,1013.3l24.3-42l-24.3-42h-48.6
		l-24.3,42l24.3,42H418.4z M805.9,1058l24.3-42l-24.3-42h-48.6l-24.3,42l24.3,42H805.9z M369.8,302.7l-24.3,42l24.3,42h48.6l24.3-42
		l-24.3-42H369.8z M447.3,347.4l-24.3,42l24.3,42h48.6l24.3-42l-24.3-42H447.3z M369.8,744.8h48.6l24.3-42l-24.3-42h-48.6l-24.3,42
		L369.8,744.8z M369.8,655.3h48.6l24.3-42l-24.3-42h-48.6l-24.3,42L369.8,655.3z M369.8,565.8h48.6l24.3-42l-24.3-42h-48.6l-24.3,42
		L369.8,565.8z M369.8,476.3h48.6l24.3-42l-24.3-42h-48.6l-24.3,42L369.8,476.3z M728.4,302.7h-48.6l-24.3,42l24.3,42h48.6l24.3-42
		L728.4,302.7z M805.9,436.9h-48.6l-24.3,42l24.3,42h48.6l24.3-42L805.9,436.9z M728.4,392.2h-48.6l-24.3,42l24.3,42h48.6l24.3-42
		L728.4,392.2z M650.9,347.4h-48.6l-24.3,42l24.3,42h48.6l24.3-42L650.9,347.4z M524.8,302.7l-24.3,42l24.3,42h48.6l24.3-42
		l-24.3-42H524.8z M805.9,794.9h-48.6l-24.3,42l24.3,42h48.6l24.3-42L805.9,794.9z M805.9,705.4h-48.6l-24.3,42l24.3,42h48.6
		l24.3-42L805.9,705.4z M369.8,834.3h48.6l24.3-42l-24.3-42h-48.6l-24.3,42L369.8,834.3z M728.4,923.8l24.3-42l-24.3-42h-48.6
		l-24.3,42l24.3,42H728.4z M805.9,526.4h-48.6l-24.3,42l24.3,42h48.6l24.3-42L805.9,526.4z M805.9,615.9h-48.6l-24.3,42l24.3,42
		h48.6l24.3-42L805.9,615.9z M495.9,968.5l24.3-42l-24.3-42h-48.6l-24.3,42l24.3,42H495.9z M369.8,923.8h48.6l24.3-42l-24.3-42
		h-48.6l-24.3,42L369.8,923.8z M650.9,968.5l24.3-42l-24.3-42h-48.6l-24.3,42l24.3,42H650.9z M573.4,923.8l24.3-42l-24.3-42h-48.6
		l-24.3,42l24.3,42H573.4z M960.9,615.9h-25.8V700h25.8l24.3-42L960.9,615.9z M144.9,794.9h-7.6L113,837l24.3,42h7.6V794.9z
		 M495.9,1152.9h-48.6l-24.3,42l19.9,34.5h57.3l19.9-34.5L495.9,1152.9z M524.8,1197.6l-18.3,31.8h85.2l-18.3-31.8H524.8z
		 M805.9,1152.9h-48.6l-24.3,42l19.9,34.5h57.3l19.9-34.5L805.9,1152.9z M679.8,1197.6l-18.3,31.8h85.2l-18.3-31.8H679.8z
		 M650.9,1152.9h-48.6l-24.3,42l19.9,34.5h57.3l19.9-34.5L650.9,1152.9z M89.3,1197.6v31.8h37.4l-18.3-31.8H89.3z M132.6,1150.2
		l-24.3-42h-19v84.1h19L132.6,1150.2z M214.8,1197.6l-18.3,31.8h85.2l-18.3-31.8H214.8z M340.9,1152.9h-48.6l-24.3,42l19.9,34.5
		h57.3l19.9-34.5L340.9,1152.9z M185.9,1152.9h-48.6l-24.3,42l19.9,34.5h57.3l19.9-34.5L185.9,1152.9z M144.9,973.9h-7.6l-24.3,42
		l24.3,42h7.6V973.9z M190.5,1150.2l24.3,42h48.6l24.3-42l-0.2-0.4h-96.6L190.5,1150.2z M834.9,1197.6l-18.3,31.8h85.2l-18.3-31.8
		H834.9z M144.9,884.4h-7.6l-24.3,42l24.3,42h7.6V884.4z M345.5,1150.2l24.3,42h48.6l24.3-42l-0.2-0.4h-96.6L345.5,1150.2z
		 M132.6,1060.7l-24.3-42h-19v84.1h19L132.6,1060.7z M113,1105.4l24.3,42h7.6v-84.1h-7.6L113,1105.4z M810.6,1150.2l24.3,42h48.6
		l24.3-42l-0.2-0.4h-96.6L810.6,1150.2z M500.6,1150.2l24.3,42h48.6l24.3-42l-0.2-0.4h-96.6L500.6,1150.2z M960.9,1152.9h-48.6
		l-24.3,42l19.9,34.5h57.3l19.9-34.5L960.9,1152.9z M655.6,1150.2l24.3,42h48.6l24.3-42l-0.2-0.4h-96.6L655.6,1150.2z M369.8,1197.6
		l-18.3,31.8h85.2l-18.3-31.8H369.8z M418.4,118.3l24.3-42l-5.6-9.7h-85.9l-5.6,9.7l24.3,42H418.4z M495.9,73.5l4-7h-56.6l4,7H495.9
		z M573.4,118.3l24.3-42l-5.6-9.7h-85.9l-5.6,9.7l24.3,42H573.4z M263.4,118.3l24.3-42l-5.6-9.7h-85.9l-5.6,9.7l24.3,42H263.4z
		 M340.9,73.5l4-7h-56.6l4,7H340.9z M185.9,73.5l4-7h-56.6l4,7H185.9z M960.9,73.5l4-7h-56.6l4,7H960.9z M883.4,118.3l24.3-42
		l-5.6-9.7h-85.9l-5.6,9.7l24.3,42H883.4z M728.4,118.3l24.3-42l-5.6-9.7h-85.9l-5.6,9.7l24.3,42H728.4z M650.9,73.5l4-7h-56.6l4,7
		H650.9z M805.9,73.5l4-7h-56.6l4,7H805.9z M132.6,523.7l-24.3-42h-19v84.1h19L132.6,523.7z M132.6,613.2l-24.3-42h-19v84.1h19
		L132.6,613.2z M132.6,702.7l-24.3-42h-19v84.1h19L132.6,702.7z M132.6,881.7l-24.3-42h-19v84.1h19L132.6,881.7z M132.6,792.2
		l-24.3-42h-19v84.1h19L132.6,792.2z M132.6,971.2l-24.3-42h-19v84.1h19L132.6,971.2z M132.6,76.2l-5.6-9.7H89.3v51.7h19L132.6,76.2
		z M132.6,434.2l-24.3-42h-19v84.1h19L132.6,434.2z M204.7,201.1h-4.9v27.4l10.4-18L204.7,201.1z M132.6,255.2l-24.3-42h-19v84.1h19
		L132.6,255.2z M132.6,344.7l-24.3-42h-19v84.1h19L132.6,344.7z M132.6,165.7l-24.3-42h-19v84.1h19L132.6,165.7z M810.6,792.2
		l24.3,42h45.4v-84.1h-45.4L810.6,792.2z M810.6,702.7l24.3,42h45.4v-84.1h-45.4L810.6,702.7z M810.6,613.2l24.3,42h45.4v-84.1
		h-45.4L810.6,613.2z M810.6,523.7l24.3,42h45.4v-84.1h-45.4L810.6,523.7z M810.6,434.2l24.3,42h45.4v-84.1h-45.4L810.6,434.2z
		 M810.6,881.7l24.3,42h45.4v-84.1h-45.4L810.6,881.7z M960.9,884.4h-25.8v84.1h25.8l24.3-42L960.9,884.4z M960.9,794.9h-25.8V879
		h25.8l24.3-42L960.9,794.9z M199.8,1094.9h4.3l-4.3-7.4V1094.9z M960.9,973.9h-25.8v84.1h25.8l24.3-42L960.9,973.9z M810.6,344.7
		l24.3,42h45.4v-84.1h-45.4L810.6,344.7z M573.4,207.8l3.9-6.7H521l3.9,6.7H573.4z M418.4,207.8l3.9-6.7h-56.3l3.9,6.7H418.4z
		 M495.9,252.5l24.3-42l-5.4-9.4h-86.2l-5.4,9.4l24.3,42H495.9z M263.4,207.8l3.9-6.7h-56.3l3.9,6.7H263.4z M810.6,255.2l24.3,42
		h45.4v-84.1h-45.4L810.6,255.2z M960.9,705.4h-25.8v84.1h25.8l24.3-42L960.9,705.4z M340.9,252.5l24.3-42l-5.4-9.4h-86.2l-5.4,9.4
		l24.3,42H340.9z M650.9,252.5l24.3-42l-5.4-9.4h-86.2l-5.4,9.4l24.3,42H650.9z M834.9,207.8h45.4v-6.7H831L834.9,207.8z
		 M805.9,252.5l24.3-42l-5.4-9.4h-86.2l-5.4,9.4l24.3,42H805.9z M728.4,207.8l3.9-6.7H676l3.9,6.7H728.4z M602.3,78.9l-24.3,42
		l14.6,25.2h68l14.6-25.2l-24.3-42H602.3z M144.9,168.4h-7.6l-24.3,42l24.3,42h7.6V168.4z M144.9,257.9h-7.6L113,300l24.3,42h7.6
		V257.9z M214.8,123.7l-13,22.5h74.6l-13-22.5H214.8z M292.3,78.9L268,121l14.6,25.2h68l14.6-25.2l-24.3-42H292.3z M369.8,123.7
		l-13,22.5h74.6l-13-22.5H369.8z M144.9,526.4h-7.6l-24.3,42l24.3,42h7.6V526.4z M144.9,615.9h-7.6L113,658l24.3,42h7.6V615.9z
		 M144.9,347.4h-7.6l-24.3,42l24.3,42h7.6V347.4z M447.3,78.9L423,121l14.6,25.2h68l14.6-25.2l-24.3-42H447.3z M810.6,971.2l24.3,42
		h45.4v-84.1h-45.4L810.6,971.2z M144.9,436.9h-7.6L113,479l24.3,42h7.6V436.9z M960.9,257.9h-25.8V342h25.8l24.3-42L960.9,257.9z
		 M960.9,168.4h-25.8v84.1h25.8l24.3-42L960.9,168.4z M960.9,347.4h-25.8v84.1h25.8l24.3-42L960.9,347.4z M960.9,436.9h-25.8V521
		h25.8l24.3-42L960.9,436.9z M524.8,123.7l-13,22.5h74.6l-13-22.5H524.8z M960.9,526.4h-25.8v84.1h25.8l24.3-42L960.9,526.4z
		 M883.4,123.7h-48.6l-13,22.5h74.6L883.4,123.7z M144.9,705.4h-7.6l-24.3,42l24.3,42h7.6V705.4z M679.8,123.7l-13,22.5h74.6
		l-13-22.5H679.8z M757.3,78.9l-24.3,42l14.6,25.2h68l14.6-25.2l-24.3-42H757.3z M263.4,386.8l24.3-42l-24.3-42h-48.6l-15.1,26.1
		v31.9l15.1,26.1H263.4z M144.9,146.2h50.7l14.6-25.2l-24.3-42h-48.6L113,121l24.3,42h7.6V146.2z M935.1,1147.5h25.8l24.3-42
		l-24.3-42h-25.8V1147.5z M971.2,66.6l-5.6,9.7l24.3,42h0.8v5.4h-0.8l-24.3,42l24.3,42h0.8v5.4h-0.8l-24.3,42l24.3,42h0.8v5.4h-0.8
		l-24.3,42l24.3,42h0.8v5.4h-0.8l-24.3,42l24.3,42h0.8v5.4h-0.8l-24.3,42l24.3,42h0.8v5.4h-0.8l-24.3,42l24.3,42h0.8v5.4h-0.8
		l-24.3,42l24.3,42h0.8v5.4h-0.8l-24.3,42l24.3,42h0.8v5.4h-0.8l-24.3,42l24.3,42h0.8v5.4h-0.8l-24.3,42l24.3,42h0.8v5.4h-0.8
		l-24.3,42l24.3,42h0.8v5.4h-0.8l-24.3,42l24.3,42h0.8v5.4h-0.8l-18.3,31.8h19.1V66.6H971.2z M960.9,78.9h-48.6l-24.3,42l14.6,25.2
		h32.5V163h25.8l24.3-42L960.9,78.9z M921.4,1136.1h-15.6h-6.2h-80.8h-6.2h-61.7h-6.2h-80.8h-6.2h-61.7h-6.2h-80.8h-6.2h-61.7h-6.2
		h-80.8h-6.2h-61.7h-6.2h-80.8h-6.2h-33.8v-72.7v-5.4v-84.1v-5.4v-84.1V879v-84.1v-5.4v-84.1V700v-84.1v-5.4v-84.1V521v-84.1v-5.4
		v-84.1V342v-84.1v-5.4v-84.1V163v-3.1h29h6.2h90.4h6.2h52.1h6.2h90.4h6.2h52.1h6.2h90.4h6.2h52.1h6.2h90.4h6.2h52.1h6.2h90.4h6.2
		h10.8v3.1v5.4v84.1v5.4V342v5.4v84.1v5.4V521v5.4v84.1v5.4V700v5.4v84.1v5.4V879v5.4v84.1v5.4v84.1v5.4V1136.1z M889.9,1108.6h4
		v-13.4v-10.8v-47.5v-10.8v-20.4V995v-47.5v-10.8v-20.4v-10.8v-47.5v-10.8v-20.4V816v-47.5v-10.8v-20.4v-10.8V679v-10.8v-20.4V637
		v-47.5v-10.8v-20.4v-10.8V500v-10.8v-20.4V458v-47.5v-10.8v-20.4v-10.8V321v-10.8v-20.4V279v-47.5v-10.8v-20.4v-10.8v-2.1h-70.9
		h-6.2h-70.4h-6.2H668h-6.2h-70.4h-6.2H513h-6.2h-70.4h-6.2H358h-6.2h-70.4h-6.2H203h-6.2H186v64.9v6v83.5v6v83.5v6v83.5v6v83.5v6
		v83.5v6v83.5v6v83.5v6v83.5v6v83.5v6v44.9h22.3h6.2h49.1h6.2h93.4h6.2h49.1h6.2h93.4h6.2h49.1h6.2h93.4h6.2h49.1h6.2h93.4h6.2h49.1
		H889.9z"/>
</g>
</svg>
