<?xml version="1.0" encoding="utf-8"?>
<!-- Generator: Adobe Illustrator 18.1.0, SVG Export Plug-In . SVG Version: 6.00 Build 0)  -->
<svg version="1.1" id="Layer_10" xmlns="http://www.w3.org/2000/svg" xmlns:xlink="http://www.w3.org/1999/xlink" x="0px" y="0px"
	 viewBox="0 0 1080 1296" enable-background="new 0 0 1080 1296" xml:space="preserve">
<path fill="#11100D" d="M153.5,284.2c-6.8,11.7-21.2,16-32.3,9.6c-2.9-1.7-5.3-3.9-7.1-6.6c-1.2-1.7-2.8-3-4.8-3.7
	c0.3,15.7,7.3,23.8,10.3,27.3c0.5,0.6,0.9,1.1,1.2,1.5l1.5,2.1l-2.6,0c-2.3,0-4.6,0-6.9,0c-2.3,0-4.6,0-6.9,0c-2.3,0-4.6,0-6.9,0
	c-2.2,0-4.6,0-6.9,0l-2.6,0l1.5-2.1c0.3-0.4,0.7-0.9,1.2-1.5c3-3.5,10.1-11.6,10.3-27.3c-1.9,0.7-3.5,1.9-4.7,3.6
	c-1.8,2.7-4.2,5-7.2,6.7c-11.1,6.4-25.5,2.1-32.3-9.6c-6.8-11.7-3.3-26.4,7.8-32.8c7.3-4.2,16.2-3.8,23.3,0.5c1.6,1,3.7,1,5.3,0
	c0.1-0.1,0.2-0.1,0.3-0.2c0.5-0.3,0.5-1.1-0.1-1.3c-8.1-3.8-13.7-11.6-13.7-20.7c0-12.8,11-23.1,24.5-23.1s24.5,10.3,24.5,23.1
	c0,9.1-5.6,17-13.7,20.7c-0.5,0.2-0.6,1-0.1,1.3c0,0,0,0,0,0c1.6,1.2,3.8,1.3,5.5,0.3c7.1-4.3,16-4.8,23.4-0.5
	C156.8,257.8,160.3,272.5,153.5,284.2z M934.2,1044.5c7.4,4.3,16.3,3.8,23.4-0.5c1.7-1,3.9-0.9,5.5,0.3c0,0,0,0,0,0
	c0.5,0.3,0.4,1.1-0.1,1.3c-8.1,3.8-13.7,11.6-13.7,20.7c0,12.8,11,23.1,24.5,23.1s24.5-10.3,24.5-23.1c0-9.1-5.6-17-13.7-20.7
	c-0.5-0.3-0.6-1-0.1-1.3c0.1-0.1,0.2-0.1,0.3-0.2c1.6-1,3.6-1,5.3,0c7.1,4.2,15.9,4.7,23.3,0.5c11.1-6.4,14.5-21,7.8-32.8
	c-6.8-11.7-21.2-16-32.3-9.6c-3,1.7-5.4,4-7.2,6.7c-1.2,1.7-2.8,2.9-4.7,3.6c0.3-15.7,7.3-23.8,10.3-27.3c0.5-0.6,0.9-1.1,1.2-1.5
	l1.5-2.1l-2.6,0c-2.3,0-4.6,0-6.9,0c-2.3,0-4.6,0-6.9,0c-2.3,0-4.6,0-6.9,0c-2.2,0-4.6,0-6.9,0l-2.6,0l1.5,2.1
	c0.3,0.4,0.7,0.9,1.2,1.5c3,3.5,10.1,11.6,10.3,27.3c-1.9-0.7-3.6-2-4.8-3.7c-1.8-2.6-4.2-4.9-7.1-6.6c-11.1-6.4-25.5-2.1-32.3,9.6
	C919.7,1023.5,923.2,1038.2,934.2,1044.5z M611.8,320.2c-13.4-7.7-29.5-6.8-42.3,1c-3.1,1.9-7.1,1.7-10-0.5c0,0,0,0-0.1-0.1
	c-0.8-0.6-0.7-1.9,0.2-2.4c14.7-6.8,24.8-21.1,24.8-37.6c0-23.1-19.9-41.9-44.4-41.9c-24.5,0-44.4,18.7-44.4,41.9
	c0,16.5,10.1,30.7,24.7,37.6c1,0.5,1.1,1.8,0.2,2.4c-0.2,0.1-0.4,0.3-0.6,0.4c-2.9,1.8-6.6,1.8-9.5,0c-12.8-7.7-28.8-8.5-42.1-0.9
	c-20,11.6-26.3,38.1-14.1,59.4c12.3,21.2,38.4,29,58.5,17.5c5.4-3.1,9.7-7.3,13-12.1c2.1-3.1,5.1-5.3,8.5-6.5
	c-0.5,28.4-13.2,43.2-18.7,49.5c-1,1.1-1.7,2-2.3,2.7l-2.7,3.8l4.7,0c4.1,0,8.4,0,12.4,0c4.1,0,8.3,0,12.5,0c4.2,0,8.4,0,12.5,0
	c4.1,0,8.3,0,12.4,0l4.7,0l-2.7-3.8c-0.5-0.8-1.3-1.6-2.3-2.7c-5.5-6.3-18.2-21.1-18.7-49.5c3.5,1.2,6.5,3.5,8.6,6.6
	c3.3,4.8,7.6,8.9,12.9,11.9c20,11.6,46.2,3.7,58.5-17.5C638.1,358.4,631.8,331.8,611.8,320.2z M567.4,898.9
	c-5.3,3-9.6,7.1-12.9,11.9c-2.1,3.1-5.2,5.4-8.6,6.6c0.5-28.4,13.2-43.1,18.7-49.5c1-1.1,1.7-2,2.3-2.7l2.7-3.8l-4.7,0
	c-4.1,0-8.4,0-12.4,0c-4.1,0-8.3,0-12.5,0c-4.1,0-8.4,0-12.5,0c-4.1,0-8.3,0-12.4,0l-4.7,0l2.7,3.8c0.5,0.8,1.3,1.6,2.3,2.7
	c5.5,6.4,18.2,21.1,18.7,49.5c-3.4-1.2-6.4-3.4-8.5-6.5c-3.3-4.8-7.7-9-13-12.1c-20-11.6-46.2-3.7-58.5,17.5
	c-12.3,21.2-5.9,47.8,14.1,59.4c13.3,7.7,29.3,6.8,42.1-0.9c2.9-1.8,6.6-1.8,9.5,0c0.2,0.1,0.4,0.3,0.6,0.4c0.9,0.6,0.8,2-0.2,2.4
	c-14.7,6.8-24.7,21.1-24.7,37.6c0,23.1,19.9,41.9,44.4,41.9c24.5,0,44.4-18.7,44.4-41.9c0-16.5-10.1-30.8-24.8-37.6
	c-1-0.4-1.1-1.8-0.2-2.4c0,0,0,0,0.1-0.1c2.9-2.2,6.9-2.4,10-0.5c12.9,7.8,29,8.7,42.3,1c20-11.6,26.3-38.1,14.1-59.4
	C613.6,895.2,587.4,887.4,567.4,898.9z M142.8,162.5H81.3l40.4-43.8c18.9-20.5,28.4-38.2,28.4-53c0-12.2-4.1-22-12.2-29.3
	c-8.1-7.3-19.2-11-33.2-11c-15,0-26.9,4.3-35.9,12.8c-8.9,8.6-13.4,19.8-13.4,33.6h19.2c0-9.7,2.6-17.2,7.9-22.6
	c5.3-5.4,12.7-8.1,22.2-8.1c7.9,0,14.3,2.5,19,7.6c4.8,5,7.1,11.5,7.1,19.4c0,5.9-1.5,11.5-4.4,17c-2.9,5.5-8.3,12.6-16,21.4
	l-52.2,58v13.8H157v-9.6v-6v-13h-14.2V162.5z M1005.5,1224.2c0,9.7-2.6,17.2-7.9,22.6c-5.3,5.4-12.7,8.1-22.2,8.1
	c-7.9,0-14.3-2.5-19-7.6c-4.8-5-7.1-11.5-7.1-19.4c0-5.9,1.5-11.5,4.4-17c2.9-5.5,8.3-12.6,16-21.4l52.2-58v-13.8H923v9.6v6v13h14.2
	v-13h61.5l-40.4,43.8c-18.9,20.5-28.4,38.2-28.4,53c0,12.2,4.1,22,12.2,29.3c8.1,7.3,19.2,11,33.2,11c15,0,26.9-4.3,35.9-12.8
	c8.9-8.6,13.4-19.8,13.4-33.6H1005.5z"/>
</svg>
