<?xml version="1.0" encoding="utf-8"?>
<!-- Generator: Adobe Illustrator 18.1.0, SVG Export Plug-In . SVG Version: 6.00 Build 0)  -->
<svg version="1.1" id="Layer_10" xmlns="http://www.w3.org/2000/svg" xmlns:xlink="http://www.w3.org/1999/xlink" x="0px" y="0px"
	 viewBox="0 0 1080 1296" enable-background="new 0 0 1080 1296" xml:space="preserve">
<path d="M410.3,302.8c-13.4-7.7-29.5-6.8-42.3,1c-3.1,1.9-7.1,1.7-10-0.5c0,0,0,0-0.1-0.1c-0.8-0.6-0.7-1.9,0.2-2.4
	c14.7-6.8,24.8-21.1,24.8-37.6c0-23.1-19.9-41.9-44.4-41.9c-24.5,0-44.4,18.7-44.4,41.9c0,16.5,10.1,30.7,24.7,37.6
	c1,0.5,1.1,1.8,0.2,2.4c-0.2,0.1-0.4,0.3-0.6,0.4c-2.9,1.8-6.6,1.8-9.5,0c-12.8-7.7-28.8-8.5-42.1-0.9c-20,11.6-26.3,38.1-14.1,59.4
	c12.3,21.2,38.4,29,58.5,17.5c5.4-3.1,9.7-7.3,13-12.1c2.1-3.1,5.1-5.3,8.5-6.5c-0.5,28.4-13.2,43.2-18.7,49.5c-1,1.1-1.7,2-2.3,2.7
	l-2.7,3.8l4.7,0c4.1,0,8.4,0,12.4,0c4.1,0,8.3,0,12.5,0c4.2,0,8.4,0,12.5,0c4.1,0,8.3,0,12.4,0l4.7,0l-2.7-3.8
	c-0.5-0.8-1.3-1.6-2.3-2.7c-5.5-6.3-18.2-21.1-18.7-49.5c3.5,1.2,6.5,3.5,8.6,6.6c3.3,4.8,7.6,8.9,12.9,11.9
	c20,11.6,46.2,3.7,58.5-17.5C436.6,341,430.3,314.4,410.3,302.8z"/>
<path d="M410.3,631.6c-13.4-7.7-29.5-6.8-42.3,1c-3.1,1.9-7.1,1.7-10-0.5c0,0,0,0-0.1-0.1c-0.8-0.6-0.7-1.9,0.2-2.4
	c14.7-6.8,24.8-21.1,24.8-37.6c0-23.1-19.9-41.9-44.4-41.9c-24.5,0-44.4,18.7-44.4,41.9c0,16.5,10.1,30.7,24.7,37.6
	c1,0.5,1.1,1.8,0.2,2.4c-0.2,0.1-0.4,0.3-0.6,0.4c-2.9,1.8-6.6,1.8-9.5,0c-12.8-7.7-28.8-8.5-42.1-0.9c-20,11.6-26.3,38.1-14.1,59.4
	c12.3,21.2,38.4,29,58.5,17.5c5.4-3.1,9.7-7.3,13-12.1c2.1-3.1,5.1-5.3,8.5-6.5c-0.5,28.4-13.2,43.2-18.7,49.5c-1,1.1-1.7,2-2.3,2.7
	l-2.7,3.8l4.7,0c4.1,0,8.4,0,12.4,0c4.1,0,8.3,0,12.5,0c4.2,0,8.4,0,12.5,0c4.1,0,8.3,0,12.4,0l4.7,0l-2.7-3.8
	c-0.5-0.8-1.3-1.6-2.3-2.7c-5.5-6.3-18.2-21.1-18.7-49.5c3.5,1.2,6.5,3.5,8.6,6.6c3.3,4.8,7.6,8.9,12.9,11.9
	c20,11.6,46.2,3.7,58.5-17.5C436.6,669.7,430.3,643.1,410.3,631.6z"/>
<path d="M813.2,631.6c-13.4-7.7-29.5-6.8-42.3,1c-3.1,1.9-7.1,1.7-10-0.5c0,0,0,0-0.1-0.1c-0.8-0.6-0.7-1.9,0.2-2.4
	c14.7-6.8,24.8-21.1,24.8-37.6c0-23.1-19.9-41.9-44.4-41.9c-24.5,0-44.4,18.7-44.4,41.9c0,16.5,10.1,30.7,24.7,37.6
	c1,0.5,1.1,1.8,0.2,2.4c-0.2,0.1-0.4,0.3-0.6,0.4c-2.9,1.8-6.6,1.8-9.5,0c-12.8-7.7-28.8-8.5-42.1-0.9c-20,11.6-26.3,38.1-14.1,59.4
	c12.3,21.2,38.4,29,58.5,17.5c5.4-3.1,9.7-7.3,13-12.1c2.1-3.1,5.1-5.3,8.5-6.5c-0.5,28.4-13.2,43.2-18.7,49.5c-1,1.1-1.7,2-2.3,2.7
	l-2.7,3.8l4.7,0c4.1,0,8.4,0,12.4,0c4.1,0,8.3,0,12.5,0c4.2,0,8.4,0,12.5,0c4.1,0,8.3,0,12.4,0l4.7,0l-2.7-3.8
	c-0.5-0.8-1.3-1.6-2.3-2.7c-5.5-6.3-18.2-21.1-18.7-49.5c3.5,1.2,6.5,3.5,8.6,6.6c3.3,4.8,7.6,8.9,12.9,11.9
	c20,11.6,46.2,3.7,58.5-17.5C839.5,669.7,833.2,643.1,813.2,631.6z"/>
<path d="M813.2,302.8c-13.4-7.7-29.5-6.8-42.3,1c-3.1,1.9-7.1,1.7-10-0.5c0,0,0,0-0.1-0.1c-0.8-0.6-0.7-1.9,0.2-2.4
	c14.7-6.8,24.8-21.1,24.8-37.6c0-23.1-19.9-41.9-44.4-41.9c-24.5,0-44.4,18.7-44.4,41.9c0,16.5,10.1,30.7,24.7,37.6
	c1,0.5,1.1,1.8,0.2,2.4c-0.2,0.1-0.4,0.3-0.6,0.4c-2.9,1.8-6.6,1.8-9.5,0c-12.8-7.7-28.8-8.5-42.1-0.9c-20,11.6-26.3,38.1-14.1,59.4
	c12.3,21.2,38.4,29,58.5,17.5c5.4-3.1,9.7-7.3,13-12.1c2.1-3.1,5.1-5.3,8.5-6.5c-0.5,28.4-13.2,43.2-18.7,49.5c-1,1.1-1.7,2-2.3,2.7
	l-2.7,3.8l4.7,0c4.1,0,8.4,0,12.4,0c4.1,0,8.3,0,12.5,0c4.2,0,8.4,0,12.5,0c4.1,0,8.3,0,12.4,0l4.7,0l-2.7-3.8
	c-0.5-0.8-1.3-1.6-2.3-2.7c-5.5-6.3-18.2-21.1-18.7-49.5c3.5,1.2,6.5,3.5,8.6,6.6c3.3,4.8,7.6,8.9,12.9,11.9
	c20,11.6,46.2,3.7,58.5-17.5C839.5,341,833.2,314.4,813.2,302.8z"/>
<path d="M611.8,467.2c-13.4-7.7-29.5-6.8-42.3,1c-3.1,1.9-7.1,1.7-10-0.5c0,0,0,0-0.1-0.1c-0.8-0.6-0.7-1.9,0.2-2.4
	c14.7-6.8,24.8-21.1,24.8-37.6c0-23.1-19.9-41.9-44.4-41.9c-24.5,0-44.4,18.7-44.4,41.9c0,16.5,10.1,30.7,24.7,37.6
	c1,0.5,1.1,1.8,0.2,2.4c-0.2,0.1-0.4,0.3-0.6,0.4c-2.9,1.8-6.6,1.8-9.5,0c-12.8-7.7-28.8-8.5-42.1-0.9c-20,11.6-26.3,38.1-14.1,59.4
	c12.3,21.2,38.4,29,58.5,17.5c5.4-3.1,9.7-7.3,13-12.1c2.1-3.1,5.1-5.3,8.5-6.5c-0.5,28.4-13.2,43.2-18.7,49.5c-1,1.1-1.7,2-2.3,2.7
	l-2.7,3.8l4.7,0c4.1,0,8.4,0,12.4,0c4.1,0,8.3,0,12.5,0c4.2,0,8.4,0,12.5,0c4.1,0,8.3,0,12.4,0l4.7,0l-2.7-3.8
	c-0.5-0.8-1.3-1.6-2.3-2.7c-5.5-6.3-18.2-21.1-18.7-49.5c3.5,1.2,6.5,3.5,8.6,6.6c3.3,4.8,7.6,8.9,12.9,11.9
	c20,11.6,46.2,3.7,58.5-17.5C638.1,505.3,631.8,478.8,611.8,467.2z"/>
<path d="M410.3,993.2c-13.4,7.7-29.5,6.8-42.3-1c-3.1-1.9-7.1-1.7-10,0.5c0,0,0,0-0.1,0.1c-0.8,0.6-0.7,1.9,0.2,2.4
	c14.7,6.8,24.8,21.1,24.8,37.6c0,23.1-19.9,41.9-44.4,41.9s-44.4-18.7-44.4-41.9c0-16.5,10.1-30.7,24.7-37.6c1-0.5,1.1-1.8,0.2-2.4
	c-0.2-0.1-0.4-0.3-0.6-0.4c-2.9-1.8-6.6-1.8-9.5,0c-12.8,7.7-28.8,8.5-42.1,0.9c-20-11.6-26.3-38.1-14.1-59.4
	c12.3-21.2,38.4-29,58.5-17.5c5.4,3.1,9.7,7.3,13,12.1c2.1,3.1,5.1,5.3,8.5,6.5c-0.5-28.4-13.2-43.2-18.7-49.5c-1-1.1-1.7-2-2.3-2.7
	l-2.7-3.8l4.7,0c4.1,0,8.4,0,12.4,0c4.1,0,8.3,0,12.5,0c4.2,0,8.4,0,12.5,0c4.1,0,8.3,0,12.4,0l4.7,0l-2.7,3.8
	c-0.5,0.8-1.3,1.6-2.3,2.7c-5.5,6.3-18.2,21.1-18.7,49.5c3.5-1.2,6.5-3.5,8.6-6.6c3.3-4.8,7.6-8.9,12.9-11.9
	c20-11.6,46.2-3.7,58.5,17.5C436.6,955,430.3,981.6,410.3,993.2z"/>
<path d="M813.2,993.2c-13.4,7.7-29.5,6.8-42.3-1c-3.1-1.9-7.1-1.7-10,0.5c0,0,0,0-0.1,0.1c-0.8,0.6-0.7,1.9,0.2,2.4
	c14.7,6.8,24.8,21.1,24.8,37.6c0,23.1-19.9,41.9-44.4,41.9c-24.5,0-44.4-18.7-44.4-41.9c0-16.5,10.1-30.7,24.7-37.6
	c1-0.5,1.1-1.8,0.2-2.4c-0.2-0.1-0.4-0.3-0.6-0.4c-2.9-1.8-6.6-1.8-9.5,0c-12.8,7.7-28.8,8.5-42.1,0.9c-20-11.6-26.3-38.1-14.1-59.4
	c12.3-21.2,38.4-29,58.5-17.5c5.4,3.1,9.7,7.3,13,12.1c2.1,3.1,5.1,5.3,8.5,6.5c-0.5-28.4-13.2-43.2-18.7-49.5c-1-1.1-1.7-2-2.3-2.7
	l-2.7-3.8l4.7,0c4.1,0,8.4,0,12.4,0c4.1,0,8.3,0,12.5,0c4.2,0,8.4,0,12.5,0c4.1,0,8.3,0,12.4,0l4.7,0l-2.7,3.8
	c-0.5,0.8-1.3,1.6-2.3,2.7c-5.5,6.3-18.2,21.1-18.7,49.5c3.5-1.2,6.5-3.5,8.6-6.6c3.3-4.8,7.6-8.9,12.9-11.9
	c20-11.6,46.2-3.7,58.5,17.5C839.5,955,833.2,981.6,813.2,993.2z"/>
<path d="M611.8,828.8c-13.4,7.7-29.5,6.8-42.3-1c-3.1-1.9-7.1-1.7-10,0.5c0,0,0,0-0.1,0.1c-0.8,0.6-0.7,1.9,0.2,2.4
	c14.7,6.8,24.8,21.1,24.8,37.6c0,23.1-19.9,41.9-44.4,41.9c-24.5,0-44.4-18.7-44.4-41.9c0-16.5,10.1-30.7,24.7-37.6
	c1-0.5,1.1-1.8,0.2-2.4c-0.2-0.1-0.4-0.3-0.6-0.4c-2.9-1.8-6.6-1.8-9.5,0c-12.8,7.7-28.8,8.5-42.1,0.9c-20-11.6-26.3-38.1-14.1-59.4
	s38.4-29,58.5-17.5c5.4,3.1,9.7,7.3,13,12.1c2.1,3.1,5.1,5.3,8.5,6.5c-0.5-28.4-13.2-43.2-18.7-49.5c-1-1.1-1.7-2-2.3-2.7l-2.7-3.8
	l4.7,0c4.1,0,8.4,0,12.4,0c4.1,0,8.3,0,12.5,0c4.2,0,8.4,0,12.5,0c4.1,0,8.3,0,12.4,0l4.7,0l-2.7,3.8c-0.5,0.8-1.3,1.6-2.3,2.7
	c-5.5,6.3-18.2,21.1-18.7,49.5c3.5-1.2,6.5-3.5,8.6-6.6c3.3-4.8,7.6-8.9,12.9-11.9c20-11.6,46.2-3.7,58.5,17.5
	S631.8,817.2,611.8,828.8z"/>
<path d="M145.8,251.5c-7.4-4.3-16.3-3.8-23.4,0.5c-1.7,1-3.9,0.9-5.5-0.3c0,0,0,0,0,0c-0.5-0.3-0.4-1.1,0.1-1.3
	c8.1-3.8,13.7-11.6,13.7-20.7c0-12.8-11-23.1-24.5-23.1s-24.5,10.3-24.5,23.1c0,9.1,5.6,17,13.7,20.7c0.5,0.3,0.6,1,0.1,1.3
	c-0.1,0.1-0.2,0.1-0.3,0.2c-1.6,1-3.6,1-5.3,0c-7.1-4.2-15.9-4.7-23.3-0.5c-11.1,6.4-14.5,21-7.8,32.8s21.2,16,32.3,9.6
	c3-1.7,5.4-4,7.2-6.7c1.2-1.7,2.8-2.9,4.7-3.6c-0.3,15.7-7.3,23.8-10.3,27.3c-0.5,0.6-0.9,1.1-1.2,1.5l-1.5,2.1l2.6,0
	c2.3,0,4.6,0,6.9,0c2.3,0,4.6,0,6.9,0c2.3,0,4.6,0,6.9,0c2.2,0,4.6,0,6.9,0l2.6,0l-1.5-2.1c-0.3-0.4-0.7-0.9-1.2-1.5
	c-3-3.5-10.1-11.6-10.3-27.3c1.9,0.7,3.6,2,4.8,3.7c1.8,2.6,4.2,4.9,7.1,6.6c11.1,6.4,25.5,2.1,32.3-9.6S156.8,257.8,145.8,251.5z"
	/>
<path d="M934.2,1044.5c7.4,4.3,16.3,3.8,23.4-0.5c1.7-1,3.9-0.9,5.5,0.3c0,0,0,0,0,0c0.5,0.3,0.4,1.1-0.1,1.3
	c-8.1,3.8-13.7,11.6-13.7,20.7c0,12.8,11,23.1,24.5,23.1c13.5,0,24.5-10.3,24.5-23.1c0-9.1-5.6-17-13.7-20.7c-0.5-0.3-0.6-1-0.1-1.3
	c0.1-0.1,0.2-0.1,0.3-0.2c1.6-1,3.6-1,5.3,0c7.1,4.2,15.9,4.7,23.3,0.5c11.1-6.4,14.5-21,7.8-32.8c-6.8-11.7-21.2-16-32.3-9.6
	c-3,1.7-5.4,4-7.2,6.7c-1.2,1.7-2.8,2.9-4.7,3.6c0.3-15.7,7.3-23.8,10.3-27.3c0.5-0.6,0.9-1.1,1.2-1.5l1.5-2.1l-2.6,0
	c-2.3,0-4.6,0-6.9,0c-2.3,0-4.6,0-6.9,0c-2.3,0-4.6,0-6.9,0c-2.2,0-4.6,0-6.9,0l-2.6,0l1.5,2.1c0.3,0.4,0.7,0.9,1.2,1.5
	c3,3.5,10.1,11.6,10.3,27.3c-1.9-0.7-3.6-2-4.8-3.7c-1.8-2.6-4.2-4.9-7.1-6.6c-11.1-6.4-25.5-2.1-32.3,9.6
	C919.7,1023.5,923.2,1038.2,934.2,1044.5z"/>
<path fill="#11100D" d="M1017.6,1158.7c0,7.4-2,14-5.9,19.8c-3.9,5.8-9.2,10.3-15.9,13.6c7.8,3.3,13.9,8.2,18.4,14.6
	c4.5,6.4,6.8,13.7,6.8,21.8c0,12.9-4.3,23.1-13,30.7c-8.7,7.6-20.1,11.4-34.3,11.4c-14.3,0-25.8-3.8-34.4-11.5
	c-8.6-7.7-12.9-17.9-12.9-30.7c0-8,2.2-15.3,6.6-21.8c4.4-6.5,10.5-11.4,18.2-14.7c-6.6-3.3-11.8-7.8-15.6-13.6
	c-3.8-5.8-5.7-12.4-5.7-19.7c0-12.5,4-22.5,12.1-29.8c8-7.4,18.6-11,31.8-11c13.1,0,23.6,3.7,31.7,11
	C1013.6,1136.3,1017.6,1146.2,1017.6,1158.7z M1002.2,1228.1c0-8.3-2.6-15.1-7.9-20.3c-5.3-5.2-12.2-7.9-20.7-7.9
	c-8.5,0-15.3,2.6-20.5,7.8c-5.1,5.2-7.7,12-7.7,20.4c0,8.4,2.5,15.1,7.5,19.9c5,4.8,12,7.3,20.9,7.3c8.9,0,15.8-2.4,20.8-7.3
	C999.7,1243.1,1002.2,1236.4,1002.2,1228.1z M973.8,1133.4c-7.4,0-13.4,2.3-18,6.9c-4.6,4.6-6.9,10.8-6.9,18.7
	c0,7.6,2.3,13.7,6.8,18.3c4.5,4.7,10.6,7,18.1,7c7.6,0,13.6-2.3,18.1-7c4.5-4.7,6.8-10.8,6.8-18.3s-2.3-13.7-7-18.5
	C987,1135.8,981.1,1133.4,973.8,1133.4z"/>
<path fill="#11100D" d="M150,66.2c0,7.4-2,14-5.9,19.8c-3.9,5.8-9.2,10.3-15.9,13.6c7.8,3.3,13.9,8.2,18.4,14.6
	c4.5,6.4,6.8,13.7,6.8,21.8c0,12.9-4.3,23.1-13,30.7c-8.7,7.6-20.1,11.4-34.3,11.4c-14.3,0-25.8-3.8-34.4-11.5
	c-8.6-7.7-12.9-17.9-12.9-30.7c0-8,2.2-15.3,6.6-21.8c4.4-6.5,10.5-11.4,18.2-14.7c-6.6-3.3-11.8-7.8-15.6-13.6
	c-3.8-5.8-5.7-12.4-5.7-19.7c0-12.5,4-22.5,12.1-29.8c8-7.4,18.6-11,31.8-11c13.1,0,23.6,3.7,31.7,11C145.9,43.7,150,53.7,150,66.2z
	 M134.6,135.5c0-8.3-2.6-15.1-7.9-20.3c-5.3-5.2-12.2-7.9-20.7-7.9c-8.5,0-15.3,2.6-20.5,7.8c-5.1,5.2-7.7,12-7.7,20.4
	c0,8.4,2.5,15.1,7.5,19.9c5,4.8,12,7.3,20.9,7.3c8.9,0,15.8-2.4,20.8-7.3C132,150.5,134.6,143.9,134.6,135.5z M106.2,40.9
	c-7.4,0-13.4,2.3-18,6.9c-4.6,4.6-6.9,10.8-6.9,18.7c0,7.6,2.3,13.7,6.8,18.3c4.5,4.7,10.6,7,18.1,7c7.6,0,13.6-2.3,18.1-7
	c4.5-4.7,6.8-10.8,6.8-18.3s-2.3-13.7-7-18.5C119.3,43.2,113.4,40.9,106.2,40.9z"/>
</svg>
