<?xml version="1.0" encoding="utf-8"?>
<!-- Generator: Adobe Illustrator 18.1.0, SVG Export Plug-In . SVG Version: 6.00 Build 0)  -->
<svg version="1.1" id="Layer_10" xmlns="http://www.w3.org/2000/svg" xmlns:xlink="http://www.w3.org/1999/xlink" x="0px" y="0px"
	 viewBox="0 0 1080 1296" enable-background="new 0 0 1080 1296" xml:space="preserve">
<path d="M145.8,251.5c-7.4-4.3-16.3-3.8-23.4,0.5c-1.7,1-3.9,0.9-5.5-0.3c0,0,0,0,0,0c-0.5-0.3-0.4-1.1,0.1-1.3
	c8.1-3.8,13.7-11.6,13.7-20.7c0-12.8-11-23.1-24.5-23.1s-24.5,10.3-24.5,23.1c0,9.1,5.6,17,13.7,20.7c0.5,0.3,0.6,1,0.1,1.3
	c-0.1,0.1-0.2,0.1-0.3,0.2c-1.6,1-3.6,1-5.3,0c-7.1-4.2-15.9-4.7-23.3-0.5c-11.1,6.4-14.5,21-7.8,32.8s21.2,16,32.3,9.6
	c3-1.7,5.4-4,7.2-6.7c1.2-1.7,2.8-2.9,4.7-3.6c-0.3,15.7-7.3,23.8-10.3,27.3c-0.5,0.6-0.9,1.1-1.2,1.5l-1.5,2.1l2.6,0
	c2.3,0,4.6,0,6.9,0c2.3,0,4.6,0,6.9,0c2.3,0,4.6,0,6.9,0c2.2,0,4.6,0,6.9,0l2.6,0l-1.5-2.1c-0.3-0.4-0.7-0.9-1.2-1.5
	c-3-3.5-10.1-11.6-10.3-27.3c1.9,0.7,3.6,2,4.8,3.7c1.8,2.6,4.2,4.9,7.1,6.6c11.1,6.4,25.5,2.1,32.3-9.6S156.8,257.8,145.8,251.5z"
	/>
<path d="M934.2,1044.5c7.4,4.3,16.3,3.8,23.4-0.5c1.7-1,3.9-0.9,5.5,0.3c0,0,0,0,0,0c0.5,0.3,0.4,1.1-0.1,1.3
	c-8.1,3.8-13.7,11.6-13.7,20.7c0,12.8,11,23.1,24.5,23.1c13.5,0,24.5-10.3,24.5-23.1c0-9.1-5.6-17-13.7-20.7c-0.5-0.3-0.6-1-0.1-1.3
	c0.1-0.1,0.2-0.1,0.3-0.2c1.6-1,3.6-1,5.3,0c7.1,4.2,15.9,4.7,23.3,0.5c11.1-6.4,14.5-21,7.8-32.8c-6.8-11.7-21.2-16-32.3-9.6
	c-3,1.7-5.4,4-7.2,6.7c-1.2,1.7-2.8,2.9-4.7,3.6c0.3-15.7,7.3-23.8,10.3-27.3c0.5-0.6,0.9-1.1,1.2-1.5l1.5-2.1l-2.6,0
	c-2.3,0-4.6,0-6.9,0c-2.3,0-4.6,0-6.9,0c-2.3,0-4.6,0-6.9,0c-2.2,0-4.6,0-6.9,0l-2.6,0l1.5,2.1c0.3,0.4,0.7,0.9,1.2,1.5
	c3,3.5,10.1,11.6,10.3,27.3c-1.9-0.7-3.6-2-4.8-3.7c-1.8-2.6-4.2-4.9-7.1-6.6c-11.1-6.4-25.5-2.1-32.3,9.6
	C919.7,1023.5,923.2,1038.2,934.2,1044.5z"/>
<path d="M410.3,302.8c-13.4-7.7-29.5-6.8-42.3,1c-3.1,1.9-7.1,1.7-10-0.5c0,0,0,0-0.1-0.1c-0.8-0.6-0.7-1.9,0.2-2.4
	c14.7-6.8,24.8-21.1,24.8-37.6c0-23.1-19.9-41.9-44.4-41.9c-24.5,0-44.4,18.7-44.4,41.9c0,16.5,10.1,30.7,24.7,37.6
	c1,0.5,1.1,1.8,0.2,2.4c-0.2,0.1-0.4,0.3-0.6,0.4c-2.9,1.8-6.6,1.8-9.5,0c-12.8-7.7-28.8-8.5-42.1-0.9c-20,11.6-26.3,38.1-14.1,59.4
	c12.3,21.2,38.4,29,58.5,17.5c5.4-3.1,9.7-7.3,13-12.1c2.1-3.1,5.1-5.3,8.5-6.5c-0.5,28.4-13.2,43.2-18.7,49.5c-1,1.1-1.7,2-2.3,2.7
	l-2.7,3.8l4.7,0c4.1,0,8.4,0,12.4,0c4.1,0,8.3,0,12.5,0c4.2,0,8.4,0,12.5,0c4.1,0,8.3,0,12.4,0l4.7,0l-2.7-3.8
	c-0.5-0.8-1.3-1.6-2.3-2.7c-5.5-6.3-18.2-21.1-18.7-49.5c3.5,1.2,6.5,3.5,8.6,6.6c3.3,4.8,7.6,8.9,12.9,11.9
	c20,11.6,46.2,3.7,58.5-17.5C436.6,341,430.3,314.4,410.3,302.8z"/>
<path d="M410.3,525.4c-13.4-7.7-29.5-6.8-42.3,1c-3.1,1.9-7.1,1.7-10-0.5c0,0,0,0-0.1-0.1c-0.8-0.6-0.7-1.9,0.2-2.4
	c14.7-6.8,24.8-21.1,24.8-37.6c0-23.1-19.9-41.9-44.4-41.9c-24.5,0-44.4,18.7-44.4,41.9c0,16.5,10.1,30.7,24.7,37.6
	c1,0.5,1.1,1.8,0.2,2.4c-0.2,0.1-0.4,0.3-0.6,0.4c-2.9,1.8-6.6,1.8-9.5,0c-12.8-7.7-28.8-8.5-42.1-0.9c-20,11.6-26.3,38.1-14.1,59.4
	c12.3,21.2,38.4,29,58.5,17.5c5.4-3.1,9.7-7.3,13-12.1c2.1-3.1,5.1-5.3,8.5-6.5c-0.5,28.4-13.2,43.2-18.7,49.5c-1,1.1-1.7,2-2.3,2.7
	l-2.7,3.8l4.7,0c4.1,0,8.4,0,12.4,0c4.1,0,8.3,0,12.5,0c4.2,0,8.4,0,12.5,0c4.1,0,8.3,0,12.4,0l4.7,0l-2.7-3.8
	c-0.5-0.8-1.3-1.6-2.3-2.7c-5.5-6.3-18.2-21.1-18.7-49.5c3.5,1.2,6.5,3.5,8.6,6.6c3.3,4.8,7.6,8.9,12.9,11.9
	c20,11.6,46.2,3.7,58.5-17.5C436.6,563.6,430.3,537,410.3,525.4z"/>
<path d="M813.2,525.4c-13.4-7.7-29.5-6.8-42.3,1c-3.1,1.9-7.1,1.7-10-0.5c0,0,0,0-0.1-0.1c-0.8-0.6-0.7-1.9,0.2-2.4
	c14.7-6.8,24.8-21.1,24.8-37.6c0-23.1-19.9-41.9-44.4-41.9c-24.5,0-44.4,18.7-44.4,41.9c0,16.5,10.1,30.7,24.7,37.6
	c1,0.5,1.1,1.8,0.2,2.4c-0.2,0.1-0.4,0.3-0.6,0.4c-2.9,1.8-6.6,1.8-9.5,0c-12.8-7.7-28.8-8.5-42.1-0.9c-20,11.6-26.3,38.1-14.1,59.4
	c12.3,21.2,38.4,29,58.5,17.5c5.4-3.1,9.7-7.3,13-12.1c2.1-3.1,5.1-5.3,8.5-6.5c-0.5,28.4-13.2,43.2-18.7,49.5c-1,1.1-1.7,2-2.3,2.7
	l-2.7,3.8l4.7,0c4.1,0,8.4,0,12.4,0c4.1,0,8.3,0,12.5,0c4.2,0,8.4,0,12.5,0c4.1,0,8.3,0,12.4,0l4.7,0l-2.7-3.8
	c-0.5-0.8-1.3-1.6-2.3-2.7c-5.5-6.3-18.2-21.1-18.7-49.5c3.5,1.2,6.5,3.5,8.6,6.6c3.3,4.8,7.6,8.9,12.9,11.9
	c20,11.6,46.2,3.7,58.5-17.5C839.5,563.6,833.2,537,813.2,525.4z"/>
<path d="M813.2,302.8c-13.4-7.7-29.5-6.8-42.3,1c-3.1,1.9-7.1,1.7-10-0.5c0,0,0,0-0.1-0.1c-0.8-0.6-0.7-1.9,0.2-2.4
	c14.7-6.8,24.8-21.1,24.8-37.6c0-23.1-19.9-41.9-44.4-41.9c-24.5,0-44.4,18.7-44.4,41.9c0,16.5,10.1,30.7,24.7,37.6
	c1,0.5,1.1,1.8,0.2,2.4c-0.2,0.1-0.4,0.3-0.6,0.4c-2.9,1.8-6.6,1.8-9.5,0c-12.8-7.7-28.8-8.5-42.1-0.9c-20,11.6-26.3,38.1-14.1,59.4
	c12.3,21.2,38.4,29,58.5,17.5c5.4-3.1,9.7-7.3,13-12.1c2.1-3.1,5.1-5.3,8.5-6.5c-0.5,28.4-13.2,43.2-18.7,49.5c-1,1.1-1.7,2-2.3,2.7
	l-2.7,3.8l4.7,0c4.1,0,8.4,0,12.4,0c4.1,0,8.3,0,12.5,0c4.2,0,8.4,0,12.5,0c4.1,0,8.3,0,12.4,0l4.7,0l-2.7-3.8
	c-0.5-0.8-1.3-1.6-2.3-2.7c-5.5-6.3-18.2-21.1-18.7-49.5c3.5,1.2,6.5,3.5,8.6,6.6c3.3,4.8,7.6,8.9,12.9,11.9
	c20,11.6,46.2,3.7,58.5-17.5C839.5,341,833.2,314.4,813.2,302.8z"/>
<path d="M611.8,631.6c-13.4-7.7-29.5-6.8-42.3,1c-3.1,1.9-7.1,1.7-10-0.5c0,0,0,0-0.1-0.1c-0.8-0.6-0.7-1.9,0.2-2.4
	c14.7-6.8,24.8-21.1,24.8-37.6c0-23.1-19.9-41.9-44.4-41.9c-24.5,0-44.4,18.7-44.4,41.9c0,16.5,10.1,30.7,24.7,37.6
	c1,0.5,1.1,1.8,0.2,2.4c-0.2,0.1-0.4,0.3-0.6,0.4c-2.9,1.8-6.6,1.8-9.5,0c-12.8-7.7-28.8-8.5-42.1-0.9c-20,11.6-26.3,38.1-14.1,59.4
	c12.3,21.2,38.4,29,58.5,17.5c5.4-3.1,9.7-7.3,13-12.1c2.1-3.1,5.1-5.3,8.5-6.5c-0.5,28.4-13.2,43.2-18.7,49.5c-1,1.1-1.7,2-2.3,2.7
	l-2.7,3.8l4.7,0c4.1,0,8.4,0,12.4,0c4.1,0,8.3,0,12.5,0c4.2,0,8.4,0,12.5,0c4.1,0,8.3,0,12.4,0l4.7,0l-2.7-3.8
	c-0.5-0.8-1.3-1.6-2.3-2.7c-5.5-6.3-18.2-21.1-18.7-49.5c3.5,1.2,6.5,3.5,8.6,6.6c3.3,4.8,7.6,8.9,12.9,11.9
	c20,11.6,46.2,3.7,58.5-17.5C638.1,669.7,631.8,643.1,611.8,631.6z"/>
<path d="M410.3,993.2c-13.4,7.7-29.5,6.8-42.3-1c-3.1-1.9-7.1-1.7-10,0.5c0,0,0,0-0.1,0.1c-0.8,0.6-0.7,1.9,0.2,2.4
	c14.7,6.8,24.8,21.1,24.8,37.6c0,23.1-19.9,41.9-44.4,41.9s-44.4-18.7-44.4-41.9c0-16.5,10.1-30.7,24.7-37.6c1-0.5,1.1-1.8,0.2-2.4
	c-0.2-0.1-0.4-0.3-0.6-0.4c-2.9-1.8-6.6-1.8-9.5,0c-12.8,7.7-28.8,8.5-42.1,0.9c-20-11.6-26.3-38.1-14.1-59.4
	c12.3-21.2,38.4-29,58.5-17.5c5.4,3.1,9.7,7.3,13,12.1c2.1,3.1,5.1,5.3,8.5,6.5c-0.5-28.4-13.2-43.2-18.7-49.5c-1-1.1-1.7-2-2.3-2.7
	l-2.7-3.8l4.7,0c4.1,0,8.4,0,12.4,0c4.1,0,8.3,0,12.5,0c4.2,0,8.4,0,12.5,0c4.1,0,8.3,0,12.4,0l4.7,0l-2.7,3.8
	c-0.5,0.8-1.3,1.6-2.3,2.7c-5.5,6.3-18.2,21.1-18.7,49.5c3.5-1.2,6.5-3.5,8.6-6.6c3.3-4.8,7.6-8.9,12.9-11.9
	c20-11.6,46.2-3.7,58.5,17.5C436.6,955,430.3,981.6,410.3,993.2z"/>
<path d="M410.3,770.6c-13.4,7.7-29.5,6.8-42.3-1c-3.1-1.9-7.1-1.7-10,0.5c0,0,0,0-0.1,0.1c-0.8,0.6-0.7,1.9,0.2,2.4
	c14.7,6.8,24.8,21.1,24.8,37.6c0,23.1-19.9,41.9-44.4,41.9s-44.4-18.7-44.4-41.9c0-16.5,10.1-30.7,24.7-37.6c1-0.5,1.1-1.8,0.2-2.4
	c-0.2-0.1-0.4-0.3-0.6-0.4c-2.9-1.8-6.6-1.8-9.5,0c-12.8,7.7-28.8,8.5-42.1,0.9c-20-11.6-26.3-38.1-14.1-59.4
	c12.3-21.2,38.4-29,58.5-17.5c5.4,3.1,9.7,7.3,13,12.1c2.1,3.1,5.1,5.3,8.5,6.5c-0.5-28.4-13.2-43.2-18.7-49.5c-1-1.1-1.7-2-2.3-2.7
	l-2.7-3.8l4.7,0c4.1,0,8.4,0,12.4,0c4.1,0,8.3,0,12.5,0c4.2,0,8.4,0,12.5,0c4.1,0,8.3,0,12.4,0l4.7,0l-2.7,3.8
	c-0.5,0.8-1.3,1.6-2.3,2.7c-5.5,6.3-18.2,21.1-18.7,49.5c3.5-1.2,6.5-3.5,8.6-6.6c3.3-4.8,7.6-8.9,12.9-11.9
	c20-11.6,46.2-3.7,58.5,17.5C436.6,732.4,430.3,759,410.3,770.6z"/>
<path d="M813.2,770.6c-13.4,7.7-29.5,6.8-42.3-1c-3.1-1.9-7.1-1.7-10,0.5c0,0,0,0-0.1,0.1c-0.8,0.6-0.7,1.9,0.2,2.4
	c14.7,6.8,24.8,21.1,24.8,37.6c0,23.1-19.9,41.9-44.4,41.9c-24.5,0-44.4-18.7-44.4-41.9c0-16.5,10.1-30.7,24.7-37.6
	c1-0.5,1.1-1.8,0.2-2.4c-0.2-0.1-0.4-0.3-0.6-0.4c-2.9-1.8-6.6-1.8-9.5,0c-12.8,7.7-28.8,8.5-42.1,0.9c-20-11.6-26.3-38.1-14.1-59.4
	c12.3-21.2,38.4-29,58.5-17.5c5.4,3.1,9.7,7.3,13,12.1c2.1,3.1,5.1,5.3,8.5,6.5c-0.5-28.4-13.2-43.2-18.7-49.5c-1-1.1-1.7-2-2.3-2.7
	l-2.7-3.8l4.7,0c4.1,0,8.4,0,12.4,0c4.1,0,8.3,0,12.5,0c4.2,0,8.4,0,12.5,0c4.1,0,8.3,0,12.4,0l4.7,0l-2.7,3.8
	c-0.5,0.8-1.3,1.6-2.3,2.7c-5.5,6.3-18.2,21.1-18.7,49.5c3.5-1.2,6.5-3.5,8.6-6.6c3.3-4.8,7.6-8.9,12.9-11.9
	c20-11.6,46.2-3.7,58.5,17.5C839.5,732.4,833.2,759,813.2,770.6z"/>
<path d="M813.2,993.2c-13.4,7.7-29.5,6.8-42.3-1c-3.1-1.9-7.1-1.7-10,0.5c0,0,0,0-0.1,0.1c-0.8,0.6-0.7,1.9,0.2,2.4
	c14.7,6.8,24.8,21.1,24.8,37.6c0,23.1-19.9,41.9-44.4,41.9c-24.5,0-44.4-18.7-44.4-41.9c0-16.5,10.1-30.7,24.7-37.6
	c1-0.5,1.1-1.8,0.2-2.4c-0.2-0.1-0.4-0.3-0.6-0.4c-2.9-1.8-6.6-1.8-9.5,0c-12.8,7.7-28.8,8.5-42.1,0.9c-20-11.6-26.3-38.1-14.1-59.4
	c12.3-21.2,38.4-29,58.5-17.5c5.4,3.1,9.7,7.3,13,12.1c2.1,3.1,5.1,5.3,8.5,6.5c-0.5-28.4-13.2-43.2-18.7-49.5c-1-1.1-1.7-2-2.3-2.7
	l-2.7-3.8l4.7,0c4.1,0,8.4,0,12.4,0c4.1,0,8.3,0,12.5,0c4.2,0,8.4,0,12.5,0c4.1,0,8.3,0,12.4,0l4.7,0l-2.7,3.8
	c-0.5,0.8-1.3,1.6-2.3,2.7c-5.5,6.3-18.2,21.1-18.7,49.5c3.5-1.2,6.5-3.5,8.6-6.6c3.3-4.8,7.6-8.9,12.9-11.9
	c20-11.6,46.2-3.7,58.5,17.5C839.5,955,833.2,981.6,813.2,993.2z"/>
<path fill="#11100D" d="M134,110.8c-4,4.7-8.7,8.5-14.2,11.4c-5.5,2.9-11.5,4.3-18.1,4.3c-8.6,0-16.1-2.1-22.4-6.3
	c-6.4-4.2-11.3-10.2-14.8-17.8c-3.5-7.7-5.2-16.1-5.2-25.4c0-10,1.9-18.9,5.7-26.9c3.8-8,9.2-14.1,16.1-18.3
	c7-4.2,15.1-6.3,24.3-6.3c14.7,0,26.3,5.5,34.8,16.5c8.5,11,12.7,26,12.7,45.1v5.5c0,29-5.7,50.1-17.2,63.5
	c-11.5,13.3-28.7,20.2-51.9,20.5h-3.7v-16.1h4c15.6-0.3,27.6-4.3,36-12.2S133.2,127.8,134,110.8z M104.8,110.8
	c6.3,0,12.2-1.9,17.5-5.8c5.4-3.9,9.3-8.7,11.7-14.4V83c0-12.4-2.7-22.5-8.1-30.3c-5.4-7.8-12.2-11.7-20.5-11.7
	c-8.3,0-15,3.2-20,9.6c-5,6.4-7.6,14.8-7.6,25.2c0,10.2,2.4,18.5,7.3,25.1C90.1,107.5,96.7,110.8,104.8,110.8z"/>
<path fill="#11100D" d="M946,1185.2c4-4.7,8.7-8.5,14.2-11.4c5.5-2.9,11.5-4.3,18.1-4.3c8.6,0,16.1,2.1,22.4,6.3
	c6.4,4.2,11.3,10.2,14.8,17.8c3.5,7.7,5.2,16.1,5.2,25.4c0,10-1.9,18.9-5.7,26.9c-3.8,8-9.2,14.1-16.1,18.3
	c-7,4.2-15.1,6.3-24.3,6.3c-14.7,0-26.3-5.5-34.8-16.5c-8.5-11-12.7-26-12.7-45.1v-5.5c0-29,5.7-50.1,17.2-63.5
	c11.5-13.3,28.7-20.2,51.9-20.5h3.7v16.1h-4c-15.6,0.3-27.6,4.3-36,12.2S946.8,1168.2,946,1185.2z M975.2,1185.2
	c-6.3,0-12.2,1.9-17.5,5.8c-5.4,3.9-9.3,8.7-11.7,14.4v7.6c0,12.4,2.7,22.5,8.1,30.3c5.4,7.8,12.2,11.7,20.5,11.7
	c8.3,0,15-3.2,20-9.6c5-6.4,7.6-14.8,7.6-25.2c0-10.2-2.4-18.5-7.3-25.1C989.9,1188.5,983.3,1185.2,975.2,1185.2z"/>
</svg>
