<?xml version="1.0" encoding="utf-8"?>
<!-- Generator: Adobe Illustrator 18.1.0, SVG Export Plug-In . SVG Version: 6.00 Build 0)  -->
<svg version="1.1" id="Layer_10" xmlns="http://www.w3.org/2000/svg" xmlns:xlink="http://www.w3.org/1999/xlink" x="0px" y="0px"
	 viewBox="0 0 1080 1296" enable-background="new 0 0 1080 1296" xml:space="preserve">
<path d="M722.2,606.3c-33.9-19.6-74.8-17.3-107.4,2.4c-7.9,4.8-18,4.3-25.4-1.2c-0.1,0-0.1-0.1-0.2-0.1c-2.1-1.6-1.9-4.9,0.6-6
	c37.3-17.3,63-53.6,63-95.4c0-58.7-50.4-106.3-112.6-106.3s-112.6,47.6-112.6,106.3c0,41.8,25.6,78,62.8,95.4
	c2.5,1.2,2.7,4.7,0.4,6.2c-0.5,0.3-1,0.7-1.6,1c-7.4,4.6-16.7,4.5-24.2,0.1c-32.6-19.5-73.2-21.7-107-2.2
	C307,635.7,291,703.1,322.1,757s97.5,73.7,148.4,44.4c13.6-7.8,24.7-18.4,33.1-30.7c5.3-7.8,12.9-13.4,21.5-16.4
	c-1.2,72.2-33.5,109.6-47.5,125.7c-2.4,2.8-4.3,5-5.7,6.9l-7,9.6l11.9-0.1c10.5-0.1,21.2,0,31.5,0c10.4,0,21.1,0.1,31.7,0
	c10.6,0.1,21.3,0,31.7,0c10.3,0,21-0.1,31.5,0l11.9,0.1l-7-9.6c-1.4-1.9-3.3-4.1-5.7-6.9c-14-16.1-46.3-53.5-47.5-125.6
	c8.8,3.1,16.5,9,21.9,16.9c8.3,12.1,19.3,22.5,32.7,30.2c50.9,29.4,117.3,9.5,148.4-44.4C789,703.1,773,635.7,722.2,606.3z"/>
<path d="M142.2,26l-41.4,47.4l42.8,93.6h13.9v15h-45.3v-15h14.9L90,85.8l-5.7,6.6V167h15.2v15H54.1v-15h15.2V26H54.1V11h45.3v15
	H84.3v43.2l0.5-0.2l37.5-43h-10.1V11h45.3v15H142.2z"/>
<path d="M145.8,251.5c-7.4-4.3-16.3-3.8-23.4,0.5c-1.7,1-3.9,0.9-5.5-0.3c0,0,0,0,0,0c-0.5-0.3-0.4-1.1,0.1-1.3
	c8.1-3.8,13.7-11.6,13.7-20.7c0-12.8-11-23.1-24.5-23.1s-24.5,10.3-24.5,23.1c0,9.1,5.6,17,13.7,20.7c0.5,0.3,0.6,1,0.1,1.3
	c-0.1,0.1-0.2,0.1-0.3,0.2c-1.6,1-3.6,1-5.3,0c-7.1-4.2-15.9-4.7-23.3-0.5c-11.1,6.4-14.5,21-7.8,32.8s21.2,16,32.3,9.6
	c3-1.7,5.4-4,7.2-6.7c1.2-1.7,2.8-2.9,4.7-3.6c-0.3,15.7-7.3,23.8-10.3,27.3c-0.5,0.6-0.9,1.1-1.2,1.5l-1.5,2.1l2.6,0
	c2.3,0,4.6,0,6.9,0c2.3,0,4.6,0,6.9,0c2.3,0,4.6,0,6.9,0c2.2,0,4.6,0,6.9,0l2.6,0l-1.5-2.1c-0.3-0.4-0.7-0.9-1.2-1.5
	c-3-3.5-10.1-11.6-10.3-27.3c1.9,0.7,3.6,2,4.8,3.7c1.8,2.6,4.2,4.9,7.1,6.6c11.1,6.4,25.5,2.1,32.3-9.6S156.8,257.8,145.8,251.5z"
	/>
<path d="M937.8,1270l41.4-47.4l-42.8-93.6h-13.9v-15h45.3v15h-14.9l37.1,81.2l5.7-6.6V1129h-15.2v-15h45.3v15h-15.2v141h15.2v15
	h-45.3v-15h15.2v-43.2l-0.5,0.2l-37.5,43h10.1v15h-45.3v-15H937.8z"/>
<path d="M934.2,1044.5c7.4,4.3,16.3,3.8,23.4-0.5c1.7-1,3.9-0.9,5.5,0.3c0,0,0,0,0,0c0.5,0.3,0.4,1.1-0.1,1.3
	c-8.1,3.8-13.7,11.6-13.7,20.7c0,12.8,11,23.1,24.5,23.1c13.5,0,24.5-10.3,24.5-23.1c0-9.1-5.6-17-13.7-20.7c-0.5-0.3-0.6-1-0.1-1.3
	c0.1-0.1,0.2-0.1,0.3-0.2c1.6-1,3.6-1,5.3,0c7.1,4.2,15.9,4.7,23.3,0.5c11.1-6.4,14.5-21,7.8-32.8c-6.8-11.7-21.2-16-32.3-9.6
	c-3,1.7-5.4,4-7.2,6.7c-1.2,1.7-2.8,2.9-4.7,3.6c0.3-15.7,7.3-23.8,10.3-27.3c0.5-0.6,0.9-1.1,1.2-1.5l1.5-2.1l-2.6,0
	c-2.3,0-4.6,0-6.9,0c-2.3,0-4.6,0-6.9,0c-2.3,0-4.6,0-6.9,0c-2.2,0-4.6,0-6.9,0l-2.6,0l1.5,2.1c0.3,0.4,0.7,0.9,1.2,1.5
	c3,3.5,10.1,11.6,10.3,27.3c-1.9-0.7-3.6-2-4.8-3.7c-1.8-2.6-4.2-4.9-7.1-6.6c-11.1-6.4-25.5-2.1-32.3,9.6
	C919.7,1023.5,923.2,1038.2,934.2,1044.5z"/>
</svg>
