<?xml version="1.0" encoding="utf-8"?>
<!-- Generator: Adobe Illustrator 18.1.0, SVG Export Plug-In . SVG Version: 6.00 Build 0)  -->
<svg version="1.1" id="Layer_10" xmlns="http://www.w3.org/2000/svg" xmlns:xlink="http://www.w3.org/1999/xlink" x="0px" y="0px"
	 viewBox="0 0 1080 1296" enable-background="new 0 0 1080 1296" xml:space="preserve">
<path d="M722.2,606.3c-33.9-19.6-74.8-17.3-107.4,2.4c-7.9,4.8-18,4.3-25.4-1.2c-0.1,0-0.1-0.1-0.2-0.1c-2.1-1.6-1.9-4.9,0.6-6
	c37.3-17.3,63-53.6,63-95.4c0-58.7-50.4-106.3-112.6-106.3s-112.6,47.6-112.6,106.3c0,41.8,25.6,78,62.8,95.4
	c2.5,1.2,2.7,4.7,0.4,6.2c-0.5,0.3-1,0.7-1.6,1c-7.4,4.6-16.7,4.5-24.2,0.1c-32.6-19.5-73.2-21.7-107-2.2
	C307,635.7,291,703.1,322.1,757s97.5,73.7,148.4,44.4c13.6-7.8,24.7-18.4,33.1-30.7c5.3-7.8,12.9-13.4,21.5-16.4
	c-1.2,72.2-33.5,109.6-47.5,125.7c-2.4,2.8-4.3,5-5.7,6.9l-7,9.6l11.9-0.1c10.5-0.1,21.2,0,31.5,0c10.4,0,21.1,0.1,31.7,0
	c10.6,0.1,21.3,0,31.7,0c10.3,0,21-0.1,31.5,0l11.9,0.1l-7-9.6c-1.4-1.9-3.3-4.1-5.7-6.9c-14-16.1-46.3-53.5-47.5-125.6
	c8.8,3.1,16.5,9,21.9,16.9c8.3,12.1,19.3,22.5,32.7,30.2c50.9,29.4,117.3,9.5,148.4-44.4C789,703.1,773,635.7,722.2,606.3z"/>
<path fill="#11100D" d="M165.3,184.2c0-1.1,0-3-0.2-5.3c0-1-0.1-2.2-0.2-3.8c-0.1-1.5-0.2-3-0.4-4.5c-0.3-3.2-0.8-6.9-1.6-10.9
	c-0.8-4.6-2-8.9-3.5-13.1c-1.5-4-3.7-9.3-7.5-14.2c-1.8-2.4-3.9-4.6-6.2-6.7c-0.3-0.3-0.6-0.5-0.9-0.8l0-1.4c-0.1-5.6-0.3-12-0.3-19
	c-0.1-10.4,0-19.2,0.1-26.9c0.4-28.7,0.6-41.8-11.1-52.9c-2-1.9-8-7.6-22.8-10.6c-1.8-0.4-3.8-0.6-5.7-0.6
	c-15.7,0-29.5,11.7-29.7,11.8C63.7,36.2,63.8,47.7,64.2,90.2l0,0.5c0,3.5,0.1,7.3,0.1,11.3c0,3.2,0,6.3,0.1,9.2
	c0.1,9,0.1,16.9,0.3,23.5c-0.4,0.4-0.8,0.8-1.2,1.2c-2.5,2.4-4.9,5.1-7.4,8.2c-1.8,2.3-3.5,4.6-5,6.9c-1.4,2.2-2.3,3.7-2.8,4.7
	l-0.1,0.2c-0.3,0.5-0.5,0.8-0.6,1.1l-1.1,2.3l6.3,5l7.2-5.7c1.8-1.4,3.9-3,6.3-4.9c1.5,9.7,4.5,15.9,10.2,22
	c8.8,9.3,19.4,14.4,29.8,14.4c0.7,0,1.3,0,2-0.1c11.8-0.7,19.9-7.8,23-10.5l0.1-0.1c0.2-0.2,0.3-0.3,0.5-0.4
	c7.8-6.3,11-13.8,12.4-23c1,2.7,1.7,5.3,2.3,7.6c0.9,3.5,1.6,6.7,2.1,9.5c0.3,1.3,0.5,2.6,0.7,4c0.2,1.2,0.4,2.4,0.6,3.5
	c0.3,2,0.5,3.5,0.7,4.7l0.6,4.3l14.2-1L165.3,184.2z M129.5,104.7c0,4.5,0.1,8.7,0.2,12.5c-0.1,0-0.3-0.1-0.4-0.1
	c-3-0.8-5.9-1.4-8.8-1.8c-3.1-0.4-5.8-0.6-8.6-0.6l-0.7,0c-0.5,0-1.1,0-1.4,0l-1.9,0c-1.5,0-3,0.2-4.4,0.3l-0.2,0
	c-5.5,0.7-11.1,2.2-16.5,4.7c-2.5,1.1-4.9,2.4-7.3,3.8c0-3.9-0.1-8-0.1-12.4l-0.1-9.2c0-3.9-0.1-7.6-0.1-11.1l0-0.7
	c-0.4-39-0.3-47.5,6.3-53.7c1.6-1.3,11.1-7.9,19.5-7.9c1,0,1.9,0.1,2.8,0.3c10.6,2.1,14.2,5.6,15.4,6.8c6.9,6.6,6.8,17,6.5,41.9
	C129.6,85.2,129.4,94.1,129.5,104.7z M83.2,141.9c3.8-2.3,7.3-4.1,10.8-5.5c3.7-1.6,7.6-2.6,11.4-3c0.3,0,0.5,0,0.8-0.1
	c0.2,0,0.4,0,0.6,0l3.5-0.1c0.3,0,0.5,0,0.8,0c0.2,0,0.4,0,0.7,0c0.9,0,1.8,0.1,2.8,0.1l0.4,0c1.2,0.1,2.2,0.2,3.2,0.3
	c4.4,0.6,8.2,1.6,11.3,3.3c0.2,0.1,0.4,0.2,0.5,0.3c0.1,19.2-1.4,24.9-7.7,30c-0.3,0.2-0.6,0.5-1,0.9c-2.2,1.9-7.3,6.4-14,6.8
	c-0.4,0-0.7,0-1.1,0c-6.3,0-13-3.4-18.9-9.7c-4.5-4.8-6.3-10.1-7.1-21.5C81.2,143.1,82.2,142.5,83.2,141.9z M106.2,187.5
	L106.2,187.5L106.2,187.5L106.2,187.5z"/>
<path d="M145.8,251.5c-7.4-4.3-16.3-3.8-23.4,0.5c-1.7,1-3.9,0.9-5.5-0.3c0,0,0,0,0,0c-0.5-0.3-0.4-1.1,0.1-1.3
	c8.1-3.8,13.7-11.6,13.7-20.7c0-12.8-11-23.1-24.5-23.1s-24.5,10.3-24.5,23.1c0,9.1,5.6,17,13.7,20.7c0.5,0.3,0.6,1,0.1,1.3
	c-0.1,0.1-0.2,0.1-0.3,0.2c-1.6,1-3.6,1-5.3,0c-7.1-4.2-15.9-4.7-23.3-0.5c-11.1,6.4-14.5,21-7.8,32.8s21.2,16,32.3,9.6
	c3-1.7,5.4-4,7.2-6.7c1.2-1.7,2.8-2.9,4.7-3.6c-0.3,15.7-7.3,23.8-10.3,27.3c-0.5,0.6-0.9,1.1-1.2,1.5l-1.5,2.1l2.6,0
	c2.3,0,4.6,0,6.9,0c2.3,0,4.6,0,6.9,0c2.3,0,4.6,0,6.9,0c2.2,0,4.6,0,6.9,0l2.6,0l-1.5-2.1c-0.3-0.4-0.7-0.9-1.2-1.5
	c-3-3.5-10.1-11.6-10.3-27.3c1.9,0.7,3.6,2,4.8,3.7c1.8,2.6,4.2,4.9,7.1,6.6c11.1,6.4,25.5,2.1,32.3-9.6S156.8,257.8,145.8,251.5z"
	/>
<path fill="#11100D" d="M914.4,1111.8c0,1.1,0,3,0.2,5.3c0,1,0.1,2.2,0.2,3.8c0.1,1.5,0.2,3,0.4,4.5c0.3,3.2,0.8,6.9,1.6,10.9
	c0.8,4.6,2,8.9,3.5,13.1c1.5,4,3.7,9.3,7.5,14.2c1.8,2.4,3.9,4.6,6.2,6.7c0.3,0.3,0.6,0.5,0.9,0.8l0,1.4c0.1,5.6,0.3,12,0.3,19
	c0.1,10.4,0,19.2-0.1,26.9c-0.4,28.7-0.6,41.8,11.1,52.9c2,1.9,8,7.6,22.8,10.6c1.8,0.4,3.8,0.6,5.7,0.6c15.7,0,29.5-11.7,29.7-11.8
	c11.7-10.9,11.6-22.4,11.1-64.9l0-0.5c0-3.5-0.1-7.3-0.1-11.3c0-3.2,0-6.3-0.1-9.2c-0.1-9-0.1-16.9-0.3-23.5
	c0.4-0.4,0.8-0.8,1.2-1.2c2.5-2.4,4.9-5.1,7.4-8.2c1.8-2.3,3.5-4.6,5-6.9c1.4-2.2,2.3-3.7,2.8-4.7l0.1-0.2c0.3-0.5,0.5-0.8,0.6-1.1
	l1.1-2.3l-6.3-5l-7.2,5.7c-1.8,1.4-3.9,3-6.3,4.9c-1.5-9.7-4.5-15.9-10.2-22c-8.8-9.3-19.4-14.4-29.8-14.4c-0.7,0-1.3,0-2,0.1
	c-11.8,0.7-19.9,7.8-23,10.5l-0.1,0.1c-0.2,0.2-0.3,0.3-0.5,0.4c-7.8,6.3-11,13.8-12.4,23c-1-2.7-1.7-5.3-2.3-7.6
	c-0.9-3.5-1.6-6.7-2.1-9.5c-0.3-1.3-0.5-2.6-0.7-4c-0.2-1.2-0.4-2.4-0.6-3.5c-0.3-2-0.5-3.5-0.7-4.7l-0.6-4.3l-14.2,1L914.4,1111.8z
	 M950.2,1191.3c0-4.5-0.1-8.7-0.2-12.5c0.1,0,0.3,0.1,0.4,0.1c3,0.8,5.9,1.4,8.8,1.8c3.1,0.4,5.8,0.6,8.6,0.6l0.7,0
	c0.5,0,1.1,0,1.4,0l1.9,0c1.5,0,3-0.2,4.4-0.3l0.2,0c5.5-0.7,11.1-2.2,16.5-4.7c2.5-1.1,4.9-2.4,7.3-3.8c0,3.9,0.1,8,0.1,12.4
	l0.1,9.2c0,3.9,0.1,7.6,0.1,11.1l0,0.7c0.4,39,0.3,47.5-6.3,53.7c-1.6,1.3-11.1,7.9-19.5,7.9c-1,0-1.9-0.1-2.8-0.3
	c-10.6-2.1-14.2-5.6-15.4-6.8c-6.9-6.6-6.8-17-6.5-41.9C950.1,1210.8,950.3,1201.9,950.2,1191.3z M996.5,1154.1
	c-3.8,2.3-7.3,4.1-10.8,5.5c-3.7,1.6-7.6,2.6-11.4,3c-0.3,0-0.5,0-0.8,0.1c-0.2,0-0.4,0-0.6,0l-3.5,0.1c-0.3,0-0.5,0-0.8,0
	c-0.2,0-0.4,0-0.7,0c-0.9,0-1.8-0.1-2.8-0.1l-0.4,0c-1.2-0.1-2.2-0.2-3.2-0.3c-4.4-0.6-8.2-1.6-11.3-3.3c-0.2-0.1-0.4-0.2-0.5-0.3
	c-0.1-19.2,1.4-24.9,7.7-30c0.3-0.2,0.6-0.5,1-0.9c2.2-1.9,7.3-6.4,14-6.8c0.4,0,0.7,0,1.1,0c6.3,0,13,3.4,18.9,9.7
	c4.5,4.8,6.3,10.1,7.1,21.5C998.5,1152.9,997.5,1153.5,996.5,1154.1z M973.5,1108.5L973.5,1108.5L973.5,1108.5L973.5,1108.5z"/>
<path d="M933.9,1044.5c7.4,4.3,16.3,3.8,23.4-0.5c1.7-1,3.9-0.9,5.5,0.3c0,0,0,0,0,0c0.5,0.3,0.4,1.1-0.1,1.3
	c-8.1,3.8-13.7,11.6-13.7,20.7c0,12.8,11,23.1,24.5,23.1c13.5,0,24.5-10.3,24.5-23.1c0-9.1-5.6-17-13.7-20.7c-0.5-0.3-0.6-1-0.1-1.3
	c0.1-0.1,0.2-0.1,0.3-0.2c1.6-1,3.6-1,5.3,0c7.1,4.2,15.9,4.7,23.3,0.5c11.1-6.4,14.5-21,7.8-32.8c-6.8-11.7-21.2-16-32.3-9.6
	c-3,1.7-5.4,4-7.2,6.7c-1.2,1.7-2.8,2.9-4.7,3.6c0.3-15.7,7.3-23.8,10.3-27.3c0.5-0.6,0.9-1.1,1.2-1.5l1.5-2.1l-2.6,0
	c-2.3,0-4.6,0-6.9,0c-2.3,0-4.6,0-6.9,0c-2.3,0-4.6,0-6.9,0c-2.2,0-4.6,0-6.9,0l-2.6,0l1.5,2.1c0.3,0.4,0.7,0.9,1.2,1.5
	c3,3.5,10.1,11.6,10.3,27.3c-1.9-0.7-3.6-2-4.8-3.7c-1.8-2.6-4.2-4.9-7.1-6.6c-11.1-6.4-25.5-2.1-32.3,9.6
	C919.4,1023.5,922.9,1038.2,933.9,1044.5z"/>
</svg>
