<?xml version="1.0" encoding="utf-8"?>
<!-- Generator: Adobe Illustrator 18.1.0, SVG Export Plug-In . SVG Version: 6.00 Build 0)  -->
<svg version="1.1" id="Layer_10" xmlns="http://www.w3.org/2000/svg" xmlns:xlink="http://www.w3.org/1999/xlink" x="0px" y="0px"
	 viewBox="0 0 1080 1296" enable-background="new 0 0 1080 1296" xml:space="preserve">
<polygon fill="#E30917" points="106.2,206.5 59.2,260.5 106.2,314.5 153.1,260.5 "/>
<polygon fill="#E30917" points="973.8,1089.5 1020.8,1035.5 973.8,981.5 926.9,1035.5 "/>
<polygon fill="#E30917" points="540,239.8 455,337.6 540,435.5 625,337.6 "/>
<polygon fill="#E30917" points="540,1056.2 455,958.4 540,860.5 625,958.4 "/>
<path fill="#E30917" d="M157,149.5v13v6v9.6H58.2v-13.8l52.2-58c7.7-8.8,13.1-15.9,16-21.4c2.9-5.5,4.4-11.2,4.4-17
	c0-7.9-2.4-14.3-7.1-19.4c-4.8-5-11.1-7.6-19-7.6c-9.5,0-16.9,2.7-22.2,8.1c-5.3,5.4-7.9,13-7.9,22.6H55.3
	c0-13.9,4.5-25.1,13.4-33.6c8.9-8.6,20.9-12.8,35.9-12.8c14,0,25.1,3.7,33.2,11c8.1,7.3,12.2,17.1,12.2,29.3
	c0,14.8-9.5,32.5-28.4,53l-40.4,43.8h61.5v-13H157z"/>
<path fill="#E30917" d="M923,1146.5v-13v-6v-9.6h98.8v13.8l-52.2,58c-7.7,8.8-13.1,15.9-16,21.4c-2.9,5.5-4.4,11.2-4.4,17
	c0,7.9,2.4,14.3,7.1,19.4c4.8,5,11.1,7.6,19,7.6c9.5,0,16.9-2.7,22.2-8.1c5.3-5.4,7.9-13,7.9-22.6h19.1c0,13.9-4.5,25.1-13.4,33.6
	c-8.9,8.6-20.9,12.8-35.9,12.8c-14,0-25.1-3.7-33.2-11c-8.1-7.3-12.2-17.1-12.2-29.3c0-14.8,9.5-32.5,28.4-53l40.4-43.8h-61.5v13
	H923z"/>
</svg>
