<?xml version="1.0" encoding="utf-8"?>
<!-- Generator: Adobe Illustrator 18.1.0, SVG Export Plug-In . SVG Version: 6.00 Build 0)  -->
<svg version="1.1" id="Layer_10" xmlns="http://www.w3.org/2000/svg" xmlns:xlink="http://www.w3.org/1999/xlink" x="0px" y="0px"
	 viewBox="0 0 1080 1296" enable-background="new 0 0 1080 1296" xml:space="preserve">
<polygon fill="#E30917" points="540,222.4 455,320.2 540,418.1 625,320.2 "/>
<polygon fill="#E30917" points="540,551.1 455,648.9 540,746.9 625,648.9 "/>
<polygon fill="#E30917" points="540,1073.6 455,975.8 540,877.9 625,975.8 "/>
<polygon fill="#E30917" points="106.2,206.5 59.2,260.5 106.2,314.5 153.1,260.5 "/>
<polygon fill="#E30917" points="973.8,1089.5 1020.8,1035.5 973.8,981.5 926.9,1035.5 "/>
<path fill="#E30917" d="M89.7,92.8h13.8c8.7-0.1,15.5-2.4,20.5-6.9c5-4.4,7.5-10.5,7.5-18c0-17-8.5-25.5-25.4-25.5
	c-8,0-14.3,2.3-19.1,6.8c-4.7,4.5-7.1,10.6-7.1,18.1H61.5c0-11.5,4.2-21,12.6-28.6c8.4-7.6,19.1-11.4,32-11.4
	c13.7,0,24.4,3.6,32.2,10.9c7.8,7.2,11.7,17.3,11.7,30.2c0,6.3-2,12.4-6.1,18.3c-4.1,5.9-9.6,10.3-16.7,13.2
	c8,2.5,14.1,6.7,18.5,12.5c4.3,5.8,6.5,13,6.5,21.4c0,13-4.2,23.3-12.7,31c-8.5,7.6-19.6,11.5-33.2,11.5c-13.6,0-24.7-3.7-33.2-11.1
	c-8.5-7.4-12.8-17.1-12.8-29.2h18.5c0,7.6,2.5,13.7,7.5,18.3c5,4.6,11.7,6.9,20,6.9c8.9,0,15.7-2.3,20.4-7c4.7-4.6,7.1-11.3,7.1-20
	c0-8.4-2.6-14.9-7.8-19.4c-5.2-4.5-12.6-6.8-22.4-7H89.7V92.8z"/>
<path fill="#E30917" d="M990.3,1205.1h-13.8c-8.7,0.1-15.5,2.4-20.5,6.9c-5,4.4-7.5,10.5-7.5,18c0,17,8.5,25.5,25.4,25.5
	c8,0,14.3-2.3,19.1-6.8c4.7-4.5,7.1-10.6,7.1-18.1h18.4c0,11.5-4.2,21-12.6,28.6c-8.4,7.6-19.1,11.4-32,11.4
	c-13.7,0-24.4-3.6-32.2-10.9c-7.8-7.2-11.7-17.3-11.7-30.2c0-6.3,2-12.4,6.1-18.3c4.1-5.9,9.6-10.3,16.7-13.2
	c-8-2.5-14.1-6.7-18.5-12.5c-4.3-5.8-6.5-13-6.5-21.4c0-13,4.2-23.3,12.7-31c8.5-7.6,19.6-11.5,33.2-11.5c13.6,0,24.7,3.7,33.2,11.1
	c8.5,7.4,12.8,17.1,12.8,29.2h-18.5c0-7.6-2.5-13.7-7.5-18.3s-11.7-6.9-20-6.9c-8.9,0-15.7,2.3-20.4,7c-4.7,4.6-7.1,11.3-7.1,20
	c0,8.4,2.6,14.9,7.8,19.4c5.2,4.5,12.6,6.8,22.4,7h13.8V1205.1z"/>
</svg>
