<?xml version="1.0" encoding="utf-8"?>
<!-- Generator: Adobe Illustrator 18.1.0, SVG Export Plug-In . SVG Version: 6.00 Build 0)  -->
<svg version="1.1" id="Layer_10" xmlns="http://www.w3.org/2000/svg" xmlns:xlink="http://www.w3.org/1999/xlink" x="0px" y="0px"
	 viewBox="0 0 1080 1296" enable-background="new 0 0 1080 1296" xml:space="preserve">
<polygon fill="#E30917" points="338.5,222.4 253.5,320.2 338.5,418.1 423.6,320.2 "/>
<polygon fill="#E30917" points="741.5,222.4 656.4,320.2 741.5,418.1 826.5,320.2 "/>
<polygon fill="#E30917" points="338.5,1073.6 253.5,975.8 338.5,877.9 423.6,975.8 "/>
<polygon fill="#E30917" points="741.5,1073.6 656.4,975.8 741.5,877.9 826.5,975.8 "/>
<polygon fill="#E30917" points="106.2,206.5 59.2,260.5 106.2,314.5 153.1,260.5 "/>
<polygon fill="#E30917" points="973.8,1089.5 1020.8,1035.5 973.8,981.5 926.9,1035.5 "/>
<path fill="#E30917" d="M161.3,142.7v-15.8h-21.2V25.3h-20.7L51,131.2v11.4h69.6v19.8h-9.9v15.7h9.9h19.5h9.9v-15.7h-9.9v-19.8
	H161.3z M73.1,126.8l45.2-70.7l2.3-4.2v74.9H73.1z"/>
<path fill="#E30917" d="M918.7,1153.3v15.8h21.2v101.5h20.7l68.4-105.9v-11.4h-69.6v-19.8h9.9v-15.7h-9.9h-19.5H930v15.7h9.9v19.8
	H918.7z M1006.9,1169.2l-45.2,70.7l-2.3,4.2v-74.9H1006.9z"/>
</svg>
