<?xml version="1.0" encoding="utf-8"?>
<!-- Generator: Adobe Illustrator 18.1.0, SVG Export Plug-In . SVG Version: 6.00 Build 0)  -->
<svg version="1.1" id="Layer_10" xmlns="http://www.w3.org/2000/svg" xmlns:xlink="http://www.w3.org/1999/xlink" x="0px" y="0px"
	 viewBox="0 0 1080 1296" enable-background="new 0 0 1080 1296" xml:space="preserve">
<polygon fill="#E30917" points="338.5,222.4 253.5,320.2 338.5,418.1 423.6,320.2 "/>
<polygon fill="#E30917" points="741.5,222.4 656.4,320.2 741.5,418.1 826.5,320.2 "/>
<polygon fill="#E30917" points="540,550.1 455,647.9 540,745.9 625,647.9 "/>
<polygon fill="#E30917" points="338.5,1073.6 253.5,975.8 338.5,877.9 423.6,975.8 "/>
<polygon fill="#E30917" points="741.5,1073.6 656.4,975.8 741.5,877.9 826.5,975.8 "/>
<polygon fill="#E30917" points="106.2,206.5 59.2,260.5 106.2,314.5 153.1,260.5 "/>
<polygon fill="#E30917" points="973.8,1089.5 1020.8,1035.5 973.8,981.5 926.9,1035.5 "/>
<path fill="#E30917" d="M64.2,100.5l7.7-75.1h77.2V43h-61l-4.6,41.1c7.4-4.3,15.8-6.5,25.2-6.5c13.7,0,24.6,4.5,32.7,13.6
	c8.1,9.1,12.1,21.3,12.1,36.8c0,15.5-4.2,27.8-12.6,36.7c-8.4,8.9-20.1,13.4-35.1,13.4c-13.3,0-24.2-3.7-32.6-11.1
	c-8.4-7.4-13.2-17.6-14.4-30.6h18.1c1.2,8.6,4.2,15.1,9.2,19.5c5,4.4,11.5,6.6,19.7,6.6c8.9,0,15.9-3,21-9.1
	c5.1-6.1,7.6-14.5,7.6-25.2c0-10.1-2.7-18.2-8.2-24.3c-5.5-6.1-12.8-9.2-21.9-9.2c-8.4,0-14.9,1.8-19.7,5.5l-5.1,4.1L64.2,100.5z"/>
<path fill="#E30917" d="M1015.8,1195.5l-7.7,75.1h-77.2V1253h61l4.6-41.1c-7.4,4.3-15.8,6.5-25.2,6.5c-13.7,0-24.6-4.5-32.7-13.6
	c-8.1-9.1-12.1-21.3-12.1-36.8c0-15.5,4.2-27.8,12.6-36.7c8.4-8.9,20.1-13.4,35.1-13.4c13.3,0,24.2,3.7,32.6,11.1
	c8.4,7.4,13.2,17.6,14.4,30.6h-18.1c-1.2-8.6-4.2-15.1-9.2-19.5c-5-4.4-11.5-6.6-19.7-6.6c-8.9,0-15.9,3-21,9.1
	c-5.1,6.1-7.6,14.5-7.6,25.2c0,10.1,2.7,18.2,8.2,24.3c5.5,6.1,12.8,9.2,21.9,9.2c8.4,0,14.9-1.8,19.7-5.5l5.1-4.1L1015.8,1195.5z"
	/>
</svg>
