<?xml version="1.0" encoding="utf-8"?>
<!-- Generator: Adobe Illustrator 18.1.0, SVG Export Plug-In . SVG Version: 6.00 Build 0)  -->
<svg version="1.1" id="Layer_10" xmlns="http://www.w3.org/2000/svg" xmlns:xlink="http://www.w3.org/1999/xlink" x="0px" y="0px"
	 viewBox="0 0 1080 1296" enable-background="new 0 0 1080 1296" xml:space="preserve">
<polygon fill="#E30917" points="338.5,222.4 253.5,320.2 338.5,418.1 423.6,320.2 "/>
<polygon fill="#E30917" points="338.5,551.1 253.5,648.9 338.5,746.9 423.6,648.9 "/>
<polygon fill="#E30917" points="741.5,551.1 656.4,648.9 741.5,746.9 826.5,648.9 "/>
<polygon fill="#E30917" points="741.5,222.4 656.4,320.2 741.5,418.1 826.5,320.2 "/>
<polygon fill="#E30917" points="338.5,1073.6 253.5,975.8 338.5,877.9 423.6,975.8 "/>
<polygon fill="#E30917" points="741.5,1073.6 656.4,975.8 741.5,877.9 826.5,975.8 "/>
<polygon fill="#E30917" points="106.2,206.5 59.2,260.5 106.2,314.5 153.1,260.5 "/>
<polygon fill="#E30917" points="973.8,1089.5 1020.8,1035.5 973.8,981.5 926.9,1035.5 "/>
<path fill="#E30917" d="M132.5,25.3v16.2H129c-14.9,0.3-26.8,4.7-35.6,13.2c-8.8,8.6-13.9,20.6-15.3,36.1
	c7.9-9.1,18.8-13.7,32.5-13.7c13.1,0,23.6,4.6,31.4,13.9c7.8,9.2,11.7,21.2,11.7,35.8c0,15.5-4.2,27.9-12.7,37.2
	c-8.4,9.3-19.8,14-34,14c-14.4,0-26.1-5.5-35.1-16.6c-9-11.1-13.4-25.3-13.4-42.8v-7.3c0-27.7,5.9-48.9,17.7-63.6
	c11.8-14.7,29.4-22.2,52.8-22.5H132.5z M107.4,93.2c-6.6,0-12.6,2-18.1,5.9c-5.5,3.9-9.3,8.9-11.5,14.8v7c0,12.4,2.8,22.4,8.4,30
	c5.6,7.6,12.6,11.4,20.9,11.4c8.6,0,15.4-3.2,20.3-9.5c4.9-6.3,7.4-14.7,7.4-24.9c0-10.3-2.5-18.7-7.5-25.1
	C122.3,96.4,115.7,93.2,107.4,93.2z"/>
<path fill="#E30917" d="M947.5,1270.7v-16.2h3.5c14.9-0.3,26.8-4.7,35.6-13.2c8.8-8.6,13.9-20.6,15.3-36.1
	c-7.9,9.1-18.8,13.7-32.5,13.7c-13.1,0-23.6-4.6-31.4-13.9c-7.8-9.2-11.7-21.2-11.7-35.8c0-15.5,4.2-27.9,12.7-37.2
	c8.4-9.3,19.8-14,34-14c14.4,0,26.1,5.5,35.1,16.6c9,11.1,13.4,25.3,13.4,42.8v7.3c0,27.7-5.9,48.9-17.7,63.6
	c-11.8,14.7-29.4,22.2-52.8,22.5H947.5z M972.6,1202.8c6.6,0,12.6-2,18.1-5.9c5.5-3.9,9.3-8.9,11.5-14.8v-7c0-12.4-2.8-22.4-8.4-30
	c-5.6-7.6-12.6-11.4-20.9-11.4c-8.6,0-15.4,3.2-20.3,9.5c-4.9,6.3-7.4,14.7-7.4,24.9c0,10.3,2.5,18.7,7.5,25.1
	C957.7,1199.6,964.3,1202.8,972.6,1202.8z"/>
</svg>
