<?xml version="1.0" encoding="utf-8"?>
<!-- Generator: Adobe Illustrator 18.1.0, SVG Export Plug-In . SVG Version: 6.00 Build 0)  -->
<svg version="1.1" id="Layer_10" xmlns="http://www.w3.org/2000/svg" xmlns:xlink="http://www.w3.org/1999/xlink" x="0px" y="0px"
	 viewBox="0 0 1080 1296" enable-background="new 0 0 1080 1296" xml:space="preserve">
<polygon fill="#E30917" points="338.5,222.4 253.5,320.2 338.5,418.1 423.6,320.2 "/>
<polygon fill="#E30917" points="338.5,551.1 253.5,648.9 338.5,746.9 423.6,648.9 "/>
<polygon fill="#E30917" points="741.5,551.1 656.4,648.9 741.5,746.9 826.5,648.9 "/>
<polygon fill="#E30917" points="741.5,222.4 656.4,320.2 741.5,418.1 826.5,320.2 "/>
<polygon fill="#E30917" points="540,386.8 455,484.5 540,582.5 625,484.5 "/>
<polygon fill="#E30917" points="338.5,1073.6 253.5,975.8 338.5,877.9 423.6,975.8 "/>
<polygon fill="#E30917" points="741.5,1073.6 656.4,975.8 741.5,877.9 826.5,975.8 "/>
<polygon fill="#E30917" points="106.2,206.5 59.2,260.5 106.2,314.5 153.1,260.5 "/>
<polygon fill="#E30917" points="973.8,1089.5 1020.8,1035.5 973.8,981.5 926.9,1035.5 "/>
<path fill="#E30917" d="M152.3,27.3v13.2L91.7,176.2H67.3L126.8,47H78v14.1H60.1V47V27.3H152.3z"/>
<path fill="#E30917" d="M927.7,1270.7v-13.2l60.6-135.8h24.4l-59.5,129.2h48.8v-14.1h17.9v14.1v19.8H927.7z"/>
</svg>
