<?xml version="1.0" encoding="utf-8"?>
<!-- Generator: Adobe Illustrator 18.1.0, SVG Export Plug-In . SVG Version: 6.00 Build 0)  -->
<svg version="1.1" id="Layer_10" xmlns="http://www.w3.org/2000/svg" xmlns:xlink="http://www.w3.org/1999/xlink" x="0px" y="0px"
	 viewBox="0 0 1080 1296" enable-background="new 0 0 1080 1296" xml:space="preserve">
<polygon fill="#E30917" points="338.5,222.4 253.5,320.2 338.5,418.1 423.6,320.2 "/>
<polygon fill="#E30917" points="338.5,551.1 253.5,648.9 338.5,746.9 423.6,648.9 "/>
<polygon fill="#E30917" points="741.5,551.1 656.4,648.9 741.5,746.9 826.5,648.9 "/>
<polygon fill="#E30917" points="741.5,222.4 656.4,320.2 741.5,418.1 826.5,320.2 "/>
<polygon fill="#E30917" points="540,386.8 455,484.5 540,582.5 625,484.5 "/>
<polygon fill="#E30917" points="338.5,1073.6 253.5,975.8 338.5,877.9 423.6,975.8 "/>
<polygon fill="#E30917" points="741.5,1073.6 656.4,975.8 741.5,877.9 826.5,975.8 "/>
<polygon fill="#E30917" points="540,909.2 455,811.5 540,713.5 625,811.5 "/>
<polygon fill="#E30917" points="106.2,206.5 59.2,260.5 106.2,314.5 153.1,260.5 "/>
<polygon fill="#E30917" points="973.8,1089.5 1020.8,1035.5 973.8,981.5 926.9,1035.5 "/>
<path fill="#E30917" d="M1017.6,1158.7c0,7.4-2,14-5.9,19.8c-3.9,5.8-9.2,10.3-15.9,13.6c7.8,3.3,13.9,8.2,18.4,14.6
	c4.5,6.4,6.8,13.7,6.8,21.8c0,12.9-4.3,23.1-13,30.7c-8.7,7.6-20.1,11.4-34.3,11.4c-14.3,0-25.8-3.8-34.4-11.5
	c-8.6-7.7-12.9-17.9-12.9-30.7c0-8,2.2-15.3,6.6-21.8c4.4-6.5,10.5-11.4,18.2-14.7c-6.6-3.3-11.8-7.8-15.6-13.6
	c-3.8-5.8-5.7-12.4-5.7-19.7c0-12.5,4-22.5,12.1-29.8c8-7.4,18.6-11,31.8-11c13.1,0,23.6,3.7,31.7,11
	C1013.6,1136.3,1017.6,1146.2,1017.6,1158.7z M1002.2,1228.1c0-8.3-2.6-15.1-7.9-20.3c-5.3-5.2-12.2-7.9-20.7-7.9
	c-8.5,0-15.3,2.6-20.5,7.8c-5.1,5.2-7.7,12-7.7,20.4c0,8.4,2.5,15.1,7.5,19.9c5,4.8,12,7.3,20.9,7.3c8.9,0,15.8-2.4,20.8-7.3
	C999.7,1243.1,1002.2,1236.4,1002.2,1228.1z M973.8,1133.4c-7.4,0-13.4,2.3-18,6.9c-4.6,4.6-6.9,10.8-6.9,18.7
	c0,7.6,2.3,13.7,6.8,18.3c4.5,4.7,10.6,7,18.1,7c7.6,0,13.6-2.3,18.1-7c4.5-4.7,6.8-10.8,6.8-18.3s-2.3-13.7-7-18.5
	C987,1135.8,981.1,1133.4,973.8,1133.4z"/>
<path fill="#E30917" d="M150,66.2c0,7.4-2,14-5.9,19.8c-3.9,5.8-9.2,10.3-15.9,13.6c7.8,3.3,13.9,8.2,18.4,14.6
	c4.5,6.4,6.8,13.7,6.8,21.8c0,12.9-4.3,23.1-13,30.7c-8.7,7.6-20.1,11.4-34.3,11.4c-14.3,0-25.8-3.8-34.4-11.5
	c-8.6-7.7-12.9-17.9-12.9-30.7c0-8,2.2-15.3,6.6-21.8c4.4-6.5,10.5-11.4,18.2-14.7c-6.6-3.3-11.8-7.8-15.6-13.6
	c-3.8-5.8-5.7-12.4-5.7-19.7c0-12.5,4-22.5,12.1-29.8c8-7.4,18.6-11,31.8-11c13.1,0,23.6,3.7,31.7,11C145.9,43.7,150,53.7,150,66.2z
	 M134.6,135.5c0-8.3-2.6-15.1-7.9-20.3c-5.3-5.2-12.2-7.9-20.7-7.9c-8.5,0-15.3,2.6-20.5,7.8c-5.1,5.2-7.7,12-7.7,20.4
	c0,8.4,2.5,15.1,7.5,19.9c5,4.8,12,7.3,20.9,7.3c8.9,0,15.8-2.4,20.8-7.3C132,150.5,134.6,143.9,134.6,135.5z M106.2,40.9
	c-7.4,0-13.4,2.3-18,6.9c-4.6,4.6-6.9,10.8-6.9,18.7c0,7.6,2.3,13.7,6.8,18.3c4.5,4.7,10.6,7,18.1,7c7.6,0,13.6-2.3,18.1-7
	c4.5-4.7,6.8-10.8,6.8-18.3s-2.3-13.7-7-18.5C119.3,43.2,113.4,40.9,106.2,40.9z"/>
</svg>
