<?xml version="1.0" encoding="utf-8"?>
<!-- Generator: Adobe Illustrator 18.1.0, SVG Export Plug-In . SVG Version: 6.00 Build 0)  -->
<svg version="1.1" id="Layer_10" xmlns="http://www.w3.org/2000/svg" xmlns:xlink="http://www.w3.org/1999/xlink" x="0px" y="0px"
	 viewBox="0 0 1080 1296" enable-background="new 0 0 1080 1296" xml:space="preserve">
<polygon fill="#E30917" points="106.2,206.5 59.2,260.5 106.2,314.5 153.1,260.5 "/>
<polygon fill="#E30917" points="973.8,1089.5 1020.8,1035.5 973.8,981.5 926.9,1035.5 "/>
<polygon fill="#E30917" points="338.5,222.4 253.5,320.2 338.5,418.1 423.6,320.2 "/>
<polygon fill="#E30917" points="338.5,445 253.5,542.8 338.5,640.7 423.6,542.8 "/>
<polygon fill="#E30917" points="741.5,445 656.4,542.8 741.5,640.7 826.5,542.8 "/>
<polygon fill="#E30917" points="741.5,222.4 656.4,320.2 741.5,418.1 826.5,320.2 "/>
<polygon fill="#E30917" points="540,550.1 455,647.9 540,745.9 625,647.9 "/>
<polygon fill="#E30917" points="338.5,1073.6 253.5,975.8 338.5,877.9 423.6,975.8 "/>
<polygon fill="#E30917" points="338.5,851 253.5,753.2 338.5,655.3 423.6,753.2 "/>
<polygon fill="#E30917" points="741.5,851 656.4,753.2 741.5,655.3 826.5,753.2 "/>
<polygon fill="#E30917" points="741.5,1073.6 656.4,975.8 741.5,877.9 826.5,975.8 "/>
<path fill="#E30917" d="M134,110.8c-4,4.7-8.7,8.5-14.2,11.4c-5.5,2.9-11.5,4.3-18.1,4.3c-8.6,0-16.1-2.1-22.4-6.3
	c-6.4-4.2-11.3-10.2-14.8-17.8c-3.5-7.7-5.2-16.1-5.2-25.4c0-10,1.9-18.9,5.7-26.9c3.8-8,9.2-14.1,16.1-18.3
	c7-4.2,15.1-6.3,24.3-6.3c14.7,0,26.3,5.5,34.8,16.5c8.5,11,12.7,26,12.7,45.1v5.5c0,29-5.7,50.1-17.2,63.5
	c-11.5,13.3-28.7,20.2-51.9,20.5h-3.7v-16.1h4c15.6-0.3,27.6-4.3,36-12.2S133.2,127.8,134,110.8z M104.8,110.8
	c6.3,0,12.2-1.9,17.5-5.8c5.4-3.9,9.3-8.7,11.7-14.4V83c0-12.4-2.7-22.5-8.1-30.3c-5.4-7.8-12.2-11.7-20.5-11.7
	c-8.3,0-15,3.2-20,9.6c-5,6.4-7.6,14.8-7.6,25.2c0,10.2,2.4,18.5,7.3,25.1C90.1,107.5,96.7,110.8,104.8,110.8z"/>
<path fill="#E30917" d="M946,1185.2c4-4.7,8.7-8.5,14.2-11.4c5.5-2.9,11.5-4.3,18.1-4.3c8.6,0,16.1,2.1,22.4,6.3
	c6.4,4.2,11.3,10.2,14.8,17.8c3.5,7.7,5.2,16.1,5.2,25.4c0,10-1.9,18.9-5.7,26.9c-3.8,8-9.2,14.1-16.1,18.3
	c-7,4.2-15.1,6.3-24.3,6.3c-14.7,0-26.3-5.5-34.8-16.5c-8.5-11-12.7-26-12.7-45.1v-5.5c0-29,5.7-50.1,17.2-63.5
	c11.5-13.3,28.7-20.2,51.9-20.5h3.7v16.1h-4c-15.6,0.3-27.6,4.3-36,12.2S946.8,1168.2,946,1185.2z M975.2,1185.2
	c-6.3,0-12.2,1.9-17.5,5.8c-5.4,3.9-9.3,8.7-11.7,14.4v7.6c0,12.4,2.7,22.5,8.1,30.3c5.4,7.8,12.2,11.7,20.5,11.7
	c8.3,0,15-3.2,20-9.6c5-6.4,7.6-14.8,7.6-25.2c0-10.2-2.4-18.5-7.3-25.1C989.9,1188.5,983.3,1185.2,975.2,1185.2z"/>
</svg>
