<?xml version="1.0" encoding="utf-8"?>
<!-- Generator: Adobe Illustrator 18.1.0, SVG Export Plug-In . SVG Version: 6.00 Build 0)  -->
<svg version="1.1" id="Layer_10" xmlns="http://www.w3.org/2000/svg" xmlns:xlink="http://www.w3.org/1999/xlink" x="0px" y="0px"
	 viewBox="0 0 1080 1296" enable-background="new 0 0 1080 1296" xml:space="preserve">
<polygon fill="#E30917" points="106.2,206.5 59.2,260.5 106.2,314.5 153.1,260.5 "/>
<path fill="#E30917" d="M68.7,158.5h19.5v17.5H68.7v0h-19v0H30.2v-17.5h19.5V53.7l-19.5,7.1V40.1l35.6-13.4h3V158.5z M182.1,88.2
	v24.5c0,22.1-3.8,38.6-11.3,49.3c-7.6,10.8-19.4,16.1-35.4,16.1c-15.9,0-27.6-5.3-35.2-15.8c-7.6-10.5-11.6-26.2-11.8-47.1V90
	c0-21.9,3.8-38.1,11.3-48.7c7.6-10.6,19.4-15.9,35.5-15.9c16,0,27.8,5.1,35.3,15.4C178,51,181.9,66.8,182.1,88.2z M163.2,86.8
	c0-16-2.2-27.7-6.7-35c-4.5-7.3-11.6-11-21.3-11c-9.7,0-16.7,3.6-21.1,10.9c-4.4,7.3-6.7,18.5-6.8,33.6v30.2c0,16.1,2.3,27.9,7,35.6
	c4.7,7.7,11.7,11.5,21.2,11.5c9.3,0,16.3-3.6,20.8-10.8c4.5-7.2,6.9-18.6,7.1-34.1V86.8z"/>
<polygon fill="#E30917" points="973.8,1089.5 1020.8,1035.5 973.8,981.5 926.9,1035.5 "/>
<path fill="#E30917" d="M1011.3,1137.5h-19.5v-17.5h19.5v0h19v0h19.5v17.5h-19.5v104.8l19.5-7.1v20.7l-35.6,13.4h-3V1137.5z
	 M897.9,1207.8v-24.5c0-22.1,3.8-38.6,11.3-49.3c7.6-10.8,19.4-16.1,35.4-16.1c15.9,0,27.6,5.3,35.2,15.8
	c7.6,10.5,11.6,26.2,11.8,47.1v25.2c0,21.9-3.8,38.1-11.3,48.7c-7.6,10.6-19.4,15.9-35.5,15.9c-16,0-27.8-5.1-35.3-15.4
	C902,1245,898.1,1229.2,897.9,1207.8z M916.8,1209.2c0,16,2.2,27.7,6.7,35c4.5,7.3,11.6,11,21.3,11c9.7,0,16.7-3.6,21.1-10.9
	c4.4-7.3,6.7-18.5,6.8-33.6v-30.2c0-16.1-2.3-27.9-7-35.6c-4.7-7.7-11.7-11.5-21.2-11.5c-9.3,0-16.3,3.6-20.8,10.8
	c-4.5,7.2-6.9,18.6-7.1,34.1V1209.2z"/>
<polygon fill="#E30917" points="338.5,222.4 253.5,320.2 338.5,418.1 423.6,320.2 "/>
<polygon fill="#E30917" points="338.5,445 253.5,542.8 338.5,640.7 423.6,542.8 "/>
<polygon fill="#E30917" points="741.5,445 656.4,542.8 741.5,640.7 826.5,542.8 "/>
<polygon fill="#E30917" points="741.5,222.4 656.4,320.2 741.5,418.1 826.5,320.2 "/>
<polygon fill="#E30917" points="540,333.7 455,431.5 540,529.4 625,431.5 "/>
<polygon fill="#E30917" points="338.5,1073.6 253.5,975.8 338.5,877.9 423.6,975.8 "/>
<polygon fill="#E30917" points="338.5,851 253.5,753.2 338.5,655.3 423.6,753.2 "/>
<polygon fill="#E30917" points="741.5,851 656.4,753.2 741.5,655.3 826.5,753.2 "/>
<polygon fill="#E30917" points="741.5,1073.6 656.4,975.8 741.5,877.9 826.5,975.8 "/>
<polygon fill="#E30917" points="540,962.3 455,864.5 540,766.6 625,864.5 "/>
</svg>
