<?xml version="1.0" encoding="utf-8"?>
<!-- Generator: Adobe Illustrator 18.1.0, SVG Export Plug-In . SVG Version: 6.00 Build 0)  -->
<svg version="1.1" id="Layer_10" xmlns="http://www.w3.org/2000/svg" xmlns:xlink="http://www.w3.org/1999/xlink" x="0px" y="0px"
	 viewBox="0 0 1080 1296" enable-background="new 0 0 1080 1296" xml:space="preserve">
<polygon fill="#E30917" points="540,421.4 343.1,647.8 540,874.6 736.9,647.8 "/>
<path fill="#E30917" d="M149.2,164.5L114,11H98.4L63,164.5l-9.2,0v17.4l47.7-0.2v-17l-21.1-0.1l8.3-36h34.8l8.3,36l-21.5,0.1v17
	l48.3,0.2v-17.4L149.2,164.5z M119.6,111.5h-27l13.5-58.7L119.6,111.5z"/>
<polygon fill="#E30917" points="106.2,206.5 59.2,260.5 106.2,314.5 153.1,260.5 "/>
<path fill="#E30917" d="M930.8,1131.5L966,1285h15.7l35.3-153.5l9.2,0v-17.4l-47.7,0.2v17l21.1,0.1l-8.3,36h-34.8l-8.3-36l21.5-0.1
	v-17l-48.3-0.2v17.4L930.8,1131.5z M960.4,1184.5h27l-13.5,58.7L960.4,1184.5z"/>
<polygon fill="#E30917" points="973.8,1089.5 1020.8,1035.5 973.8,981.5 926.9,1035.5 "/>
</svg>
