<?xml version="1.0" encoding="utf-8"?>
<!-- Generator: Adobe Illustrator 18.1.0, SVG Export Plug-In . SVG Version: 6.00 Build 0)  -->
<svg version="1.1" id="Layer_10" xmlns="http://www.w3.org/2000/svg" xmlns:xlink="http://www.w3.org/1999/xlink" x="0px" y="0px"
	 viewBox="0 0 1080 1296" enable-background="new 0 0 1080 1296" xml:space="preserve">
<path fill="#E30917" d="M151.5,19.7v17h-18v112.8c0,9.7-4.2,18.7-11.4,24.9c-7.4,6.2-15.3,9.4-23.7,9.4c-8.7,0-17.5-3.6-25.6-10.4
	c-7.6-6.4-12-15.9-12-26.1v-21.9h17v21.9c0,5.1,2.2,9.9,5.9,13.1c5.1,4.3,9.9,6.4,14.5,6.4c4.3,0,8.5-1.8,12.8-5.4
	c3.4-2.9,5.4-7.2,5.4-11.9V36.7h-18v-17H151.5z"/>
<polygon fill="#E30917" points="106.2,206.5 59.2,260.5 106.2,314.5 153.1,260.5 "/>
<path fill="#E30917" d="M928.5,1276.3v-17h18v-112.8c0-9.7,4.2-18.7,11.4-24.9c7.4-6.2,15.3-9.4,23.7-9.4c8.7,0,17.5,3.6,25.6,10.4
	c7.6,6.4,12,15.9,12,26.1v21.9h-17v-21.9c0-5.1-2.2-9.9-5.9-13.1c-5.1-4.3-9.9-6.4-14.5-6.4c-4.3,0-8.5,1.8-12.8,5.4
	c-3.4,2.9-5.4,7.2-5.4,11.9v112.8h18v17H928.5z"/>
<polygon fill="#E30917" points="973.8,1089.5 1020.8,1035.5 973.8,981.5 926.9,1035.5 "/>
<polygon fill="#E30917" points="540,421.4 343.1,647.8 540,874.6 736.9,647.8 "/>
</svg>
