<?xml version="1.0" encoding="utf-8"?>
<!-- Generator: Adobe Illustrator 18.1.0, SVG Export Plug-In . SVG Version: 6.00 Build 0)  -->
<svg version="1.1" id="Layer_10" xmlns="http://www.w3.org/2000/svg" xmlns:xlink="http://www.w3.org/1999/xlink" x="0px" y="0px"
	 viewBox="0 0 1080 1296" enable-background="new 0 0 1080 1296" xml:space="preserve">
<polygon fill="#E30917" points="540,421.4 343.1,647.8 540,874.6 736.9,647.8 "/>
<path fill="#E30917" d="M142.2,26l-41.4,47.4l42.8,93.6h13.9v15h-45.3v-15h14.9L90,85.8l-5.7,6.6V167h15.2v15H54.1v-15h15.2V26H54.1
	V11h45.3v15H84.3v43.2l0.5-0.2l37.5-43h-10.1V11h45.3v15H142.2z"/>
<polygon fill="#E30917" points="106.2,206.5 59.2,260.5 106.2,314.5 153.1,260.5 "/>
<path fill="#E30917" d="M937.8,1270l41.4-47.4l-42.8-93.6h-13.9v-15h45.3v15h-14.9l37.1,81.2l5.7-6.6V1129h-15.2v-15h45.3v15h-15.2
	v141h15.2v15h-45.3v-15h15.2v-43.2l-0.5,0.2l-37.5,43h10.1v15h-45.3v-15H937.8z"/>
<polygon fill="#E30917" points="973.8,1089.5 1020.8,1035.5 973.8,981.5 926.9,1035.5 "/>
</svg>
