<?xml version="1.0" encoding="utf-8"?>
<!-- Generator: Adobe Illustrator 18.1.0, SVG Export Plug-In . SVG Version: 6.00 Build 0)  -->
<svg version="1.1" id="Layer_10" xmlns="http://www.w3.org/2000/svg" xmlns:xlink="http://www.w3.org/1999/xlink" x="0px" y="0px"
	 viewBox="0 0 1080 1296" enable-background="new 0 0 1080 1296" xml:space="preserve">
<path fill="#E30917" d="M89.7,92.8h13.8c8.7-0.1,15.5-2.4,20.5-6.9c5-4.4,7.5-10.5,7.5-18c0-17-8.5-25.5-25.4-25.5
	c-8,0-14.3,2.3-19.1,6.8c-4.7,4.5-7.1,10.6-7.1,18.1H61.5c0-11.5,4.2-21,12.6-28.6c8.4-7.6,19.1-11.4,32-11.4
	c13.7,0,24.4,3.6,32.2,10.9c7.8,7.2,11.7,17.3,11.7,30.2c0,6.3-2,12.4-6.1,18.3c-4.1,5.9-9.6,10.3-16.7,13.2
	c8,2.5,14.1,6.7,18.5,12.5c4.3,5.8,6.5,13,6.5,21.4c0,13-4.2,23.3-12.7,31c-8.5,7.6-19.6,11.5-33.2,11.5c-13.6,0-24.7-3.7-33.2-11.1
	c-8.5-7.4-12.8-17.1-12.8-29.2h18.5c0,7.6,2.5,13.7,7.5,18.3c5,4.6,11.7,6.9,20,6.9c8.9,0,15.7-2.3,20.4-7c4.7-4.6,7.1-11.3,7.1-20
	c0-8.4-2.6-14.9-7.8-19.4c-5.2-4.5-12.6-6.8-22.4-7H89.7V92.8z"/>
<path fill="#E30917" d="M990.3,1205.1h-13.8c-8.7,0.1-15.5,2.4-20.5,6.9c-5,4.4-7.5,10.5-7.5,18c0,17,8.5,25.5,25.4,25.5
	c8,0,14.3-2.3,19.1-6.8c4.7-4.5,7.1-10.6,7.1-18.1h18.4c0,11.5-4.2,21-12.6,28.6c-8.4,7.6-19.1,11.4-32,11.4
	c-13.7,0-24.4-3.6-32.2-10.9c-7.8-7.2-11.7-17.3-11.7-30.2c0-6.3,2-12.4,6.1-18.3c4.1-5.9,9.6-10.3,16.7-13.2
	c-8-2.5-14.1-6.7-18.5-12.5c-4.3-5.8-6.5-13-6.5-21.4c0-13,4.2-23.3,12.7-31c8.5-7.6,19.6-11.5,33.2-11.5c13.6,0,24.7,3.7,33.2,11.1
	c8.5,7.4,12.8,17.1,12.8,29.2h-18.5c0-7.6-2.5-13.7-7.5-18.3s-11.7-6.9-20-6.9c-8.9,0-15.7,2.3-20.4,7c-4.7,4.6-7.1,11.3-7.1,20
	c0,8.4,2.6,14.9,7.8,19.4c5.2,4.5,12.6,6.8,22.4,7h13.8V1205.1z"/>
<path fill="#E30917" d="M629.6,262.7c-2-5.5-5.1-10.6-9.2-15c-7.3-7.9-17.5-13.1-28.6-14.7c-2.2-0.3-4.4-0.5-6.5-0.5
	c-14.1,0-26.7,7.1-36.6,20.4c-4.1,5.6-6.9,11.1-8.7,15c-1.7-3.9-4.5-9.4-8.7-15c-9.9-13.4-22.6-20.4-36.6-20.4
	c-2.1,0-4.3,0.2-6.5,0.5c-11.1,1.6-21.3,6.8-28.6,14.7c-4.1,4.4-7.2,9.5-9.2,15c-1.8,4.9-2.6,10-2.5,15.3c0,5.4,0.9,10.9,2.8,16.3
	c2.8,8,6.8,13.4,7.4,14.1l0.1,0.1c6.7,9.2,14.5,17.6,23.4,25c7.3,6.1,12.9,11.3,17,15.8l1.1,1.2c14.8,16.1,20.4,22.1,38.4,52.3
	l1.9,3.1l1.9-3.1c18-30.3,23.6-36.3,38.4-52.3l1.1-1.2c4.2-4.5,9.7-9.7,17-15.8c8.9-7.4,16.7-15.8,23.4-25l0.1-0.1
	c0.5-0.7,4.6-6.1,7.4-14.1c1.9-5.4,2.8-10.9,2.8-16.3C632.2,272.8,631.3,267.6,629.6,262.7z"/>
<path fill="#E30917" d="M629.6,591.5c-2-5.5-5.1-10.6-9.2-15c-7.3-7.9-17.5-13.1-28.6-14.7c-2.2-0.3-4.4-0.5-6.5-0.5
	c-14.1,0-26.7,7.1-36.6,20.4c-4.1,5.6-6.9,11.1-8.7,15c-1.7-3.9-4.5-9.4-8.7-15c-9.9-13.4-22.6-20.4-36.6-20.4
	c-2.1,0-4.3,0.2-6.5,0.5c-11.1,1.6-21.3,6.8-28.6,14.7c-4.1,4.4-7.2,9.5-9.2,15c-1.8,4.9-2.6,10-2.5,15.3c0,5.4,0.9,10.9,2.8,16.3
	c2.8,8,6.8,13.4,7.4,14.1l0.1,0.1c6.7,9.2,14.5,17.6,23.4,25c7.3,6.1,12.9,11.3,17,15.8l1.1,1.2c14.8,16.1,20.4,22.1,38.4,52.3
	l1.9,3.1l1.9-3.1c18-30.3,23.6-36.3,38.4-52.3l1.1-1.2c4.2-4.5,9.7-9.7,17-15.8c8.9-7.4,16.7-15.8,23.4-25l0.1-0.1
	c0.5-0.7,4.6-6.1,7.4-14.1c1.9-5.4,2.8-10.9,2.8-16.3C632.2,601.5,631.3,596.4,629.6,591.5z"/>
<path fill="#E30917" d="M629.6,1033.3c-2,5.5-5.1,10.6-9.2,15c-7.3,7.9-17.5,13.1-28.6,14.7c-2.2,0.3-4.4,0.5-6.5,0.5
	c-14.1,0-26.7-7.1-36.6-20.4c-4.1-5.6-6.9-11.1-8.7-15c-1.7,3.9-4.5,9.4-8.7,15c-9.9,13.4-22.6,20.4-36.6,20.4
	c-2.1,0-4.3-0.2-6.5-0.5c-11.1-1.6-21.3-6.8-28.6-14.7c-4.1-4.4-7.2-9.5-9.2-15c-1.8-4.9-2.6-10-2.5-15.3c0-5.4,0.9-10.9,2.8-16.3
	c2.8-8,6.8-13.4,7.4-14.1l0.1-0.1c6.7-9.2,14.5-17.6,23.4-25c7.3-6.1,12.9-11.3,17-15.8l1.1-1.2c14.8-16.1,20.4-22.1,38.4-52.3
	l1.9-3.1l1.9,3.1c18,30.3,23.6,36.3,38.4,52.3l1.1,1.2c4.2,4.5,9.7,9.7,17,15.8c8.9,7.4,16.7,15.8,23.4,25l0.1,0.1
	c0.5,0.7,4.6,6.1,7.4,14.1c1.9,5.4,2.8,10.9,2.8,16.3C632.2,1023.2,631.3,1028.4,629.6,1033.3z"/>
<path fill="#E30917" d="M158.5,227.8c-1.2-3.2-3-6.2-5.4-8.8c-4.3-4.6-10.2-7.7-16.7-8.6c-1.3-0.2-2.6-0.3-3.8-0.3
	c-15.5,0-23.6,14.3-26.5,20.7c-2.9-6.4-11-20.7-26.5-20.7c-1.2,0-2.5,0.1-3.8,0.3c-6.5,0.9-12.4,4-16.7,8.6
	c-2.4,2.6-4.2,5.5-5.4,8.8c-5,13.7,4.1,25.6,4.4,26.1l0.1,0.1c3.9,5.4,8.5,10.3,13.7,14.6c4.3,3.6,7.5,6.6,10,9.2l0.7,0.7
	c8.7,9.4,11.9,12.9,22.5,30.6l1.1,1.8l1.1-1.8c10.5-17.7,13.8-21.2,22.5-30.6l0.7-0.7c2.4-2.6,5.7-5.7,10-9.2
	c5.2-4.3,9.8-9.3,13.7-14.6l0,0C154.4,253.4,163.5,241.5,158.5,227.8z"/>
<path fill="#E30917" d="M921.5,1068.2c1.2,3.2,3,6.2,5.4,8.8c4.3,4.6,10.2,7.7,16.7,8.6c1.3,0.2,2.6,0.3,3.8,0.3
	c15.5,0,23.6-14.3,26.5-20.7c2.9,6.4,11,20.7,26.5,20.7c1.2,0,2.5-0.1,3.8-0.3c6.5-0.9,12.4-4,16.7-8.6c2.4-2.6,4.2-5.5,5.4-8.8
	c5-13.7-4.1-25.6-4.4-26.1l-0.1-0.1c-3.9-5.4-8.5-10.3-13.7-14.6c-4.3-3.6-7.5-6.6-10-9.2l-0.7-0.7c-8.7-9.4-11.9-12.9-22.5-30.6
	l-1.1-1.8l-1.1,1.8c-10.5,17.7-13.8,21.2-22.5,30.6l-0.7,0.7c-2.4,2.6-5.7,5.7-10,9.2c-5.2,4.3-9.8,9.3-13.7,14.6l0,0
	C925.6,1042.6,916.5,1054.5,921.5,1068.2z"/>
</svg>
