<?xml version="1.0" encoding="utf-8"?>
<!-- Generator: Adobe Illustrator 18.1.0, SVG Export Plug-In . SVG Version: 6.00 Build 0)  -->
<svg version="1.1" id="Layer_10" xmlns="http://www.w3.org/2000/svg" xmlns:xlink="http://www.w3.org/1999/xlink" x="0px" y="0px"
	 viewBox="0 0 1080 1296" enable-background="new 0 0 1080 1296" xml:space="preserve">
<path fill="#E30917" d="M428.1,262.7c-2-5.5-5.1-10.6-9.2-15c-7.3-7.9-17.5-13.1-28.6-14.7c-2.2-0.3-4.4-0.5-6.5-0.5
	c-14.1,0-26.7,7.1-36.6,20.4c-4.1,5.6-6.9,11.1-8.7,15c-1.7-3.9-4.5-9.4-8.7-15c-9.9-13.4-22.6-20.4-36.6-20.4
	c-2.1,0-4.3,0.2-6.5,0.5c-11.1,1.6-21.3,6.8-28.6,14.7c-4.1,4.4-7.2,9.5-9.2,15c-1.8,4.9-2.6,10-2.5,15.3c0,5.4,0.9,10.9,2.8,16.3
	c2.8,8,6.8,13.4,7.4,14.1l0.1,0.1c6.7,9.2,14.5,17.6,23.4,25c7.3,6.1,12.9,11.3,17,15.8l1.1,1.2c14.8,16.1,20.4,22.1,38.4,52.3
	l1.9,3.1l1.9-3.1c18-30.3,23.6-36.3,38.4-52.3l1.1-1.2c4.2-4.5,9.7-9.7,17-15.8c8.9-7.4,16.7-15.8,23.4-25l0.1-0.1
	c0.5-0.7,4.6-6.1,7.4-14.1c1.9-5.4,2.8-10.9,2.8-16.3C430.7,272.8,429.9,267.6,428.1,262.7z"/>
<path fill="#E30917" d="M428.1,591.5c-2-5.5-5.1-10.6-9.2-15c-7.3-7.9-17.5-13.1-28.6-14.7c-2.2-0.3-4.4-0.5-6.5-0.5
	c-14.1,0-26.7,7.1-36.6,20.4c-4.1,5.6-6.9,11.1-8.7,15c-1.7-3.9-4.5-9.4-8.7-15c-9.9-13.4-22.6-20.4-36.6-20.4
	c-2.1,0-4.3,0.2-6.5,0.5c-11.1,1.6-21.3,6.8-28.6,14.7c-4.1,4.4-7.2,9.5-9.2,15c-1.8,4.9-2.6,10-2.5,15.3c0,5.4,0.9,10.9,2.8,16.3
	c2.8,8,6.8,13.4,7.4,14.1l0.1,0.1c6.7,9.2,14.5,17.6,23.4,25c7.3,6.1,12.9,11.3,17,15.8l1.1,1.2c14.8,16.1,20.4,22.1,38.4,52.3
	l1.9,3.1l1.9-3.1c18-30.3,23.6-36.3,38.4-52.3l1.1-1.2c4.2-4.5,9.7-9.7,17-15.8c8.9-7.4,16.7-15.8,23.4-25l0.1-0.1
	c0.5-0.7,4.6-6.1,7.4-14.1c1.9-5.4,2.8-10.9,2.8-16.3C430.7,601.5,429.9,596.4,428.1,591.5z"/>
<path fill="#E30917" d="M831,591.5c-2-5.5-5.1-10.6-9.2-15c-7.3-7.9-17.5-13.1-28.6-14.7c-2.2-0.3-4.4-0.5-6.5-0.5
	c-14.1,0-26.7,7.1-36.6,20.4c-4.1,5.6-6.9,11.1-8.7,15c-1.7-3.9-4.5-9.4-8.7-15c-9.9-13.4-22.6-20.4-36.6-20.4
	c-2.1,0-4.3,0.2-6.5,0.5c-11.1,1.6-21.3,6.8-28.6,14.7c-4.1,4.4-7.2,9.5-9.2,15c-1.8,4.9-2.6,10-2.5,15.3c0,5.4,0.9,10.9,2.8,16.3
	c2.8,8,6.8,13.4,7.4,14.1l0.1,0.1c6.7,9.2,14.5,17.6,23.4,25c7.3,6.1,12.9,11.3,17,15.8l1.1,1.2c14.8,16.1,20.4,22.1,38.4,52.3
	l1.9,3.1l1.9-3.1c18-30.3,23.6-36.3,38.4-52.3l1.1-1.2c4.2-4.5,9.7-9.7,17-15.8c8.9-7.4,16.7-15.8,23.4-25l0.1-0.1
	c0.5-0.7,4.6-6.1,7.4-14.1c1.9-5.4,2.8-10.9,2.8-16.3C833.6,601.5,832.8,596.4,831,591.5z"/>
<path fill="#E30917" d="M831,262.7c-2-5.5-5.1-10.6-9.2-15c-7.3-7.9-17.5-13.1-28.6-14.7c-2.2-0.3-4.4-0.5-6.5-0.5
	c-14.1,0-26.7,7.1-36.6,20.4c-4.1,5.6-6.9,11.1-8.7,15c-1.7-3.9-4.5-9.4-8.7-15c-9.9-13.4-22.6-20.4-36.6-20.4
	c-2.1,0-4.3,0.2-6.5,0.5c-11.1,1.6-21.3,6.8-28.6,14.7c-4.1,4.4-7.2,9.5-9.2,15c-1.8,4.9-2.6,10-2.5,15.3c0,5.4,0.9,10.9,2.8,16.3
	c2.8,8,6.8,13.4,7.4,14.1l0.1,0.1c6.7,9.2,14.5,17.6,23.4,25c7.3,6.1,12.9,11.3,17,15.8l1.1,1.2c14.8,16.1,20.4,22.1,38.4,52.3
	l1.9,3.1l1.9-3.1c18-30.3,23.6-36.3,38.4-52.3l1.1-1.2c4.2-4.5,9.7-9.7,17-15.8c8.9-7.4,16.7-15.8,23.4-25l0.1-0.1
	c0.5-0.7,4.6-6.1,7.4-14.1c1.9-5.4,2.8-10.9,2.8-16.3C833.6,272.8,832.8,267.6,831,262.7z"/>
<path fill="#E30917" d="M629.6,427.1c-2-5.5-5.1-10.6-9.2-15c-7.3-7.9-17.5-13.1-28.6-14.7c-2.2-0.3-4.4-0.5-6.5-0.5
	c-14.1,0-26.7,7.1-36.6,20.4c-4.1,5.6-6.9,11.1-8.7,15c-1.7-3.9-4.5-9.4-8.7-15c-9.9-13.4-22.6-20.4-36.6-20.4
	c-2.1,0-4.3,0.2-6.5,0.5c-11.1,1.6-21.3,6.8-28.6,14.7c-4.1,4.4-7.2,9.5-9.2,15c-1.8,4.9-2.6,10-2.5,15.3c0,5.4,0.9,10.9,2.8,16.3
	c2.8,8,6.8,13.4,7.4,14.1l0.1,0.1c6.7,9.2,14.5,17.6,23.4,25c7.3,6.1,12.9,11.3,17,15.8l1.1,1.2c14.8,16.1,20.4,22.1,38.4,52.3
	l1.9,3.1l1.9-3.1c18-30.3,23.6-36.3,38.4-52.3l1.1-1.2c4.2-4.5,9.7-9.7,17-15.8c8.9-7.4,16.7-15.8,23.4-25l0.1-0.1
	c0.5-0.7,4.6-6.1,7.4-14.1c1.9-5.4,2.8-10.9,2.8-16.3C632.2,437.1,631.3,432,629.6,427.1z"/>
<path fill="#E30917" d="M428.1,1033.3c-2,5.5-5.1,10.6-9.2,15c-7.3,7.9-17.5,13.1-28.6,14.7c-2.2,0.3-4.4,0.5-6.5,0.5
	c-14.1,0-26.7-7.1-36.6-20.4c-4.1-5.6-6.9-11.1-8.7-15c-1.7,3.9-4.5,9.4-8.7,15c-9.9,13.4-22.6,20.4-36.6,20.4
	c-2.1,0-4.3-0.2-6.5-0.5c-11.1-1.6-21.3-6.8-28.6-14.7c-4.1-4.4-7.2-9.5-9.2-15c-1.8-4.9-2.6-10-2.5-15.3c0-5.4,0.9-10.9,2.8-16.3
	c2.8-8,6.8-13.4,7.4-14.1l0.1-0.1c6.7-9.2,14.5-17.6,23.4-25c7.3-6.1,12.9-11.3,17-15.8l1.1-1.2c14.8-16.1,20.4-22.1,38.4-52.3
	l1.9-3.1l1.9,3.1c18,30.3,23.6,36.3,38.4,52.3l1.1,1.2c4.2,4.5,9.7,9.7,17,15.8c8.9,7.4,16.7,15.8,23.4,25l0.1,0.1
	c0.5,0.7,4.6,6.1,7.4,14.1c1.9,5.4,2.8,10.9,2.8,16.3C430.7,1023.2,429.9,1028.4,428.1,1033.3z"/>
<path fill="#E30917" d="M831,1033.3c-2,5.5-5.1,10.6-9.2,15c-7.3,7.9-17.5,13.1-28.6,14.7c-2.2,0.3-4.4,0.5-6.5,0.5
	c-14.1,0-26.7-7.1-36.6-20.4c-4.1-5.6-6.9-11.1-8.7-15c-1.7,3.9-4.5,9.4-8.7,15c-9.9,13.4-22.6,20.4-36.6,20.4
	c-2.1,0-4.3-0.2-6.5-0.5c-11.1-1.6-21.3-6.8-28.6-14.7c-4.1-4.4-7.2-9.5-9.2-15c-1.8-4.9-2.6-10-2.5-15.3c0-5.4,0.9-10.9,2.8-16.3
	c2.8-8,6.8-13.4,7.4-14.1l0.1-0.1c6.7-9.2,14.5-17.6,23.4-25c7.3-6.1,12.9-11.3,17-15.8l1.1-1.2c14.8-16.1,20.4-22.1,38.4-52.3
	l1.9-3.1l1.9,3.1c18,30.3,23.6,36.3,38.4,52.3l1.1,1.2c4.2,4.5,9.7,9.7,17,15.8c8.9,7.4,16.7,15.8,23.4,25l0.1,0.1
	c0.5,0.7,4.6,6.1,7.4,14.1c1.9,5.4,2.8,10.9,2.8,16.3C833.6,1023.2,832.8,1028.4,831,1033.3z"/>
<path fill="#E30917" d="M629.6,868.9c-2,5.5-5.1,10.6-9.2,15c-7.3,7.9-17.5,13.1-28.6,14.7c-2.2,0.3-4.4,0.5-6.5,0.5
	c-14.1,0-26.7-7.1-36.6-20.4c-4.1-5.6-6.9-11.1-8.7-15c-1.7,3.9-4.5,9.4-8.7,15c-9.9,13.4-22.6,20.4-36.6,20.4
	c-2.1,0-4.3-0.2-6.5-0.5c-11.1-1.6-21.3-6.8-28.6-14.7c-4.1-4.4-7.2-9.5-9.2-15c-1.8-4.9-2.6-10-2.5-15.3c0-5.4,0.9-10.9,2.8-16.3
	c2.8-8,6.8-13.4,7.4-14.1l0.1-0.1c6.7-9.2,14.5-17.6,23.4-25c7.3-6.1,12.9-11.3,17-15.8l1.1-1.2c14.8-16.1,20.4-22.1,38.4-52.3
	l1.9-3.1l1.9,3.1c18,30.3,23.6,36.3,38.4,52.3l1.1,1.2c4.2,4.5,9.7,9.7,17,15.8c8.9,7.4,16.7,15.8,23.4,25l0.1,0.1
	c0.5,0.7,4.6,6.1,7.4,14.1c1.9,5.4,2.8,10.9,2.8,16.3C632.2,858.9,631.3,864,629.6,868.9z"/>
<path fill="#E30917" d="M158.5,227.8c-1.2-3.2-3-6.2-5.4-8.8c-4.3-4.6-10.2-7.7-16.7-8.6c-1.3-0.2-2.6-0.3-3.8-0.3
	c-15.5,0-23.6,14.3-26.5,20.7c-2.9-6.4-11-20.7-26.5-20.7c-1.2,0-2.5,0.1-3.8,0.3c-6.5,0.9-12.4,4-16.7,8.6
	c-2.4,2.6-4.2,5.5-5.4,8.8c-5,13.7,4.1,25.6,4.4,26.1l0.1,0.1c3.9,5.4,8.5,10.3,13.7,14.6c4.3,3.6,7.5,6.6,10,9.2l0.7,0.7
	c8.7,9.4,11.9,12.9,22.5,30.6l1.1,1.8l1.1-1.8c10.5-17.7,13.8-21.2,22.5-30.6l0.7-0.7c2.4-2.6,5.7-5.7,10-9.2
	c5.2-4.3,9.8-9.3,13.7-14.6l0,0C154.4,253.4,163.5,241.5,158.5,227.8z"/>
<path fill="#E30917" d="M921.5,1068.2c1.2,3.2,3,6.2,5.4,8.8c4.3,4.6,10.2,7.7,16.7,8.6c1.3,0.2,2.6,0.3,3.8,0.3
	c15.5,0,23.6-14.3,26.5-20.7c2.9,6.4,11,20.7,26.5,20.7c1.2,0,2.5-0.1,3.8-0.3c6.5-0.9,12.4-4,16.7-8.6c2.4-2.6,4.2-5.5,5.4-8.8
	c5-13.7-4.1-25.6-4.4-26.1l-0.1-0.1c-3.9-5.4-8.5-10.3-13.7-14.6c-4.3-3.6-7.5-6.6-10-9.2l-0.7-0.7c-8.7-9.4-11.9-12.9-22.5-30.6
	l-1.1-1.8l-1.1,1.8c-10.5,17.7-13.8,21.2-22.5,30.6l-0.7,0.7c-2.4,2.6-5.7,5.7-10,9.2c-5.2,4.3-9.8,9.3-13.7,14.6l0,0
	C925.6,1042.6,916.5,1054.5,921.5,1068.2z"/>
<path fill="#E30917" d="M1017.6,1158.7c0,7.4-2,14-5.9,19.8c-3.9,5.8-9.2,10.3-15.9,13.6c7.8,3.3,13.9,8.2,18.4,14.6
	c4.5,6.4,6.8,13.7,6.8,21.8c0,12.9-4.3,23.1-13,30.7c-8.7,7.6-20.1,11.4-34.3,11.4c-14.3,0-25.8-3.8-34.4-11.5
	c-8.6-7.7-12.9-17.9-12.9-30.7c0-8,2.2-15.3,6.6-21.8c4.4-6.5,10.5-11.4,18.2-14.7c-6.6-3.3-11.8-7.8-15.6-13.6
	c-3.8-5.8-5.7-12.4-5.7-19.7c0-12.5,4-22.5,12.1-29.8c8-7.4,18.6-11,31.8-11c13.1,0,23.6,3.7,31.7,11
	C1013.6,1136.3,1017.6,1146.2,1017.6,1158.7z M1002.2,1228.1c0-8.3-2.6-15.1-7.9-20.3c-5.3-5.2-12.2-7.9-20.7-7.9
	c-8.5,0-15.3,2.6-20.5,7.8c-5.1,5.2-7.7,12-7.7,20.4c0,8.4,2.5,15.1,7.5,19.9c5,4.8,12,7.3,20.9,7.3c8.9,0,15.8-2.4,20.8-7.3
	C999.7,1243.1,1002.2,1236.4,1002.2,1228.1z M973.8,1133.4c-7.4,0-13.4,2.3-18,6.9c-4.6,4.6-6.9,10.8-6.9,18.7
	c0,7.6,2.3,13.7,6.8,18.3c4.5,4.7,10.6,7,18.1,7c7.6,0,13.6-2.3,18.1-7c4.5-4.7,6.8-10.8,6.8-18.3s-2.3-13.7-7-18.5
	C987,1135.8,981.1,1133.4,973.8,1133.4z"/>
<path fill="#E30917" d="M150,66.2c0,7.4-2,14-5.9,19.8c-3.9,5.8-9.2,10.3-15.9,13.6c7.8,3.3,13.9,8.2,18.4,14.6
	c4.5,6.4,6.8,13.7,6.8,21.8c0,12.9-4.3,23.1-13,30.7c-8.7,7.6-20.1,11.4-34.3,11.4c-14.3,0-25.8-3.8-34.4-11.5
	c-8.6-7.7-12.9-17.9-12.9-30.7c0-8,2.2-15.3,6.6-21.8c4.4-6.5,10.5-11.4,18.2-14.7c-6.6-3.3-11.8-7.8-15.6-13.6
	c-3.8-5.8-5.7-12.4-5.7-19.7c0-12.5,4-22.5,12.1-29.8c8-7.4,18.6-11,31.8-11c13.1,0,23.6,3.7,31.7,11C145.9,43.7,150,53.7,150,66.2z
	 M134.6,135.5c0-8.3-2.6-15.1-7.9-20.3c-5.3-5.2-12.2-7.9-20.7-7.9c-8.5,0-15.3,2.6-20.5,7.8c-5.1,5.2-7.7,12-7.7,20.4
	c0,8.4,2.5,15.1,7.5,19.9c5,4.8,12,7.3,20.9,7.3c8.9,0,15.8-2.4,20.8-7.3C132,150.5,134.6,143.9,134.6,135.5z M106.2,40.9
	c-7.4,0-13.4,2.3-18,6.9c-4.6,4.6-6.9,10.8-6.9,18.7c0,7.6,2.3,13.7,6.8,18.3c4.5,4.7,10.6,7,18.1,7c7.6,0,13.6-2.3,18.1-7
	c4.5-4.7,6.8-10.8,6.8-18.3s-2.3-13.7-7-18.5C119.3,43.2,113.4,40.9,106.2,40.9z"/>
</svg>
