<?xml version="1.0" encoding="utf-8"?>
<!-- Generator: Adobe Illustrator 18.1.0, SVG Export Plug-In . SVG Version: 6.00 Build 0)  -->
<svg version="1.1" id="Layer_10" xmlns="http://www.w3.org/2000/svg" xmlns:xlink="http://www.w3.org/1999/xlink" x="0px" y="0px"
	 viewBox="0 0 1080 1296" enable-background="new 0 0 1080 1296" xml:space="preserve">
<path fill="#E30917" d="M158.5,227.8c-1.2-3.2-3-6.2-5.4-8.8c-4.3-4.6-10.2-7.7-16.7-8.6c-1.3-0.2-2.6-0.3-3.8-0.3
	c-15.5,0-23.6,14.3-26.5,20.7c-2.9-6.4-11-20.7-26.5-20.7c-1.2,0-2.5,0.1-3.8,0.3c-6.5,0.9-12.4,4-16.7,8.6
	c-2.4,2.6-4.2,5.5-5.4,8.8c-5,13.7,4.1,25.6,4.4,26.1l0.1,0.1c3.9,5.4,8.5,10.3,13.7,14.6c4.3,3.6,7.5,6.6,10,9.2l0.7,0.7
	c8.7,9.4,11.9,12.9,22.5,30.6l1.1,1.8l1.1-1.8c10.5-17.7,13.8-21.2,22.5-30.6l0.7-0.7c2.4-2.6,5.7-5.7,10-9.2
	c5.2-4.3,9.8-9.3,13.7-14.6l0,0C154.4,253.4,163.5,241.5,158.5,227.8z"/>
<path fill="#E30917" d="M134,110.8c-4,4.7-8.7,8.5-14.2,11.4c-5.5,2.9-11.5,4.3-18.1,4.3c-8.6,0-16.1-2.1-22.4-6.3
	c-6.4-4.2-11.3-10.2-14.8-17.8c-3.5-7.7-5.2-16.1-5.2-25.4c0-10,1.9-18.9,5.7-26.9c3.8-8,9.2-14.1,16.1-18.3
	c7-4.2,15.1-6.3,24.3-6.3c14.7,0,26.3,5.5,34.8,16.5c8.5,11,12.7,26,12.7,45.1v5.5c0,29-5.7,50.1-17.2,63.5
	c-11.5,13.3-28.7,20.2-51.9,20.5h-3.7v-16.1h4c15.6-0.3,27.6-4.3,36-12.2S133.2,127.8,134,110.8z M104.8,110.8
	c6.3,0,12.2-1.9,17.5-5.8c5.4-3.9,9.3-8.7,11.7-14.4V83c0-12.4-2.7-22.5-8.1-30.3c-5.4-7.8-12.2-11.7-20.5-11.7
	c-8.3,0-15,3.2-20,9.6c-5,6.4-7.6,14.8-7.6,25.2c0,10.2,2.4,18.5,7.3,25.1C90.1,107.5,96.7,110.8,104.8,110.8z"/>
<path fill="#E30917" d="M921.5,1068.2c1.2,3.2,3,6.2,5.4,8.8c4.3,4.6,10.2,7.7,16.7,8.6c1.3,0.2,2.6,0.3,3.8,0.3
	c15.5,0,23.6-14.3,26.5-20.7c2.9,6.4,11,20.7,26.5,20.7c1.2,0,2.5-0.1,3.8-0.3c6.5-0.9,12.4-4,16.7-8.6c2.4-2.6,4.2-5.5,5.4-8.8
	c5-13.7-4.1-25.6-4.4-26.1l-0.1-0.1c-3.9-5.4-8.5-10.3-13.7-14.6c-4.3-3.6-7.5-6.6-10-9.2l-0.7-0.7c-8.7-9.4-11.9-12.9-22.5-30.6
	l-1.1-1.8l-1.1,1.8c-10.5,17.7-13.8,21.2-22.5,30.6l-0.7,0.7c-2.4,2.6-5.7,5.7-10,9.2c-5.2,4.3-9.8,9.3-13.7,14.6l0,0
	C925.6,1042.6,916.5,1054.5,921.5,1068.2z"/>
<path fill="#E30917" d="M946,1185.2c4-4.7,8.7-8.5,14.2-11.4c5.5-2.9,11.5-4.3,18.1-4.3c8.6,0,16.1,2.1,22.4,6.3
	c6.4,4.2,11.3,10.2,14.8,17.8c3.5,7.7,5.2,16.1,5.2,25.4c0,10-1.9,18.9-5.7,26.9c-3.8,8-9.2,14.1-16.1,18.3
	c-7,4.2-15.1,6.3-24.3,6.3c-14.7,0-26.3-5.5-34.8-16.5c-8.5-11-12.7-26-12.7-45.1v-5.5c0-29,5.7-50.1,17.2-63.5
	c11.5-13.3,28.7-20.2,51.9-20.5h3.7v16.1h-4c-15.6,0.3-27.6,4.3-36,12.2S946.8,1168.2,946,1185.2z M975.2,1185.2
	c-6.3,0-12.2,1.9-17.5,5.8c-5.4,3.9-9.3,8.7-11.7,14.4v7.6c0,12.4,2.7,22.5,8.1,30.3c5.4,7.8,12.2,11.7,20.5,11.7
	c8.3,0,15-3.2,20-9.6c5-6.4,7.6-14.8,7.6-25.2c0-10.2-2.4-18.5-7.3-25.1C989.9,1188.5,983.3,1185.2,975.2,1185.2z"/>
<path fill="#E30917" d="M428.1,262.7c-2-5.5-5.1-10.6-9.2-15c-7.3-7.9-17.5-13.1-28.6-14.7c-2.2-0.3-4.4-0.5-6.5-0.5
	c-14.1,0-26.7,7.1-36.6,20.4c-4.1,5.6-6.9,11.1-8.7,15c-1.7-3.9-4.5-9.4-8.7-15c-9.9-13.4-22.6-20.4-36.6-20.4
	c-2.1,0-4.3,0.2-6.5,0.5c-11.1,1.6-21.3,6.8-28.6,14.7c-4.1,4.4-7.2,9.5-9.2,15c-1.8,4.9-2.6,10-2.5,15.3c0,5.4,0.9,10.9,2.8,16.3
	c2.8,8,6.8,13.4,7.4,14.1l0.1,0.1c6.7,9.2,14.5,17.6,23.4,25c7.3,6.1,12.9,11.3,17,15.8l1.1,1.2c14.8,16.1,20.4,22.1,38.4,52.3
	l1.9,3.1l1.9-3.1c18-30.3,23.6-36.3,38.4-52.3l1.1-1.2c4.2-4.5,9.7-9.7,17-15.8c8.9-7.4,16.7-15.8,23.4-25l0.1-0.1
	c0.5-0.7,4.6-6.1,7.4-14.1c1.9-5.4,2.8-10.9,2.8-16.3C430.7,272.8,429.9,267.6,428.1,262.7z"/>
<path fill="#E30917" d="M428.1,485.3c-2-5.5-5.1-10.6-9.2-15c-7.3-7.9-17.5-13.1-28.6-14.7c-2.2-0.3-4.4-0.5-6.5-0.5
	c-14.1,0-26.7,7.1-36.6,20.4c-4.1,5.6-6.9,11.1-8.7,15c-1.7-3.9-4.5-9.4-8.7-15c-9.9-13.4-22.6-20.4-36.6-20.4
	c-2.1,0-4.3,0.2-6.5,0.5c-11.1,1.6-21.3,6.8-28.6,14.7c-4.1,4.4-7.2,9.5-9.2,15c-1.8,4.9-2.6,10-2.5,15.3c0,5.4,0.9,10.9,2.8,16.3
	c2.8,8,6.8,13.4,7.4,14.1l0.1,0.1c6.7,9.2,14.5,17.6,23.4,25c7.3,6.1,12.9,11.3,17,15.8l1.1,1.2c14.8,16.1,20.4,22.1,38.4,52.3
	l1.9,3.1l1.9-3.1c18-30.3,23.6-36.3,38.4-52.3l1.1-1.2c4.2-4.5,9.7-9.7,17-15.8c8.9-7.4,16.7-15.8,23.4-25l0.1-0.1
	c0.5-0.7,4.6-6.1,7.4-14.1c1.9-5.4,2.8-10.9,2.8-16.3C430.7,495.4,429.9,490.2,428.1,485.3z"/>
<path fill="#E30917" d="M831,485.3c-2-5.5-5.1-10.6-9.2-15c-7.3-7.9-17.5-13.1-28.6-14.7c-2.2-0.3-4.4-0.5-6.5-0.5
	c-14.1,0-26.7,7.1-36.6,20.4c-4.1,5.6-6.9,11.1-8.7,15c-1.7-3.9-4.5-9.4-8.7-15c-9.9-13.4-22.6-20.4-36.6-20.4
	c-2.1,0-4.3,0.2-6.5,0.5c-11.1,1.6-21.3,6.8-28.6,14.7c-4.1,4.4-7.2,9.5-9.2,15c-1.8,4.9-2.6,10-2.5,15.3c0,5.4,0.9,10.9,2.8,16.3
	c2.8,8,6.8,13.4,7.4,14.1l0.1,0.1c6.7,9.2,14.5,17.6,23.4,25c7.3,6.1,12.9,11.3,17,15.8l1.1,1.2c14.8,16.1,20.4,22.1,38.4,52.3
	l1.9,3.1l1.9-3.1c18-30.3,23.6-36.3,38.4-52.3l1.1-1.2c4.2-4.5,9.7-9.7,17-15.8c8.9-7.4,16.7-15.8,23.4-25l0.1-0.1
	c0.5-0.7,4.6-6.1,7.4-14.1c1.9-5.4,2.8-10.9,2.8-16.3C833.6,495.4,832.8,490.2,831,485.3z"/>
<path fill="#E30917" d="M831,262.7c-2-5.5-5.1-10.6-9.2-15c-7.3-7.9-17.5-13.1-28.6-14.7c-2.2-0.3-4.4-0.5-6.5-0.5
	c-14.1,0-26.7,7.1-36.6,20.4c-4.1,5.6-6.9,11.1-8.7,15c-1.7-3.9-4.5-9.4-8.7-15c-9.9-13.4-22.6-20.4-36.6-20.4
	c-2.1,0-4.3,0.2-6.5,0.5c-11.1,1.6-21.3,6.8-28.6,14.7c-4.1,4.4-7.2,9.5-9.2,15c-1.8,4.9-2.6,10-2.5,15.3c0,5.4,0.9,10.9,2.8,16.3
	c2.8,8,6.8,13.4,7.4,14.1l0.1,0.1c6.7,9.2,14.5,17.6,23.4,25c7.3,6.1,12.9,11.3,17,15.8l1.1,1.2c14.8,16.1,20.4,22.1,38.4,52.3
	l1.9,3.1l1.9-3.1c18-30.3,23.6-36.3,38.4-52.3l1.1-1.2c4.2-4.5,9.7-9.7,17-15.8c8.9-7.4,16.7-15.8,23.4-25l0.1-0.1
	c0.5-0.7,4.6-6.1,7.4-14.1c1.9-5.4,2.8-10.9,2.8-16.3C833.6,272.8,832.8,267.6,831,262.7z"/>
<path fill="#E30917" d="M629.6,591.5c-2-5.5-5.1-10.6-9.2-15c-7.3-7.9-17.5-13.1-28.6-14.7c-2.2-0.3-4.4-0.5-6.5-0.5
	c-14.1,0-26.7,7.1-36.6,20.4c-4.1,5.6-6.9,11.1-8.7,15c-1.7-3.9-4.5-9.4-8.7-15c-9.9-13.4-22.6-20.4-36.6-20.4
	c-2.1,0-4.3,0.2-6.5,0.5c-11.1,1.6-21.3,6.8-28.6,14.7c-4.1,4.4-7.2,9.5-9.2,15c-1.8,4.9-2.6,10-2.5,15.3c0,5.4,0.9,10.9,2.8,16.3
	c2.8,8,6.8,13.4,7.4,14.1l0.1,0.1c6.7,9.2,14.5,17.6,23.4,25c7.3,6.1,12.9,11.3,17,15.8l1.1,1.2c14.8,16.1,20.4,22.1,38.4,52.3
	l1.9,3.1l1.9-3.1c18-30.3,23.6-36.3,38.4-52.3l1.1-1.2c4.2-4.5,9.7-9.7,17-15.8c8.9-7.4,16.7-15.8,23.4-25l0.1-0.1
	c0.5-0.7,4.6-6.1,7.4-14.1c1.9-5.4,2.8-10.9,2.8-16.3C632.2,601.5,631.3,596.4,629.6,591.5z"/>
<path fill="#E30917" d="M428.1,1033.3c-2,5.5-5.1,10.6-9.2,15c-7.3,7.9-17.5,13.1-28.6,14.7c-2.2,0.3-4.4,0.5-6.5,0.5
	c-14.1,0-26.7-7.1-36.6-20.4c-4.1-5.6-6.9-11.1-8.7-15c-1.7,3.9-4.5,9.4-8.7,15c-9.9,13.4-22.6,20.4-36.6,20.4
	c-2.1,0-4.3-0.2-6.5-0.5c-11.1-1.6-21.3-6.8-28.6-14.7c-4.1-4.4-7.2-9.5-9.2-15c-1.8-4.9-2.6-10-2.5-15.3c0-5.4,0.9-10.9,2.8-16.3
	c2.8-8,6.8-13.4,7.4-14.1l0.1-0.1c6.7-9.2,14.5-17.6,23.4-25c7.3-6.1,12.9-11.3,17-15.8l1.1-1.2c14.8-16.1,20.4-22.1,38.4-52.3
	l1.9-3.1l1.9,3.1c18,30.3,23.6,36.3,38.4,52.3l1.1,1.2c4.2,4.5,9.7,9.7,17,15.8c8.9,7.4,16.7,15.8,23.4,25l0.1,0.1
	c0.5,0.7,4.6,6.1,7.4,14.1c1.9,5.4,2.8,10.9,2.8,16.3C430.7,1023.2,429.9,1028.4,428.1,1033.3z"/>
<path fill="#E30917" d="M428.1,810.7c-2,5.5-5.1,10.6-9.2,15c-7.3,7.9-17.5,13.1-28.6,14.7c-2.2,0.3-4.4,0.5-6.5,0.5
	c-14.1,0-26.7-7.1-36.6-20.4c-4.1-5.6-6.9-11.1-8.7-15c-1.7,3.9-4.5,9.4-8.7,15c-9.9,13.4-22.6,20.4-36.6,20.4
	c-2.1,0-4.3-0.2-6.5-0.5c-11.1-1.6-21.3-6.8-28.6-14.7c-4.1-4.4-7.2-9.5-9.2-15c-1.8-4.9-2.6-10-2.5-15.3c0-5.4,0.9-10.9,2.8-16.3
	c2.8-8,6.8-13.4,7.4-14.1l0.1-0.1c6.7-9.2,14.5-17.6,23.4-25c7.3-6.1,12.9-11.3,17-15.8l1.1-1.2c14.8-16.1,20.4-22.1,38.4-52.3
	l1.9-3.1l1.9,3.1c18,30.3,23.6,36.3,38.4,52.3l1.1,1.2c4.2,4.5,9.7,9.7,17,15.8c8.9,7.4,16.7,15.8,23.4,25l0.1,0.1
	c0.5,0.7,4.6,6.1,7.4,14.1c1.9,5.4,2.8,10.9,2.8,16.3C430.7,800.6,429.9,805.8,428.1,810.7z"/>
<path fill="#E30917" d="M831,810.7c-2,5.5-5.1,10.6-9.2,15c-7.3,7.9-17.5,13.1-28.6,14.7c-2.2,0.3-4.4,0.5-6.5,0.5
	c-14.1,0-26.7-7.1-36.6-20.4c-4.1-5.6-6.9-11.1-8.7-15c-1.7,3.9-4.5,9.4-8.7,15c-9.9,13.4-22.6,20.4-36.6,20.4
	c-2.1,0-4.3-0.2-6.5-0.5c-11.1-1.6-21.3-6.8-28.6-14.7c-4.1-4.4-7.2-9.5-9.2-15c-1.8-4.9-2.6-10-2.5-15.3c0-5.4,0.9-10.9,2.8-16.3
	c2.8-8,6.8-13.4,7.4-14.1l0.1-0.1c6.7-9.2,14.5-17.6,23.4-25c7.3-6.1,12.9-11.3,17-15.8l1.1-1.2c14.8-16.1,20.4-22.1,38.4-52.3
	l1.9-3.1l1.9,3.1c18,30.3,23.6,36.3,38.4,52.3l1.1,1.2c4.2,4.5,9.7,9.7,17,15.8c8.9,7.4,16.7,15.8,23.4,25l0.1,0.1
	c0.5,0.7,4.6,6.1,7.4,14.1c1.9,5.4,2.8,10.9,2.8,16.3C833.6,800.6,832.8,805.8,831,810.7z"/>
<path fill="#E30917" d="M831,1033.3c-2,5.5-5.1,10.6-9.2,15c-7.3,7.9-17.5,13.1-28.6,14.7c-2.2,0.3-4.4,0.5-6.5,0.5
	c-14.1,0-26.7-7.1-36.6-20.4c-4.1-5.6-6.9-11.1-8.7-15c-1.7,3.9-4.5,9.4-8.7,15c-9.9,13.4-22.6,20.4-36.6,20.4
	c-2.1,0-4.3-0.2-6.5-0.5c-11.1-1.6-21.3-6.8-28.6-14.7c-4.1-4.4-7.2-9.5-9.2-15c-1.8-4.9-2.6-10-2.5-15.3c0-5.4,0.9-10.9,2.8-16.3
	c2.8-8,6.8-13.4,7.4-14.1l0.1-0.1c6.7-9.2,14.5-17.6,23.4-25c7.3-6.1,12.9-11.3,17-15.8l1.1-1.2c14.8-16.1,20.4-22.1,38.4-52.3
	l1.9-3.1l1.9,3.1c18,30.3,23.6,36.3,38.4,52.3l1.1,1.2c4.2,4.5,9.7,9.7,17,15.8c8.9,7.4,16.7,15.8,23.4,25l0.1,0.1
	c0.5,0.7,4.6,6.1,7.4,14.1c1.9,5.4,2.8,10.9,2.8,16.3C833.6,1023.2,832.8,1028.4,831,1033.3z"/>
</svg>
