<?xml version="1.0" encoding="utf-8"?>
<!-- Generator: Adobe Illustrator 18.1.0, SVG Export Plug-In . SVG Version: 6.00 Build 0)  -->
<svg version="1.1" id="Layer_10" xmlns="http://www.w3.org/2000/svg" xmlns:xlink="http://www.w3.org/1999/xlink" x="0px" y="0px"
	 viewBox="0 0 1080 1296" enable-background="new 0 0 1080 1296" xml:space="preserve">
<path fill="#E30917" d="M158.5,227.8c-1.2-3.2-3-6.2-5.4-8.8c-4.3-4.6-10.2-7.7-16.7-8.6c-1.3-0.2-2.6-0.3-3.8-0.3
	c-15.5,0-23.6,14.3-26.5,20.7c-2.9-6.4-11-20.7-26.5-20.7c-1.2,0-2.5,0.1-3.8,0.3c-6.5,0.9-12.4,4-16.7,8.6
	c-2.4,2.6-4.2,5.5-5.4,8.8c-5,13.7,4.1,25.6,4.4,26.1l0.1,0.1c3.9,5.4,8.5,10.3,13.7,14.6c4.3,3.6,7.5,6.6,10,9.2l0.7,0.7
	c8.7,9.4,11.9,12.9,22.5,30.6l1.1,1.8l1.1-1.8c10.5-17.7,13.8-21.2,22.5-30.6l0.7-0.7c2.4-2.6,5.7-5.7,10-9.2
	c5.2-4.3,9.8-9.3,13.7-14.6l0,0C154.4,253.4,163.5,241.5,158.5,227.8z"/>
<path fill="#E30917" d="M68.7,158.5h19.5v17.5H68.7v0h-19v0H30.2v-17.5h19.5V53.7l-19.5,7.1V40.1l35.6-13.4h3V158.5z M182.1,88.2
	v24.5c0,22.1-3.8,38.6-11.3,49.3c-7.6,10.8-19.4,16.1-35.4,16.1c-15.9,0-27.6-5.3-35.2-15.8c-7.6-10.5-11.6-26.2-11.8-47.1V90
	c0-21.9,3.8-38.1,11.3-48.7c7.6-10.6,19.4-15.9,35.5-15.9c16,0,27.8,5.1,35.3,15.4C178,51,181.9,66.8,182.1,88.2z M163.2,86.8
	c0-16-2.2-27.7-6.7-35c-4.5-7.3-11.6-11-21.3-11c-9.7,0-16.7,3.6-21.1,10.9c-4.4,7.3-6.7,18.5-6.8,33.6v30.2c0,16.1,2.3,27.9,7,35.6
	c4.7,7.7,11.7,11.5,21.2,11.5c9.3,0,16.3-3.6,20.8-10.8c4.5-7.2,6.9-18.6,7.1-34.1V86.8z"/>
<path fill="#E30917" d="M921.5,1068.2c1.2,3.2,3,6.2,5.4,8.8c4.3,4.6,10.2,7.7,16.7,8.6c1.3,0.2,2.6,0.3,3.8,0.3
	c15.5,0,23.6-14.3,26.5-20.7c2.9,6.4,11,20.7,26.5,20.7c1.2,0,2.5-0.1,3.8-0.3c6.5-0.9,12.4-4,16.7-8.6c2.4-2.6,4.2-5.5,5.4-8.8
	c5-13.7-4.1-25.6-4.4-26.1l-0.1-0.1c-3.9-5.4-8.5-10.3-13.7-14.6c-4.3-3.6-7.5-6.6-10-9.2l-0.7-0.7c-8.7-9.4-11.9-12.9-22.5-30.6
	l-1.1-1.8l-1.1,1.8c-10.5,17.7-13.8,21.2-22.5,30.6l-0.7,0.7c-2.4,2.6-5.7,5.7-10,9.2c-5.2,4.3-9.8,9.3-13.7,14.6l0,0
	C925.6,1042.6,916.5,1054.5,921.5,1068.2z"/>
<path fill="#E30917" d="M1011.3,1137.5h-19.5v-17.5h19.5v0h19v0h19.5v17.5h-19.5v104.8l19.5-7.1v20.7l-35.6,13.4h-3V1137.5z
	 M897.9,1207.8v-24.5c0-22.1,3.8-38.6,11.3-49.3c7.6-10.8,19.4-16.1,35.4-16.1c15.9,0,27.6,5.3,35.2,15.8
	c7.6,10.5,11.6,26.2,11.8,47.1v25.2c0,21.9-3.8,38.1-11.3,48.7c-7.6,10.6-19.4,15.9-35.5,15.9c-16,0-27.8-5.1-35.3-15.4
	C902,1245,898.1,1229.2,897.9,1207.8z M916.8,1209.2c0,16,2.2,27.7,6.7,35c4.5,7.3,11.6,11,21.3,11c9.7,0,16.7-3.6,21.1-10.9
	c4.4-7.3,6.7-18.5,6.8-33.6v-30.2c0-16.1-2.3-27.9-7-35.6c-4.7-7.7-11.7-11.5-21.2-11.5c-9.3,0-16.3,3.6-20.8,10.8
	c-4.5,7.2-6.9,18.6-7.1,34.1V1209.2z"/>
<path fill="#E30917" d="M428.1,262.7c-2-5.5-5.1-10.6-9.2-15c-7.3-7.9-17.5-13.1-28.6-14.7c-2.2-0.3-4.4-0.5-6.5-0.5
	c-14.1,0-26.7,7.1-36.6,20.4c-4.1,5.6-6.9,11.1-8.7,15c-1.7-3.9-4.5-9.4-8.7-15c-9.9-13.4-22.6-20.4-36.6-20.4
	c-2.1,0-4.3,0.2-6.5,0.5c-11.1,1.6-21.3,6.8-28.6,14.7c-4.1,4.4-7.2,9.5-9.2,15c-1.8,4.9-2.6,10-2.5,15.3c0,5.4,0.9,10.9,2.8,16.3
	c2.8,8,6.8,13.4,7.4,14.1l0.1,0.1c6.7,9.2,14.5,17.6,23.4,25c7.3,6.1,12.9,11.3,17,15.8l1.1,1.2c14.8,16.1,20.4,22.1,38.4,52.3
	l1.9,3.1l1.9-3.1c18-30.3,23.6-36.3,38.4-52.3l1.1-1.2c4.2-4.5,9.7-9.7,17-15.8c8.9-7.4,16.7-15.8,23.4-25l0.1-0.1
	c0.5-0.7,4.6-6.1,7.4-14.1c1.9-5.4,2.8-10.9,2.8-16.3C430.7,272.8,429.9,267.6,428.1,262.7z"/>
<path fill="#E30917" d="M428.1,485.3c-2-5.5-5.1-10.6-9.2-15c-7.3-7.9-17.5-13.1-28.6-14.7c-2.2-0.3-4.4-0.5-6.5-0.5
	c-14.1,0-26.7,7.1-36.6,20.4c-4.1,5.6-6.9,11.1-8.7,15c-1.7-3.9-4.5-9.4-8.7-15c-9.9-13.4-22.6-20.4-36.6-20.4
	c-2.1,0-4.3,0.2-6.5,0.5c-11.1,1.6-21.3,6.8-28.6,14.7c-4.1,4.4-7.2,9.5-9.2,15c-1.8,4.9-2.6,10-2.5,15.3c0,5.4,0.9,10.9,2.8,16.3
	c2.8,8,6.8,13.4,7.4,14.1l0.1,0.1c6.7,9.2,14.5,17.6,23.4,25c7.3,6.1,12.9,11.3,17,15.8l1.1,1.2c14.8,16.1,20.4,22.1,38.4,52.3
	l1.9,3.1l1.9-3.1c18-30.3,23.6-36.3,38.4-52.3l1.1-1.2c4.2-4.5,9.7-9.7,17-15.8c8.9-7.4,16.7-15.8,23.4-25l0.1-0.1
	c0.5-0.7,4.6-6.1,7.4-14.1c1.9-5.4,2.8-10.9,2.8-16.3C430.7,495.4,429.9,490.2,428.1,485.3z"/>
<path fill="#E30917" d="M831,485.3c-2-5.5-5.1-10.6-9.2-15c-7.3-7.9-17.5-13.1-28.6-14.7c-2.2-0.3-4.4-0.5-6.5-0.5
	c-14.1,0-26.7,7.1-36.6,20.4c-4.1,5.6-6.9,11.1-8.7,15c-1.7-3.9-4.5-9.4-8.7-15c-9.9-13.4-22.6-20.4-36.6-20.4
	c-2.1,0-4.3,0.2-6.5,0.5c-11.1,1.6-21.3,6.8-28.6,14.7c-4.1,4.4-7.2,9.5-9.2,15c-1.8,4.9-2.6,10-2.5,15.3c0,5.4,0.9,10.9,2.8,16.3
	c2.8,8,6.8,13.4,7.4,14.1l0.1,0.1c6.7,9.2,14.5,17.6,23.4,25c7.3,6.1,12.9,11.3,17,15.8l1.1,1.2c14.8,16.1,20.4,22.1,38.4,52.3
	l1.9,3.1l1.9-3.1c18-30.3,23.6-36.3,38.4-52.3l1.1-1.2c4.2-4.5,9.7-9.7,17-15.8c8.9-7.4,16.7-15.8,23.4-25l0.1-0.1
	c0.5-0.7,4.6-6.1,7.4-14.1c1.9-5.4,2.8-10.9,2.8-16.3C833.6,495.4,832.8,490.2,831,485.3z"/>
<path fill="#E30917" d="M831,262.7c-2-5.5-5.1-10.6-9.2-15c-7.3-7.9-17.5-13.1-28.6-14.7c-2.2-0.3-4.4-0.5-6.5-0.5
	c-14.1,0-26.7,7.1-36.6,20.4c-4.1,5.6-6.9,11.1-8.7,15c-1.7-3.9-4.5-9.4-8.7-15c-9.9-13.4-22.6-20.4-36.6-20.4
	c-2.1,0-4.3,0.2-6.5,0.5c-11.1,1.6-21.3,6.8-28.6,14.7c-4.1,4.4-7.2,9.5-9.2,15c-1.8,4.9-2.6,10-2.5,15.3c0,5.4,0.9,10.9,2.8,16.3
	c2.8,8,6.8,13.4,7.4,14.1l0.1,0.1c6.7,9.2,14.5,17.6,23.4,25c7.3,6.1,12.9,11.3,17,15.8l1.1,1.2c14.8,16.1,20.4,22.1,38.4,52.3
	l1.9,3.1l1.9-3.1c18-30.3,23.6-36.3,38.4-52.3l1.1-1.2c4.2-4.5,9.7-9.7,17-15.8c8.9-7.4,16.7-15.8,23.4-25l0.1-0.1
	c0.5-0.7,4.6-6.1,7.4-14.1c1.9-5.4,2.8-10.9,2.8-16.3C833.6,272.8,832.8,267.6,831,262.7z"/>
<path fill="#E30917" d="M629.6,374c-2-5.5-5.1-10.6-9.2-15c-7.3-7.9-17.5-13.1-28.6-14.7c-2.2-0.3-4.4-0.5-6.5-0.5
	c-14.1,0-26.7,7.1-36.6,20.4c-4.1,5.6-6.9,11.1-8.7,15c-1.7-3.9-4.5-9.4-8.7-15c-9.9-13.4-22.6-20.4-36.6-20.4
	c-2.1,0-4.3,0.2-6.5,0.5c-11.1,1.6-21.3,6.8-28.6,14.7c-4.1,4.4-7.2,9.5-9.2,15c-1.8,4.9-2.6,10-2.5,15.3c0,5.4,0.9,10.9,2.8,16.3
	c2.8,8,6.8,13.4,7.4,14.1l0.1,0.1c6.7,9.2,14.5,17.6,23.4,25c7.3,6.1,12.9,11.3,17,15.8l1.1,1.2c14.8,16.1,20.4,22.1,38.4,52.3
	l1.9,3.1l1.9-3.1c18-30.3,23.6-36.3,38.4-52.3l1.1-1.2c4.2-4.5,9.7-9.7,17-15.8c8.9-7.4,16.7-15.8,23.4-25l0.1-0.1
	c0.5-0.7,4.6-6.1,7.4-14.1c1.9-5.4,2.8-10.9,2.8-16.3C632.2,384.1,631.3,378.9,629.6,374z"/>
<path fill="#E30917" d="M428.1,1033.3c-2,5.5-5.1,10.6-9.2,15c-7.3,7.9-17.5,13.1-28.6,14.7c-2.2,0.3-4.4,0.5-6.5,0.5
	c-14.1,0-26.7-7.1-36.6-20.4c-4.1-5.6-6.9-11.1-8.7-15c-1.7,3.9-4.5,9.4-8.7,15c-9.9,13.4-22.6,20.4-36.6,20.4
	c-2.1,0-4.3-0.2-6.5-0.5c-11.1-1.6-21.3-6.8-28.6-14.7c-4.1-4.4-7.2-9.5-9.2-15c-1.8-4.9-2.6-10-2.5-15.3c0-5.4,0.9-10.9,2.8-16.3
	c2.8-8,6.8-13.4,7.4-14.1l0.1-0.1c6.7-9.2,14.5-17.6,23.4-25c7.3-6.1,12.9-11.3,17-15.8l1.1-1.2c14.8-16.1,20.4-22.1,38.4-52.3
	l1.9-3.1l1.9,3.1c18,30.3,23.6,36.3,38.4,52.3l1.1,1.2c4.2,4.5,9.7,9.7,17,15.8c8.9,7.4,16.7,15.8,23.4,25l0.1,0.1
	c0.5,0.7,4.6,6.1,7.4,14.1c1.9,5.4,2.8,10.9,2.8,16.3C430.7,1023.2,429.9,1028.4,428.1,1033.3z"/>
<path fill="#E30917" d="M428.1,810.7c-2,5.5-5.1,10.6-9.2,15c-7.3,7.9-17.5,13.1-28.6,14.7c-2.2,0.3-4.4,0.5-6.5,0.5
	c-14.1,0-26.7-7.1-36.6-20.4c-4.1-5.6-6.9-11.1-8.7-15c-1.7,3.9-4.5,9.4-8.7,15c-9.9,13.4-22.6,20.4-36.6,20.4
	c-2.1,0-4.3-0.2-6.5-0.5c-11.1-1.6-21.3-6.8-28.6-14.7c-4.1-4.4-7.2-9.5-9.2-15c-1.8-4.9-2.6-10-2.5-15.3c0-5.4,0.9-10.9,2.8-16.3
	c2.8-8,6.8-13.4,7.4-14.1l0.1-0.1c6.7-9.2,14.5-17.6,23.4-25c7.3-6.1,12.9-11.3,17-15.8l1.1-1.2c14.8-16.1,20.4-22.1,38.4-52.3
	l1.9-3.1l1.9,3.1c18,30.3,23.6,36.3,38.4,52.3l1.1,1.2c4.2,4.5,9.7,9.7,17,15.8c8.9,7.4,16.7,15.8,23.4,25l0.1,0.1
	c0.5,0.7,4.6,6.1,7.4,14.1c1.9,5.4,2.8,10.9,2.8,16.3C430.7,800.6,429.9,805.8,428.1,810.7z"/>
<path fill="#E30917" d="M831,810.7c-2,5.5-5.1,10.6-9.2,15c-7.3,7.9-17.5,13.1-28.6,14.7c-2.2,0.3-4.4,0.5-6.5,0.5
	c-14.1,0-26.7-7.1-36.6-20.4c-4.1-5.6-6.9-11.1-8.7-15c-1.7,3.9-4.5,9.4-8.7,15c-9.9,13.4-22.6,20.4-36.6,20.4
	c-2.1,0-4.3-0.2-6.5-0.5c-11.1-1.6-21.3-6.8-28.6-14.7c-4.1-4.4-7.2-9.5-9.2-15c-1.8-4.9-2.6-10-2.5-15.3c0-5.4,0.9-10.9,2.8-16.3
	c2.8-8,6.8-13.4,7.4-14.1l0.1-0.1c6.7-9.2,14.5-17.6,23.4-25c7.3-6.1,12.9-11.3,17-15.8l1.1-1.2c14.8-16.1,20.4-22.1,38.4-52.3
	l1.9-3.1l1.9,3.1c18,30.3,23.6,36.3,38.4,52.3l1.1,1.2c4.2,4.5,9.7,9.7,17,15.8c8.9,7.4,16.7,15.8,23.4,25l0.1,0.1
	c0.5,0.7,4.6,6.1,7.4,14.1c1.9,5.4,2.8,10.9,2.8,16.3C833.6,800.6,832.8,805.8,831,810.7z"/>
<path fill="#E30917" d="M831,1033.3c-2,5.5-5.1,10.6-9.2,15c-7.3,7.9-17.5,13.1-28.6,14.7c-2.2,0.3-4.4,0.5-6.5,0.5
	c-14.1,0-26.7-7.1-36.6-20.4c-4.1-5.6-6.9-11.1-8.7-15c-1.7,3.9-4.5,9.4-8.7,15c-9.9,13.4-22.6,20.4-36.6,20.4
	c-2.1,0-4.3-0.2-6.5-0.5c-11.1-1.6-21.3-6.8-28.6-14.7c-4.1-4.4-7.2-9.5-9.2-15c-1.8-4.9-2.6-10-2.5-15.3c0-5.4,0.9-10.9,2.8-16.3
	c2.8-8,6.8-13.4,7.4-14.1l0.1-0.1c6.7-9.2,14.5-17.6,23.4-25c7.3-6.1,12.9-11.3,17-15.8l1.1-1.2c14.8-16.1,20.4-22.1,38.4-52.3
	l1.9-3.1l1.9,3.1c18,30.3,23.6,36.3,38.4,52.3l1.1,1.2c4.2,4.5,9.7,9.7,17,15.8c8.9,7.4,16.7,15.8,23.4,25l0.1,0.1
	c0.5,0.7,4.6,6.1,7.4,14.1c1.9,5.4,2.8,10.9,2.8,16.3C833.6,1023.2,832.8,1028.4,831,1033.3z"/>
<path fill="#E30917" d="M629.6,922c-2,5.5-5.1,10.6-9.2,15c-7.3,7.9-17.5,13.1-28.6,14.7c-2.2,0.3-4.4,0.5-6.5,0.5
	c-14.1,0-26.7-7.1-36.6-20.4c-4.1-5.6-6.9-11.1-8.7-15c-1.7,3.9-4.5,9.4-8.7,15c-9.9,13.4-22.6,20.4-36.6,20.4
	c-2.1,0-4.3-0.2-6.5-0.5c-11.1-1.6-21.3-6.8-28.6-14.7c-4.1-4.4-7.2-9.5-9.2-15c-1.8-4.9-2.6-10-2.5-15.3c0-5.4,0.9-10.9,2.8-16.3
	c2.8-8,6.8-13.4,7.4-14.1l0.1-0.1c6.7-9.2,14.5-17.6,23.4-25c7.3-6.1,12.9-11.3,17-15.8l1.1-1.2c14.8-16.1,20.4-22.1,38.4-52.3
	l1.9-3.1l1.9,3.1c18,30.3,23.6,36.3,38.4,52.3l1.1,1.2c4.2,4.5,9.7,9.7,17,15.8c8.9,7.4,16.7,15.8,23.4,25l0.1,0.1
	c0.5,0.7,4.6,6.1,7.4,14.1c1.9,5.4,2.8,10.9,2.8,16.3C632.2,911.9,631.3,917.1,629.6,922z"/>
</svg>
