<?xml version="1.0" encoding="utf-8"?>
<!-- Generator: Adobe Illustrator 18.1.0, SVG Export Plug-In . SVG Version: 6.00 Build 0)  -->
<svg version="1.1" id="Layer_10" xmlns="http://www.w3.org/2000/svg" xmlns:xlink="http://www.w3.org/1999/xlink" x="0px" y="0px"
	 viewBox="0 0 1080 1296" enable-background="new 0 0 1080 1296" xml:space="preserve">
<path fill="#E30917" d="M151.5,19.7v17h-18v112.8c0,9.7-4.2,18.7-11.4,24.9c-7.4,6.2-15.3,9.4-23.7,9.4c-8.7,0-17.5-3.6-25.6-10.4
	c-7.6-6.4-12-15.9-12-26.1v-21.9h17v21.9c0,5.1,2.2,9.9,5.9,13.1c5.1,4.3,9.9,6.4,14.5,6.4c4.3,0,8.5-1.8,12.8-5.4
	c3.4-2.9,5.4-7.2,5.4-11.9V36.7h-18v-17H151.5z"/>
<path fill="#E30917" d="M158.5,227.8c-1.2-3.2-3-6.2-5.4-8.8c-4.3-4.6-10.2-7.7-16.7-8.6c-1.3-0.2-2.6-0.3-3.8-0.3
	c-15.5,0-23.6,14.3-26.5,20.7c-2.9-6.4-11-20.7-26.5-20.7c-1.2,0-2.5,0.1-3.8,0.3c-6.5,0.9-12.4,4-16.7,8.6
	c-2.4,2.6-4.2,5.5-5.4,8.8c-5,13.7,4.1,25.6,4.4,26.1l0.1,0.1c3.9,5.4,8.5,10.3,13.7,14.6c4.3,3.6,7.5,6.6,10,9.2l0.7,0.7
	c8.7,9.4,11.9,12.9,22.5,30.6l1.1,1.8l1.1-1.8c10.5-17.7,13.8-21.2,22.5-30.6l0.7-0.7c2.4-2.6,5.7-5.7,10-9.2
	c5.2-4.3,9.8-9.3,13.7-14.6l0,0C154.4,253.4,163.5,241.5,158.5,227.8z"/>
<path fill="#E30917" d="M928.5,1276.3v-17h18v-112.8c0-9.7,4.2-18.7,11.4-24.9c7.4-6.2,15.3-9.4,23.7-9.4c8.7,0,17.5,3.6,25.6,10.4
	c7.6,6.4,12,15.9,12,26.1v21.9h-17v-21.9c0-5.1-2.2-9.9-5.9-13.1c-5.1-4.3-9.9-6.4-14.5-6.4c-4.3,0-8.5,1.8-12.8,5.4
	c-3.4,2.9-5.4,7.2-5.4,11.9v112.8h18v17H928.5z"/>
<path fill="#E30917" d="M921.5,1068.2c1.2,3.2,3,6.2,5.4,8.8c4.3,4.6,10.2,7.7,16.7,8.6c1.3,0.2,2.6,0.3,3.8,0.3
	c15.5,0,23.6-14.3,26.5-20.7c2.9,6.4,11,20.7,26.5,20.7c1.2,0,2.5-0.1,3.8-0.3c6.5-0.9,12.4-4,16.7-8.6c2.4-2.6,4.2-5.5,5.4-8.8
	c5-13.7-4.1-25.6-4.4-26.1l-0.1-0.1c-3.9-5.4-8.5-10.3-13.7-14.6c-4.3-3.6-7.5-6.6-10-9.2l-0.7-0.7c-8.7-9.4-11.9-12.9-22.5-30.6
	l-1.1-1.8l-1.1,1.8c-10.5,17.7-13.8,21.2-22.5,30.6l-0.7,0.7c-2.4,2.6-5.7,5.7-10,9.2c-5.2,4.3-9.8,9.3-13.7,14.6l0,0
	C925.6,1042.6,916.5,1054.5,921.5,1068.2z"/>
<path fill="#E30917" d="M768.5,505.1c-5.1-14.1-13-27-23.4-38.3c-18.6-20.1-44.5-33.5-73-37.5c-5.6-0.8-11.1-1.2-16.5-1.2
	c-35.9,0-68.2,18-93.4,52.1c-10.5,14.2-17.7,28.3-22.1,38.2c-4.4-9.8-11.6-23.9-22.1-38.2C492.7,446,460.4,428,424.5,428
	c-5.4,0-11,0.4-16.5,1.2c-28.4,4.1-54.3,17.4-73,37.5c-10.4,11.3-18.3,24.2-23.4,38.3c-4.5,12.5-6.6,25.6-6.4,39
	c-0.1,13.7,2.3,27.7,7.1,41.6c7.2,20.4,17.4,34.1,18.8,35.9l0.2,0.3c17,23.4,37.1,44.8,59.7,63.8c18.6,15.6,32.8,28.8,43.5,40.4
	l2.9,3.2c37.8,41,52,56.3,98,133.5l4.7,7.9l4.7-7.9c46-77.2,60.2-92.5,98-133.5l2.9-3.2c10.7-11.5,24.9-24.7,43.5-40.4
	c22.6-19,42.7-40.4,59.7-63.8l0.2-0.3c1.4-1.8,11.6-15.5,18.8-35.9c4.9-13.9,7.2-27.9,7.1-41.6C775.1,530.7,773,517.6,768.5,505.1z"
	/>
</svg>
