<?xml version="1.0" encoding="utf-8"?>
<!-- Generator: Adobe Illustrator 18.1.0, SVG Export Plug-In . SVG Version: 6.00 Build 0)  -->
<svg version="1.1" id="Layer_10" xmlns="http://www.w3.org/2000/svg" xmlns:xlink="http://www.w3.org/1999/xlink" x="0px" y="0px"
	 viewBox="0 0 1080 1296" enable-background="new 0 0 1080 1296" xml:space="preserve">
<path fill="#E30917" d="M768.5,505.1c-5.1-14.1-13-27-23.4-38.3c-18.6-20.1-44.5-33.5-73-37.5c-5.6-0.8-11.1-1.2-16.5-1.2
	c-35.9,0-68.2,18-93.4,52.1c-10.5,14.2-17.7,28.3-22.1,38.2c-4.4-9.8-11.6-23.9-22.1-38.2C492.7,446,460.4,428,424.5,428
	c-5.4,0-11,0.4-16.5,1.2c-28.4,4.1-54.3,17.4-73,37.5c-10.4,11.3-18.3,24.2-23.4,38.3c-4.5,12.5-6.6,25.6-6.4,39
	c-0.1,13.7,2.3,27.7,7.1,41.6c7.2,20.4,17.4,34.1,18.8,35.9l0.2,0.3c17,23.4,37.1,44.8,59.7,63.8c18.6,15.6,32.8,28.8,43.5,40.4
	l2.9,3.2c37.8,41,52,56.3,98,133.5l4.7,7.9l4.7-7.9c46-77.2,60.2-92.5,98-133.5l2.9-3.2c10.7-11.5,24.9-24.7,43.5-40.4
	c22.6-19,42.7-40.4,59.7-63.8l0.2-0.3c1.4-1.8,11.6-15.5,18.8-35.9c4.9-13.9,7.2-27.9,7.1-41.6C775.1,530.7,773,517.6,768.5,505.1z"
	/>
<path fill="#E30917" d="M165.3,184.2c0-1.1,0-3-0.2-5.3c0-1-0.1-2.2-0.2-3.8c-0.1-1.5-0.2-3-0.4-4.5c-0.3-3.2-0.8-6.9-1.6-10.9
	c-0.8-4.6-2-8.9-3.5-13.1c-1.5-4-3.7-9.3-7.5-14.2c-1.8-2.4-3.9-4.6-6.2-6.7c-0.3-0.3-0.6-0.5-0.9-0.8l0-1.4c-0.1-5.6-0.3-12-0.3-19
	c-0.1-10.4,0-19.2,0.1-26.9c0.4-28.7,0.6-41.8-11.1-52.9c-2-1.9-8-7.6-22.8-10.6c-1.8-0.4-3.8-0.6-5.7-0.6
	c-15.7,0-29.5,11.7-29.7,11.8C63.7,36.2,63.8,47.7,64.2,90.2l0,0.5c0,3.5,0.1,7.3,0.1,11.3c0,3.2,0,6.3,0.1,9.2
	c0.1,9,0.1,16.9,0.3,23.5c-0.4,0.4-0.8,0.8-1.2,1.2c-2.5,2.4-4.9,5.1-7.4,8.2c-1.8,2.3-3.5,4.6-5,6.9c-1.4,2.2-2.3,3.7-2.8,4.7
	l-0.1,0.2c-0.3,0.5-0.5,0.8-0.6,1.1l-1.1,2.3l6.3,5l7.2-5.7c1.8-1.4,3.9-3,6.3-4.9c1.5,9.7,4.5,15.9,10.2,22
	c8.8,9.3,19.4,14.4,29.8,14.4c0.7,0,1.3,0,2-0.1c11.8-0.7,19.9-7.8,23-10.5l0.1-0.1c0.2-0.2,0.3-0.3,0.5-0.4
	c7.8-6.3,11-13.8,12.4-23c1,2.7,1.7,5.3,2.3,7.6c0.9,3.5,1.6,6.7,2.1,9.5c0.3,1.3,0.5,2.6,0.7,4c0.2,1.2,0.4,2.4,0.6,3.5
	c0.3,2,0.5,3.5,0.7,4.7l0.6,4.3l14.2-1L165.3,184.2z M129.5,104.7c0,4.5,0.1,8.7,0.2,12.5c-0.1,0-0.3-0.1-0.4-0.1
	c-3-0.8-5.9-1.4-8.8-1.8c-3.1-0.4-5.8-0.6-8.6-0.6l-0.7,0c-0.5,0-1.1,0-1.4,0l-1.9,0c-1.5,0-3,0.2-4.4,0.3l-0.2,0
	c-5.5,0.7-11.1,2.2-16.5,4.7c-2.5,1.1-4.9,2.4-7.3,3.8c0-3.9-0.1-8-0.1-12.4l-0.1-9.2c0-3.9-0.1-7.6-0.1-11.1l0-0.7
	c-0.4-39-0.3-47.5,6.3-53.7c1.6-1.3,11.1-7.9,19.5-7.9c1,0,1.9,0.1,2.8,0.3c10.6,2.1,14.2,5.6,15.4,6.8c6.9,6.6,6.8,17,6.5,41.9
	C129.6,85.2,129.4,94.1,129.5,104.7z M83.2,141.9c3.8-2.3,7.3-4.1,10.8-5.5c3.7-1.6,7.6-2.6,11.4-3c0.3,0,0.5,0,0.8-0.1
	c0.2,0,0.4,0,0.6,0l3.5-0.1c0.3,0,0.5,0,0.8,0c0.2,0,0.4,0,0.7,0c0.9,0,1.8,0.1,2.8,0.1l0.4,0c1.2,0.1,2.2,0.2,3.2,0.3
	c4.4,0.6,8.2,1.6,11.3,3.3c0.2,0.1,0.4,0.2,0.5,0.3c0.1,19.2-1.4,24.9-7.7,30c-0.3,0.2-0.6,0.5-1,0.9c-2.2,1.9-7.3,6.4-14,6.8
	c-0.4,0-0.7,0-1.1,0c-6.3,0-13-3.4-18.9-9.7c-4.5-4.8-6.3-10.1-7.1-21.5C81.2,143.1,82.2,142.5,83.2,141.9z M106.2,187.5
	L106.2,187.5L106.2,187.5L106.2,187.5z"/>
<path fill="#E30917" d="M158.5,227.8c-1.2-3.2-3-6.2-5.4-8.8c-4.3-4.6-10.2-7.7-16.7-8.6c-1.3-0.2-2.6-0.3-3.8-0.3
	c-15.5,0-23.6,14.3-26.5,20.7c-2.9-6.4-11-20.7-26.5-20.7c-1.2,0-2.5,0.1-3.8,0.3c-6.5,0.9-12.4,4-16.7,8.6
	c-2.4,2.6-4.2,5.5-5.4,8.8c-5,13.7,4.1,25.6,4.4,26.1l0.1,0.1c3.9,5.4,8.5,10.3,13.7,14.6c4.3,3.6,7.5,6.6,10,9.2l0.7,0.7
	c8.7,9.4,11.9,12.9,22.5,30.6l1.1,1.8l1.1-1.8c10.5-17.7,13.8-21.2,22.5-30.6l0.7-0.7c2.4-2.6,5.7-5.7,10-9.2
	c5.2-4.3,9.8-9.3,13.7-14.6l0,0C154.4,253.4,163.5,241.5,158.5,227.8z"/>
<path fill="#E30917" d="M914.4,1111.8c0,1.1,0,3,0.2,5.3c0,1,0.1,2.2,0.2,3.8c0.1,1.5,0.2,3,0.4,4.5c0.3,3.2,0.8,6.9,1.6,10.9
	c0.8,4.6,2,8.9,3.5,13.1c1.5,4,3.7,9.3,7.5,14.2c1.8,2.4,3.9,4.6,6.2,6.7c0.3,0.3,0.6,0.5,0.9,0.8l0,1.4c0.1,5.6,0.3,12,0.3,19
	c0.1,10.4,0,19.2-0.1,26.9c-0.4,28.7-0.6,41.8,11.1,52.9c2,1.9,8,7.6,22.8,10.6c1.8,0.4,3.8,0.6,5.7,0.6c15.7,0,29.5-11.7,29.7-11.8
	c11.7-10.9,11.6-22.4,11.1-64.9l0-0.5c0-3.5-0.1-7.3-0.1-11.3c0-3.2,0-6.3-0.1-9.2c-0.1-9-0.1-16.9-0.3-23.5
	c0.4-0.4,0.8-0.8,1.2-1.2c2.5-2.4,4.9-5.1,7.4-8.2c1.8-2.3,3.5-4.6,5-6.9c1.4-2.2,2.3-3.7,2.8-4.7l0.1-0.2c0.3-0.5,0.5-0.8,0.6-1.1
	l1.1-2.3l-6.3-5l-7.2,5.7c-1.8,1.4-3.9,3-6.3,4.9c-1.5-9.7-4.5-15.9-10.2-22c-8.8-9.3-19.4-14.4-29.8-14.4c-0.7,0-1.3,0-2,0.1
	c-11.8,0.7-19.9,7.8-23,10.5l-0.1,0.1c-0.2,0.2-0.3,0.3-0.5,0.4c-7.8,6.3-11,13.8-12.4,23c-1-2.7-1.7-5.3-2.3-7.6
	c-0.9-3.5-1.6-6.7-2.1-9.5c-0.3-1.3-0.5-2.6-0.7-4c-0.2-1.2-0.4-2.4-0.6-3.5c-0.3-2-0.5-3.5-0.7-4.7l-0.6-4.3l-14.2,1L914.4,1111.8z
	 M950.2,1191.3c0-4.5-0.1-8.7-0.2-12.5c0.1,0,0.3,0.1,0.4,0.1c3,0.8,5.9,1.4,8.8,1.8c3.1,0.4,5.8,0.6,8.6,0.6l0.7,0
	c0.5,0,1.1,0,1.4,0l1.9,0c1.5,0,3-0.2,4.4-0.3l0.2,0c5.5-0.7,11.1-2.2,16.5-4.7c2.5-1.1,4.9-2.4,7.3-3.8c0,3.9,0.1,8,0.1,12.4
	l0.1,9.2c0,3.9,0.1,7.6,0.1,11.1l0,0.7c0.4,39,0.3,47.5-6.3,53.7c-1.6,1.3-11.1,7.9-19.5,7.9c-1,0-1.9-0.1-2.8-0.3
	c-10.6-2.1-14.2-5.6-15.4-6.8c-6.9-6.6-6.8-17-6.5-41.9C950.1,1210.8,950.3,1201.9,950.2,1191.3z M996.5,1154.1
	c-3.8,2.3-7.3,4.1-10.8,5.5c-3.7,1.6-7.6,2.6-11.4,3c-0.3,0-0.5,0-0.8,0.1c-0.2,0-0.4,0-0.6,0l-3.5,0.1c-0.3,0-0.5,0-0.8,0
	c-0.2,0-0.4,0-0.7,0c-0.9,0-1.8-0.1-2.8-0.1l-0.4,0c-1.2-0.1-2.2-0.2-3.2-0.3c-4.4-0.6-8.2-1.6-11.3-3.3c-0.2-0.1-0.4-0.2-0.5-0.3
	c-0.1-19.2,1.4-24.9,7.7-30c0.3-0.2,0.6-0.5,1-0.9c2.2-1.9,7.3-6.4,14-6.8c0.4,0,0.7,0,1.1,0c6.3,0,13,3.4,18.9,9.7
	c4.5,4.8,6.3,10.1,7.1,21.5C998.5,1152.9,997.5,1153.5,996.5,1154.1z M973.5,1108.5L973.5,1108.5L973.5,1108.5L973.5,1108.5z"/>
<path fill="#E30917" d="M921.2,1068.2c1.2,3.2,3,6.2,5.4,8.8c4.3,4.6,10.2,7.7,16.7,8.6c1.3,0.2,2.6,0.3,3.8,0.3
	c15.5,0,23.6-14.3,26.5-20.7c2.9,6.4,11,20.7,26.5,20.7c1.2,0,2.5-0.1,3.8-0.3c6.5-0.9,12.4-4,16.7-8.6c2.4-2.6,4.2-5.5,5.4-8.8
	c5-13.7-4.1-25.6-4.4-26.1l-0.1-0.1c-3.9-5.4-8.5-10.3-13.7-14.6c-4.3-3.6-7.5-6.6-10-9.2l-0.7-0.7c-8.7-9.4-11.9-12.9-22.5-30.6
	l-1.1-1.8l-1.1,1.8c-10.5,17.7-13.8,21.2-22.5,30.6l-0.7,0.7c-2.4,2.6-5.7,5.7-10,9.2c-5.2,4.3-9.8,9.3-13.7,14.6l0,0
	C925.3,1042.6,916.2,1054.5,921.2,1068.2z"/>
</svg>
