<?xml version="1.0" encoding="utf-8"?>
<!-- Generator: Adobe Illustrator 18.1.0, SVG Export Plug-In . SVG Version: 6.00 Build 0)  -->
<svg version="1.1" id="Layer_10" xmlns="http://www.w3.org/2000/svg" xmlns:xlink="http://www.w3.org/1999/xlink" x="0px" y="0px"
	 viewBox="0 0 1080 1296" enable-background="new 0 0 1080 1296" xml:space="preserve">
<path d="M289.1,779.2c18.8-10.9,41.4-9.6,59.5,1.4c4.4,2.6,10,2.4,14.1-0.7c0,0,0.1-0.1,0.1-0.1c1.2-0.9,1-2.7-0.3-3.4
	c-20.7-9.6-34.9-29.7-34.9-52.9c0-32.5,27.9-58.9,62.4-58.9s62.4,26.4,62.4,58.9c0,23.2-14.2,43.2-34.8,52.9
	c-1.4,0.6-1.5,2.6-0.2,3.4c0.3,0.2,0.6,0.4,0.9,0.6c4.1,2.6,9.3,2.5,13.4,0c18.1-10.8,40.6-12,59.3-1.2
	c28.2,16.3,37.1,53.7,19.8,83.5c-17.2,29.9-54.1,40.9-82.2,24.6c-7.5-4.3-13.7-10.2-18.3-17c-2.9-4.3-7.2-7.4-11.9-9.1
	c0.7,40,18.6,60.7,26.3,69.7c1.3,1.5,2.4,2.8,3.2,3.8l3.9,5.3l-6.6,0c-5.8,0-11.7,0-17.5,0c-5.8,0-11.7,0-17.5,0
	c-5.9,0-11.8,0-17.6,0c-5.7,0-11.7,0-17.5,0l-6.6,0l3.9-5.3c0.8-1.1,1.8-2.3,3.2-3.8c7.7-8.9,25.6-29.6,26.3-69.6
	c-4.9,1.7-9.1,5-12.1,9.3c-4.6,6.7-10.7,12.5-18.1,16.7c-28.2,16.3-65,5.3-82.2-24.6C252.1,832.9,260.9,795.5,289.1,779.2z"/>
<path d="M804,533.7c-3.8-23-32.9-60.2-34.5-62.2c-34.6-45.2-75.4-108.3-75.8-108.9l-4.3-6.6l-4.3,6.6c-0.4,0.6-41.3,63.6-75.9,108.9
	c-1.6,2-30.7,39.2-34.6,62.2c-0.3,1.4-2.2,11.5-0.1,23.6c3.1,17.3,13,30.5,28.7,38.2l0.4,0.2c0.5,0.2,12.5,4.7,27-1.7
	c14.4-6.4,26.1-21,34.6-43.4c0.9-2.5,2.5-5.3,3.7-6.6c0.8,1.2,2.4,4.2,4.1,11.3l0,0.1c0,0.2,0.1,0.5,0.1,0.7c0.3,1.2,1.4,9.6-0.3,21
	c-1.4,9.9-5.4,24.3-15.9,37l-6.9,8.3l78.5,0l-6.9-8.3c-10.5-12.7-14.5-27.1-15.9-37c-1.7-11.4-0.6-19.8-0.3-21
	c0.1-0.2,0.1-0.5,0.1-0.7l0-0.1c1.7-7.2,3.2-10.2,4.1-11.4c1.2,1.3,2.7,4.1,3.7,6.7c8.5,22.4,20.1,37,34.5,43.4
	c14.6,6.5,26.5,1.9,27,1.7l0.4-0.2c15.7-7.7,25.7-20.9,28.8-38.2C806.2,545.2,804.3,535.1,804,533.7z"/>
<polygon fill="#E30917" points="390.1,614.7 499.2,489.3 390.1,363.6 281,489.3 "/>
<path fill="#E30917" d="M562.7,722.4c2.8-7.8,7.2-15,13-21.2c10.3-11.2,24.7-18.5,40.4-20.8c3.1-0.4,6.2-0.7,9.2-0.7
	c19.9,0,37.8,10,51.8,28.9c5.8,7.9,9.8,15.7,12.2,21.1c2.4-5.5,6.4-13.3,12.2-21.1c14-18.9,31.9-28.9,51.8-28.9c3,0,6.1,0.2,9.2,0.7
	c15.7,2.3,30.1,9.6,40.4,20.8c5.8,6.3,10.2,13.4,13,21.2c2.5,6.9,3.7,14.2,3.6,21.6c0.1,7.6-1.3,15.4-3.9,23
	c-4,11.3-9.6,18.9-10.4,19.9l-0.1,0.1c-9.4,13-20.6,24.9-33.1,35.4c-10.3,8.7-18.2,16-24.1,22.4l-1.6,1.8
	c-21,22.7-28.8,31.2-54.3,74l-2.6,4.4l-2.6-4.4c-25.5-42.8-33.4-51.3-54.3-74l-1.6-1.8c-5.9-6.4-13.8-13.7-24.1-22.4
	c-12.5-10.5-23.6-22.4-33.1-35.4l-0.1-0.1c-0.8-1-6.4-8.6-10.4-19.9c-2.7-7.7-4-15.4-3.9-23C559,736.6,560.2,729.3,562.7,722.4z"/>
<path fill="#E30917" d="M64.1,103.1V88.6h12.4v14.5c0,2.9,1.2,5.5,3.3,7.3c5.6,4.8,10.3,5,15.5,0.6c1.9-1.6,3-4,3-6.5V36.2H87.2
	V23.7h34.5v12.4h-11.1v68.3c0,6.2-2.7,12.1-7.4,16c-4.7,4-9.8,6-15.2,6c-5.6,0-11.2-2.3-16.3-6.6C66.9,115.7,64.1,109.6,64.1,103.1z
	 M103,234.4l-18,19v-42.2H69.6v84.4H85v-21.2l2.6-2.8l18,24h18.6l-26.1-35l24.5-26.3H103z M103.9,397c-3.9,0-7.4,1-10.3,3.1l0-2
	H78.4v61.2h15.4v-41.6c1.8-3.8,4.8-5.6,9.6-5.6c1.5,0,2.9,0.1,4.2,0.3l3.5,0.6v-14.2l-1.7-0.8C108,397.3,106.2,397,103.9,397z
	 M108.8,351.1l10.3,8l-1.5,2.3c-5.2,8-13.1,12-23.3,12c-8.3,0-15.2-2.8-20.5-8.3c-5.2-5.5-7.9-12.8-7.9-21.8v-1.7
	c0-5.9,1.2-11.3,3.4-16c2.3-4.8,5.6-8.6,9.9-11.3c4.2-2.7,8.9-4.1,13.9-4.1c8.1,0,14.5,2.7,19,8.2c4.4,5.3,6.7,12.8,6.7,22.3v6.9
	H81.7c0.5,3.3,1.7,6,3.7,8.2c2.5,2.7,5.5,4,9.4,4c2.8,0,5.1-0.5,7-1.6c2-1.2,3.7-2.7,5.2-4.7L108.8,351.1z M82.3,333.8h20.8
	c-0.5-2.9-1.4-5.2-2.9-6.9c-1.7-2-4.1-2.9-7.1-2.9c-3,0-5.4,1-7.4,3.2C84.2,328.8,83,331,82.3,333.8z M71.5,191.1
	c-5.1-5.7-7.7-13.4-7.7-22.7v-0.7c0-5.9,1.2-11.2,3.5-15.9c2.4-4.8,5.7-8.6,10-11.2c4.3-2.6,9.2-4,14.6-4c8.4,0,15.3,3,20.5,8.8
	c5.1,5.7,7.7,13.4,7.7,22.8v0.7c0,5.8-1.1,11.1-3.4,15.8c-2.3,4.8-5.6,8.5-10,11.2c-4.3,2.7-9.3,4-14.8,4
	C83.6,199.9,76.7,196.9,71.5,191.1z M79.2,168.9c0,5.4,1.2,9.8,3.6,12.9c2.3,3,5.2,4.4,9,4.4c3.8,0,6.8-1.5,9-4.4
	c2.4-3.2,3.6-7.9,3.6-14c0-5.4-1.2-9.7-3.7-12.9c-2.3-3-5.3-4.5-9.1-4.5c-3.7,0-6.6,1.4-8.9,4.4C80.5,157.9,79.2,162.7,79.2,168.9z"
	/>
<path fill="#E30917" d="M1015.9,1179.3v14.5h-12.4v-14.5c0-2.9-1.2-5.5-3.3-7.3c-5.6-4.8-10.3-5-15.5-0.6c-1.9,1.6-3,4-3,6.5v68.3
	h11.1v12.4h-34.5v-12.4h11.1V1178c0-6.2,2.7-12.1,7.4-16c4.7-4,9.8-6,15.2-6c5.6,0,11.2,2.3,16.3,6.6
	C1013.1,1166.7,1015.9,1172.8,1015.9,1179.3z M977,1048l18-19v42.2h15.4v-84.4H995v21.2l-2.6,2.8l-18-24h-18.6l26.1,35l-24.5,26.3
	H977z M976.1,885.4c3.9,0,7.4-1,10.3-3.1l0,2h15.1v-61.2h-15.4v41.6c-1.8,3.8-4.8,5.6-9.6,5.6c-1.5,0-2.9-0.1-4.2-0.3l-3.5-0.6v14.2
	l1.7,0.8C972,885.1,973.8,885.4,976.1,885.4z M971.2,931.3l-10.3-8l1.5-2.3c5.2-8,13.1-12,23.3-12c8.3,0,15.2,2.8,20.5,8.3
	c5.2,5.5,7.9,12.8,7.9,21.8v1.7c0,5.9-1.2,11.3-3.4,16c-2.3,4.8-5.6,8.6-9.9,11.3c-4.2,2.7-8.9,4.1-13.9,4.1c-8.1,0-14.5-2.7-19-8.2
	c-4.4-5.3-6.7-12.8-6.7-22.3v-6.9h37.2c-0.5-3.3-1.7-6-3.7-8.2c-2.5-2.7-5.5-4-9.4-4c-2.8,0-5.1,0.5-7,1.6c-2,1.2-3.7,2.7-5.2,4.7
	L971.2,931.3z M997.7,948.6h-20.8c0.5,2.9,1.4,5.2,2.9,6.9c1.7,2,4.1,2.9,7.1,2.9c3,0,5.4-1,7.4-3.2
	C995.8,953.6,997,951.3,997.7,948.6z M1008.5,1091.3c5.1,5.7,7.7,13.4,7.7,22.7v0.7c0,5.9-1.2,11.2-3.5,15.9
	c-2.4,4.8-5.7,8.6-10,11.2c-4.3,2.6-9.2,4-14.6,4c-8.4,0-15.3-3-20.5-8.8c-5.1-5.7-7.7-13.4-7.7-22.8v-0.7c0-5.8,1.1-11.1,3.4-15.8
	c2.3-4.8,5.6-8.5,10-11.2c4.3-2.7,9.3-4,14.8-4C996.4,1082.5,1003.3,1085.5,1008.5,1091.3z M1000.8,1113.5c0-5.4-1.2-9.8-3.6-12.9
	c-2.3-3-5.2-4.4-9-4.4c-3.8,0-6.8,1.5-9,4.4c-2.4,3.2-3.6,7.9-3.6,14c0,5.4,1.2,9.7,3.7,12.9c2.3,3,5.3,4.5,9.1,4.5
	c3.7,0,6.6-1.4,8.9-4.4C999.5,1124.5,1000.8,1119.7,1000.8,1113.5z"/>
<path fill="#E30917" d="M762.6,1027.4H317.4c-62.3,0-113-50.7-113-113V381.6c0-62.3,50.7-113,113-113h445.1c62.3,0,113,50.7,113,113
	v532.8C875.6,976.7,824.9,1027.4,762.6,1027.4z M317.4,278.6c-56.8,0-103,46.2-103,103v532.8c0,56.8,46.2,103,103,103h445.1
	c56.8,0,103-46.2,103-103V381.6c0-56.8-46.2-103-103-103H317.4z"/>
</svg>
