<?xml version="1.0" encoding="utf-8"?>
<!-- Generator: Adobe Illustrator 18.1.0, SVG Export Plug-In . SVG Version: 6.00 Build 0)  -->
<svg version="1.1" id="Layer_10" xmlns="http://www.w3.org/2000/svg" xmlns:xlink="http://www.w3.org/1999/xlink" x="0px" y="0px"
	 viewBox="0 0 1080 1296" enable-background="new 0 0 1080 1296" xml:space="preserve">
<path d="M624.3,353c-2.8-16.9-24.2-44.2-25.4-45.7c-25.4-33.2-55.4-79.6-55.7-80l-3.1-4.8l-3.1,4.8c-0.3,0.5-30.4,46.8-55.8,80
	c-1.2,1.5-22.6,28.8-25.4,45.7c-0.2,1.1-1.6,8.5,0,17.4c2.3,12.7,9.6,22.4,21.1,28.1l0.3,0.1c0.4,0.1,9.2,3.5,19.9-1.3
	c10.6-4.7,19.2-15.4,25.4-31.9c0.7-1.8,1.9-3.9,2.7-4.9c0.6,0.9,1.8,3.1,3,8.3l0,0.1c0,0.2,0.1,0.3,0.1,0.5c0.2,0.9,1,7-0.2,15.4
	c-1.1,7.3-3.9,17.9-11.7,27.2l-5.1,6.1l57.7,0l-5.1-6.1c-7.7-9.3-10.6-19.9-11.7-27.2c-1.2-8.4-0.4-14.5-0.2-15.4
	c0-0.2,0.1-0.3,0.1-0.5l0-0.1c1.2-5.3,2.4-7.5,3-8.4c0.9,0.9,2,3,2.7,4.9c6.2,16.5,14.8,27.2,25.4,31.9c10.7,4.8,19.5,1.4,19.9,1.3
	l0.3-0.1c11.5-5.7,18.9-15.4,21.1-28.1C625.9,361.5,624.5,354.1,624.3,353z"/>
<path d="M624.3,681.7c-2.8-16.9-24.2-44.2-25.4-45.7c-25.4-33.2-55.4-79.6-55.7-80l-3.1-4.8l-3.1,4.8c-0.3,0.5-30.4,46.8-55.8,80
	c-1.2,1.5-22.6,28.8-25.4,45.7c-0.2,1.1-1.6,8.5,0,17.4c2.3,12.7,9.6,22.4,21.1,28.1l0.3,0.1c0.4,0.1,9.2,3.5,19.9-1.3
	c10.6-4.7,19.2-15.4,25.4-31.9c0.7-1.8,1.9-3.9,2.7-4.9c0.6,0.9,1.8,3.1,3,8.3l0,0.1c0,0.2,0.1,0.3,0.1,0.5c0.2,0.9,1,7-0.2,15.4
	c-1.1,7.3-3.9,17.9-11.7,27.2l-5.1,6.1l57.7,0l-5.1-6.1c-7.7-9.3-10.6-19.9-11.7-27.2c-1.2-8.4-0.4-14.5-0.2-15.4
	c0-0.2,0.1-0.3,0.1-0.5l0-0.1c1.2-5.3,2.4-7.5,3-8.4c0.9,0.9,2,3,2.7,4.9c6.2,16.5,14.8,27.2,25.4,31.9c10.7,4.8,19.5,1.4,19.9,1.3
	l0.3-0.1c11.5-5.7,18.9-15.4,21.1-28.1C625.9,690.2,624.5,682.8,624.3,681.7z"/>
<path d="M624.3,943c-2.8,16.9-24.2,44.2-25.4,45.7c-25.4,33.2-55.4,79.6-55.7,80l-3.1,4.8l-3.1-4.8c-0.3-0.5-30.4-46.8-55.8-80
	c-1.2-1.5-22.6-28.8-25.4-45.7c-0.2-1.1-1.6-8.5,0-17.4c2.3-12.7,9.6-22.4,21.1-28.1l0.3-0.1c0.4-0.1,9.2-3.5,19.9,1.3
	c10.6,4.7,19.2,15.4,25.4,31.9c0.7,1.8,1.9,3.9,2.7,4.9c0.6-0.9,1.8-3.1,3-8.3l0-0.1c0-0.2,0.1-0.3,0.1-0.5c0.2-0.9,1-7-0.2-15.4
	c-1.1-7.3-3.9-17.9-11.7-27.2l-5.1-6.1l57.7,0l-5.1,6.1c-7.7,9.3-10.6,19.9-11.7,27.2c-1.2,8.4-0.4,14.5-0.2,15.4
	c0,0.2,0.1,0.3,0.1,0.5l0,0.1c1.2,5.3,2.4,7.5,3,8.4c0.9-0.9,2-3,2.7-4.9c6.2-16.5,14.8-27.2,25.4-31.9c10.7-4.8,19.5-1.4,19.9-1.3
	l0.3,0.1c11.5,5.7,18.9,15.4,21.1,28.1C625.9,934.5,624.5,941.9,624.3,943z"/>
<path d="M152.7,278.6c-1.6-9.3-13.4-24.4-14-25.2c-14-18.3-30.6-43.9-30.8-44.2l-1.7-2.7l-1.7,2.7c-0.2,0.3-16.8,25.8-30.8,44.1
	c-0.6,0.8-12.5,15.9-14,25.2c-0.1,0.6-0.9,4.7,0,9.6c1.3,7,5.3,12.4,11.7,15.5l0.2,0.1c0.2,0.1,5.1,1.9,11-0.7
	c5.9-2.6,10.6-8.5,14-17.6c0.4-1,1-2.2,1.5-2.7c0.3,0.5,1,1.7,1.6,4.6l0,0.1c0,0.1,0,0.2,0.1,0.3c0.1,0.5,0.5,3.9-0.1,8.5
	c-0.6,4-2.2,9.9-6.5,15l-2.8,3.4l31.9,0l-2.8-3.4c-4.3-5.1-5.9-11-6.4-15c-0.7-4.6-0.2-8-0.1-8.5c0-0.1,0-0.2,0.1-0.3l0,0
	c0.7-2.9,1.3-4.1,1.7-4.6c0.5,0.5,1.1,1.7,1.5,2.7c3.4,9.1,8.1,15,14,17.6c5.9,2.6,10.8,0.8,11,0.7l0.2-0.1
	c6.4-3.1,10.4-8.5,11.7-15.5C153.6,283.3,152.8,279.2,152.7,278.6z"/>
<path d="M927.3,1017.4c1.6,9.3,13.4,24.4,14,25.2c14,18.3,30.6,43.9,30.8,44.2l1.7,2.7l1.7-2.7c0.2-0.3,16.8-25.8,30.8-44.1
	c0.6-0.8,12.5-15.9,14-25.2c0.1-0.6,0.9-4.7,0-9.6c-1.3-7-5.3-12.4-11.7-15.5l-0.2-0.1c-0.2-0.1-5.1-1.9-11,0.7
	c-5.9,2.6-10.6,8.5-14,17.6c-0.4,1-1,2.2-1.5,2.7c-0.3-0.5-1-1.7-1.6-4.6l0-0.1c0-0.1,0-0.2-0.1-0.3c-0.1-0.5-0.5-3.9,0.1-8.5
	c0.6-4,2.2-9.9,6.5-15l2.8-3.4l-31.9,0l2.8,3.4c4.3,5.1,5.9,11,6.4,15c0.7,4.6,0.2,8,0.1,8.5c0,0.1,0,0.2-0.1,0.3l0,0
	c-0.7,2.9-1.3,4.1-1.7,4.6c-0.5-0.5-1.1-1.7-1.5-2.7c-3.4-9.1-8.1-15-14-17.6c-5.9-2.6-10.8-0.8-11-0.7l-0.2,0.1
	c-6.4,3.1-10.4,8.5-11.7,15.5C926.4,1012.7,927.2,1016.8,927.3,1017.4z"/>
<path d="M89.7,92.8h13.8c8.7-0.1,15.5-2.4,20.5-6.9c5-4.4,7.5-10.5,7.5-18c0-17-8.5-25.5-25.4-25.5c-8,0-14.3,2.3-19.1,6.8
	c-4.7,4.5-7.1,10.6-7.1,18.1H61.5c0-11.5,4.2-21,12.6-28.6c8.4-7.6,19.1-11.4,32-11.4c13.7,0,24.4,3.6,32.2,10.9
	c7.8,7.2,11.7,17.3,11.7,30.2c0,6.3-2,12.4-6.1,18.3c-4.1,5.9-9.6,10.3-16.7,13.2c8,2.5,14.1,6.7,18.5,12.5c4.3,5.8,6.5,13,6.5,21.4
	c0,13-4.2,23.3-12.7,31c-8.5,7.6-19.6,11.5-33.2,11.5c-13.6,0-24.7-3.7-33.2-11.1c-8.5-7.4-12.8-17.1-12.8-29.2h18.5
	c0,7.6,2.5,13.7,7.5,18.3c5,4.6,11.7,6.9,20,6.9c8.9,0,15.7-2.3,20.4-7c4.7-4.6,7.1-11.3,7.1-20c0-8.4-2.6-14.9-7.8-19.4
	c-5.2-4.5-12.6-6.8-22.4-7H89.7V92.8z"/>
<path d="M990.3,1205.1h-13.8c-8.7,0.1-15.5,2.4-20.5,6.9c-5,4.4-7.5,10.5-7.5,18c0,17,8.5,25.5,25.4,25.5c8,0,14.3-2.3,19.1-6.8
	c4.7-4.5,7.1-10.6,7.1-18.1h18.4c0,11.5-4.2,21-12.6,28.6c-8.4,7.6-19.1,11.4-32,11.4c-13.7,0-24.4-3.6-32.2-10.9
	c-7.8-7.2-11.7-17.3-11.7-30.2c0-6.3,2-12.4,6.1-18.3c4.1-5.9,9.6-10.3,16.7-13.2c-8-2.5-14.1-6.7-18.5-12.5
	c-4.3-5.8-6.5-13-6.5-21.4c0-13,4.2-23.3,12.7-31c8.5-7.6,19.6-11.5,33.2-11.5c13.6,0,24.7,3.7,33.2,11.1
	c8.5,7.4,12.8,17.1,12.8,29.2h-18.5c0-7.6-2.5-13.7-7.5-18.3s-11.7-6.9-20-6.9c-8.9,0-15.7,2.3-20.4,7c-4.7,4.6-7.1,11.3-7.1,20
	c0,8.4,2.6,14.9,7.8,19.4c5.2,4.5,12.6,6.8,22.4,7h13.8V1205.1z"/>
</svg>
