<?xml version="1.0" encoding="utf-8"?>
<!-- Generator: Adobe Illustrator 18.1.0, SVG Export Plug-In . SVG Version: 6.00 Build 0)  -->
<svg version="1.1" id="Layer_10" xmlns="http://www.w3.org/2000/svg" xmlns:xlink="http://www.w3.org/1999/xlink" x="0px" y="0px"
	 viewBox="0 0 1080 1296" enable-background="new 0 0 1080 1296" xml:space="preserve">
<path d="M422.8,353c-2.8-16.9-24.2-44.2-25.4-45.7c-25.4-33.2-55.4-79.6-55.7-80l-3.1-4.8l-3.1,4.8c-0.3,0.5-30.4,46.8-55.8,80
	c-1.2,1.5-22.6,28.8-25.4,45.7c-0.2,1.1-1.6,8.5,0,17.4c2.3,12.7,9.6,22.4,21.1,28.1l0.3,0.1c0.4,0.1,9.2,3.5,19.9-1.3
	c10.6-4.7,19.2-15.4,25.4-31.9c0.7-1.8,1.9-3.9,2.7-4.9c0.6,0.9,1.8,3.1,3,8.3l0,0.1c0,0.2,0.1,0.3,0.1,0.5c0.2,0.9,1,7-0.2,15.4
	c-1.1,7.3-3.9,17.9-11.7,27.2l-5.1,6.1l57.7,0l-5.1-6.1c-7.7-9.3-10.6-19.9-11.7-27.2c-1.2-8.4-0.4-14.5-0.2-15.4
	c0-0.2,0.1-0.3,0.1-0.5l0-0.1c1.2-5.3,2.4-7.5,3-8.4c0.9,0.9,2,3,2.7,4.9c6.2,16.5,14.8,27.2,25.4,31.9c10.7,4.8,19.5,1.4,19.9,1.3
	l0.3-0.1c11.5-5.7,18.9-15.4,21.1-28.1C424.5,361.5,423.1,354.1,422.8,353z"/>
<path d="M422.8,681.7c-2.8-16.9-24.2-44.2-25.4-45.7c-25.4-33.2-55.4-79.6-55.7-80l-3.1-4.8l-3.1,4.8c-0.3,0.5-30.4,46.8-55.8,80
	c-1.2,1.5-22.6,28.8-25.4,45.7c-0.2,1.1-1.6,8.5,0,17.4c2.3,12.7,9.6,22.4,21.1,28.1l0.3,0.1c0.4,0.1,9.2,3.5,19.9-1.3
	c10.6-4.7,19.2-15.4,25.4-31.9c0.7-1.8,1.9-3.9,2.7-4.9c0.6,0.9,1.8,3.1,3,8.3l0,0.1c0,0.2,0.1,0.3,0.1,0.5c0.2,0.9,1,7-0.2,15.4
	c-1.1,7.3-3.9,17.9-11.7,27.2l-5.1,6.1l57.7,0l-5.1-6.1c-7.7-9.3-10.6-19.9-11.7-27.2c-1.2-8.4-0.4-14.5-0.2-15.4
	c0-0.2,0.1-0.3,0.1-0.5l0-0.1c1.2-5.3,2.4-7.5,3-8.4c0.9,0.9,2,3,2.7,4.9c6.2,16.5,14.8,27.2,25.4,31.9c10.7,4.8,19.5,1.4,19.9,1.3
	l0.3-0.1c11.5-5.7,18.9-15.4,21.1-28.1C424.5,690.2,423.1,682.8,422.8,681.7z"/>
<path d="M825.8,681.7c-2.8-16.9-24.2-44.2-25.4-45.7c-25.4-33.2-55.4-79.6-55.7-80l-3.1-4.8l-3.1,4.8c-0.3,0.5-30.4,46.8-55.8,80
	c-1.2,1.5-22.6,28.8-25.4,45.7c-0.2,1.1-1.6,8.5,0,17.4c2.3,12.7,9.6,22.4,21.1,28.1l0.3,0.1c0.4,0.1,9.2,3.5,19.9-1.3
	c10.6-4.7,19.2-15.4,25.4-31.9c0.7-1.8,1.9-3.9,2.7-4.9c0.6,0.9,1.8,3.1,3,8.3l0,0.1c0,0.2,0.1,0.3,0.1,0.5c0.2,0.9,1,7-0.2,15.4
	c-1.1,7.3-3.9,17.9-11.7,27.2l-5.1,6.1l57.7,0l-5.1-6.1c-7.7-9.3-10.6-19.9-11.7-27.2c-1.2-8.4-0.4-14.5-0.2-15.4
	c0-0.2,0.1-0.3,0.1-0.5l0-0.1c1.2-5.3,2.4-7.5,3-8.4c0.9,0.9,2,3,2.7,4.9c6.2,16.5,14.8,27.2,25.4,31.9c10.7,4.8,19.5,1.4,19.9,1.3
	l0.3-0.1c11.5-5.7,18.9-15.4,21.1-28.1C827.4,690.2,826,682.8,825.8,681.7z"/>
<path d="M825.8,353c-2.8-16.9-24.2-44.2-25.4-45.7c-25.4-33.2-55.4-79.6-55.7-80l-3.1-4.8l-3.1,4.8c-0.3,0.5-30.4,46.8-55.8,80
	c-1.2,1.5-22.6,28.8-25.4,45.7c-0.2,1.1-1.6,8.5,0,17.4c2.3,12.7,9.6,22.4,21.1,28.1l0.3,0.1c0.4,0.1,9.2,3.5,19.9-1.3
	c10.6-4.7,19.2-15.4,25.4-31.9c0.7-1.8,1.9-3.9,2.7-4.9c0.6,0.9,1.8,3.1,3,8.3l0,0.1c0,0.2,0.1,0.3,0.1,0.5c0.2,0.9,1,7-0.2,15.4
	c-1.1,7.3-3.9,17.9-11.7,27.2l-5.1,6.1l57.7,0l-5.1-6.1c-7.7-9.3-10.6-19.9-11.7-27.2c-1.2-8.4-0.4-14.5-0.2-15.4
	c0-0.2,0.1-0.3,0.1-0.5l0-0.1c1.2-5.3,2.4-7.5,3-8.4c0.9,0.9,2,3,2.7,4.9c6.2,16.5,14.8,27.2,25.4,31.9c10.7,4.8,19.5,1.4,19.9,1.3
	l0.3-0.1c11.5-5.7,18.9-15.4,21.1-28.1C827.4,361.5,826,354.1,825.8,353z"/>
<path d="M624.3,517.4c-2.8-16.9-24.2-44.2-25.4-45.7c-25.4-33.2-55.4-79.6-55.7-80l-3.1-4.8l-3.1,4.8c-0.3,0.5-30.4,46.8-55.8,80
	c-1.2,1.5-22.6,28.8-25.4,45.7c-0.2,1.1-1.6,8.5,0,17.4c2.3,12.7,9.6,22.4,21.1,28.1l0.3,0.1c0.4,0.1,9.2,3.5,19.9-1.3
	c10.6-4.7,19.2-15.4,25.4-31.9c0.7-1.8,1.9-3.9,2.7-4.9c0.6,0.9,1.8,3.1,3,8.3l0,0.1c0,0.2,0.1,0.3,0.1,0.5c0.2,0.9,1,7-0.2,15.4
	c-1.1,7.3-3.9,17.9-11.7,27.2l-5.1,6.1l57.7,0l-5.1-6.1c-7.7-9.3-10.6-19.9-11.7-27.2c-1.2-8.4-0.4-14.5-0.2-15.4
	c0-0.2,0.1-0.3,0.1-0.5l0-0.1c1.2-5.3,2.4-7.5,3-8.4c0.9,0.9,2,3,2.7,4.9c6.2,16.5,14.8,27.2,25.4,31.9c10.7,4.8,19.5,1.4,19.9,1.3
	l0.3-0.1c11.5-5.7,18.9-15.4,21.1-28.1C625.9,525.8,624.5,518.4,624.3,517.4z"/>
<path d="M422.8,943c-2.8,16.9-24.2,44.2-25.4,45.7c-25.4,33.2-55.4,79.6-55.7,80l-3.1,4.8l-3.1-4.8c-0.3-0.5-30.4-46.8-55.8-80
	c-1.2-1.5-22.6-28.8-25.4-45.7c-0.2-1.1-1.6-8.5,0-17.4c2.3-12.7,9.6-22.4,21.1-28.1l0.3-0.1c0.4-0.1,9.2-3.5,19.9,1.3
	c10.6,4.7,19.2,15.4,25.4,31.9c0.7,1.8,1.9,3.9,2.7,4.9c0.6-0.9,1.8-3.1,3-8.3l0-0.1c0-0.2,0.1-0.3,0.1-0.5c0.2-0.9,1-7-0.2-15.4
	c-1.1-7.3-3.9-17.9-11.7-27.2l-5.1-6.1l57.7,0l-5.1,6.1c-7.7,9.3-10.6,19.9-11.7,27.2c-1.2,8.4-0.4,14.5-0.2,15.4
	c0,0.2,0.1,0.3,0.1,0.5l0,0.1c1.2,5.3,2.4,7.5,3,8.4c0.9-0.9,2-3,2.7-4.9c6.2-16.5,14.8-27.2,25.4-31.9c10.7-4.8,19.5-1.4,19.9-1.3
	l0.3,0.1c11.5,5.7,18.9,15.4,21.1,28.1C424.5,934.5,423.1,941.9,422.8,943z"/>
<path d="M825.8,943c-2.8,16.9-24.2,44.2-25.4,45.7c-25.4,33.2-55.4,79.6-55.7,80l-3.1,4.8l-3.1-4.8c-0.3-0.5-30.4-46.8-55.8-80
	c-1.2-1.5-22.6-28.8-25.4-45.7c-0.2-1.1-1.6-8.5,0-17.4c2.3-12.7,9.6-22.4,21.1-28.1l0.3-0.1c0.4-0.1,9.2-3.5,19.9,1.3
	c10.6,4.7,19.2,15.4,25.4,31.9c0.7,1.8,1.9,3.9,2.7,4.9c0.6-0.9,1.8-3.1,3-8.3l0-0.1c0-0.2,0.1-0.3,0.1-0.5c0.2-0.9,1-7-0.2-15.4
	c-1.1-7.3-3.9-17.9-11.7-27.2l-5.1-6.1l57.7,0l-5.1,6.1c-7.7,9.3-10.6,19.9-11.7,27.2c-1.2,8.4-0.4,14.5-0.2,15.4
	c0,0.2,0.1,0.3,0.1,0.5l0,0.1c1.2,5.3,2.4,7.5,3,8.4c0.9-0.9,2-3,2.7-4.9c6.2-16.5,14.8-27.2,25.4-31.9c10.7-4.8,19.5-1.4,19.9-1.3
	l0.3,0.1c11.5,5.7,18.9,15.4,21.1,28.1C827.4,934.5,826,941.9,825.8,943z"/>
<path d="M152.7,278.6c-1.6-9.3-13.4-24.4-14-25.2c-14-18.3-30.6-43.9-30.8-44.2l-1.7-2.7l-1.7,2.7c-0.2,0.3-16.8,25.8-30.8,44.1
	c-0.6,0.8-12.5,15.9-14,25.2c-0.1,0.6-0.9,4.7,0,9.6c1.3,7,5.3,12.4,11.7,15.5l0.2,0.1c0.2,0.1,5.1,1.9,11-0.7
	c5.9-2.6,10.6-8.5,14-17.6c0.4-1,1-2.2,1.5-2.7c0.3,0.5,1,1.7,1.6,4.6l0,0.1c0,0.1,0,0.2,0.1,0.3c0.1,0.5,0.5,3.9-0.1,8.5
	c-0.6,4-2.2,9.9-6.5,15l-2.8,3.4l31.9,0l-2.8-3.4c-4.3-5.1-5.9-11-6.4-15c-0.7-4.6-0.2-8-0.1-8.5c0-0.1,0-0.2,0.1-0.3l0,0
	c0.7-2.9,1.3-4.1,1.7-4.6c0.5,0.5,1.1,1.7,1.5,2.7c3.4,9.1,8.1,15,14,17.6c5.9,2.6,10.8,0.8,11,0.7l0.2-0.1
	c6.4-3.1,10.4-8.5,11.7-15.5C153.6,283.3,152.8,279.2,152.7,278.6z"/>
<path d="M927.3,1017.4c1.6,9.3,13.4,24.4,14,25.2c14,18.3,30.6,43.9,30.8,44.2l1.7,2.7l1.7-2.7c0.2-0.3,16.8-25.8,30.8-44.1
	c0.6-0.8,12.5-15.9,14-25.2c0.1-0.6,0.9-4.7,0-9.6c-1.3-7-5.3-12.4-11.7-15.5l-0.2-0.1c-0.2-0.1-5.1-1.9-11,0.7
	c-5.9,2.6-10.6,8.5-14,17.6c-0.4,1-1,2.2-1.5,2.7c-0.3-0.5-1-1.7-1.6-4.6l0-0.1c0-0.1,0-0.2-0.1-0.3c-0.1-0.5-0.5-3.9,0.1-8.5
	c0.6-4,2.2-9.9,6.5-15l2.8-3.4l-31.9,0l2.8,3.4c4.3,5.1,5.9,11,6.4,15c0.7,4.6,0.2,8,0.1,8.5c0,0.1,0,0.2-0.1,0.3l0,0
	c-0.7,2.9-1.3,4.1-1.7,4.6c-0.5-0.5-1.1-1.7-1.5-2.7c-3.4-9.1-8.1-15-14-17.6c-5.9-2.6-10.8-0.8-11-0.7l-0.2,0.1
	c-6.4,3.1-10.4,8.5-11.7,15.5C926.4,1012.7,927.2,1016.8,927.3,1017.4z"/>
<path fill="#11100D" d="M152.3,27.3v13.2L91.7,176.2H67.3L126.8,47H78v14.1H60.1V47V27.3H152.3z"/>
<path fill="#11100D" d="M927.7,1270.7v-13.2l60.6-135.8h24.4l-59.5,129.2h48.8v-14.1h17.9v14.1v19.8H927.7z"/>
</svg>
