<?xml version="1.0" encoding="utf-8"?>
<!-- Generator: Adobe Illustrator 18.1.0, SVG Export Plug-In . SVG Version: 6.00 Build 0)  -->
<svg version="1.1" id="Layer_10" xmlns="http://www.w3.org/2000/svg" xmlns:xlink="http://www.w3.org/1999/xlink" x="0px" y="0px"
	 viewBox="0 0 1080 1296" enable-background="new 0 0 1080 1296" xml:space="preserve">
<path d="M422.8,353c-2.8-16.9-24.2-44.2-25.4-45.7c-25.4-33.2-55.4-79.6-55.7-80l-3.1-4.8l-3.1,4.8c-0.3,0.5-30.4,46.8-55.8,80
	c-1.2,1.5-22.6,28.8-25.4,45.7c-0.2,1.1-1.6,8.5,0,17.4c2.3,12.7,9.6,22.4,21.1,28.1l0.3,0.1c0.4,0.1,9.2,3.5,19.9-1.3
	c10.6-4.7,19.2-15.4,25.4-31.9c0.7-1.8,1.9-3.9,2.7-4.9c0.6,0.9,1.8,3.1,3,8.3l0,0.1c0,0.2,0.1,0.3,0.1,0.5c0.2,0.9,1,7-0.2,15.4
	c-1.1,7.3-3.9,17.9-11.7,27.2l-5.1,6.1l57.7,0l-5.1-6.1c-7.7-9.3-10.6-19.9-11.7-27.2c-1.2-8.4-0.4-14.5-0.2-15.4
	c0-0.2,0.1-0.3,0.1-0.5l0-0.1c1.2-5.3,2.4-7.5,3-8.4c0.9,0.9,2,3,2.7,4.9c6.2,16.5,14.8,27.2,25.4,31.9c10.7,4.8,19.5,1.4,19.9,1.3
	l0.3-0.1c11.5-5.7,18.9-15.4,21.1-28.1C424.5,361.5,423.1,354.1,422.8,353z"/>
<path d="M422.8,681.7c-2.8-16.9-24.2-44.2-25.4-45.7c-25.4-33.2-55.4-79.6-55.7-80l-3.1-4.8l-3.1,4.8c-0.3,0.5-30.4,46.8-55.8,80
	c-1.2,1.5-22.6,28.8-25.4,45.7c-0.2,1.1-1.6,8.5,0,17.4c2.3,12.7,9.6,22.4,21.1,28.1l0.3,0.1c0.4,0.1,9.2,3.5,19.9-1.3
	c10.6-4.7,19.2-15.4,25.4-31.9c0.7-1.8,1.9-3.9,2.7-4.9c0.6,0.9,1.8,3.1,3,8.3l0,0.1c0,0.2,0.1,0.3,0.1,0.5c0.2,0.9,1,7-0.2,15.4
	c-1.1,7.3-3.9,17.9-11.7,27.2l-5.1,6.1l57.7,0l-5.1-6.1c-7.7-9.3-10.6-19.9-11.7-27.2c-1.2-8.4-0.4-14.5-0.2-15.4
	c0-0.2,0.1-0.3,0.1-0.5l0-0.1c1.2-5.3,2.4-7.5,3-8.4c0.9,0.9,2,3,2.7,4.9c6.2,16.5,14.8,27.2,25.4,31.9c10.7,4.8,19.5,1.4,19.9,1.3
	l0.3-0.1c11.5-5.7,18.9-15.4,21.1-28.1C424.5,690.2,423.1,682.8,422.8,681.7z"/>
<path d="M825.8,681.7c-2.8-16.9-24.2-44.2-25.4-45.7c-25.4-33.2-55.4-79.6-55.7-80l-3.1-4.8l-3.1,4.8c-0.3,0.5-30.4,46.8-55.8,80
	c-1.2,1.5-22.6,28.8-25.4,45.7c-0.2,1.1-1.6,8.5,0,17.4c2.3,12.7,9.6,22.4,21.1,28.1l0.3,0.1c0.4,0.1,9.2,3.5,19.9-1.3
	c10.6-4.7,19.2-15.4,25.4-31.9c0.7-1.8,1.9-3.9,2.7-4.9c0.6,0.9,1.8,3.1,3,8.3l0,0.1c0,0.2,0.1,0.3,0.1,0.5c0.2,0.9,1,7-0.2,15.4
	c-1.1,7.3-3.9,17.9-11.7,27.2l-5.1,6.1l57.7,0l-5.1-6.1c-7.7-9.3-10.6-19.9-11.7-27.2c-1.2-8.4-0.4-14.5-0.2-15.4
	c0-0.2,0.1-0.3,0.1-0.5l0-0.1c1.2-5.3,2.4-7.5,3-8.4c0.9,0.9,2,3,2.7,4.9c6.2,16.5,14.8,27.2,25.4,31.9c10.7,4.8,19.5,1.4,19.9,1.3
	l0.3-0.1c11.5-5.7,18.9-15.4,21.1-28.1C827.4,690.2,826,682.8,825.8,681.7z"/>
<path d="M825.8,353c-2.8-16.9-24.2-44.2-25.4-45.7c-25.4-33.2-55.4-79.6-55.7-80l-3.1-4.8l-3.1,4.8c-0.3,0.5-30.4,46.8-55.8,80
	c-1.2,1.5-22.6,28.8-25.4,45.7c-0.2,1.1-1.6,8.5,0,17.4c2.3,12.7,9.6,22.4,21.1,28.1l0.3,0.1c0.4,0.1,9.2,3.5,19.9-1.3
	c10.6-4.7,19.2-15.4,25.4-31.9c0.7-1.8,1.9-3.9,2.7-4.9c0.6,0.9,1.8,3.1,3,8.3l0,0.1c0,0.2,0.1,0.3,0.1,0.5c0.2,0.9,1,7-0.2,15.4
	c-1.1,7.3-3.9,17.9-11.7,27.2l-5.1,6.1l57.7,0l-5.1-6.1c-7.7-9.3-10.6-19.9-11.7-27.2c-1.2-8.4-0.4-14.5-0.2-15.4
	c0-0.2,0.1-0.3,0.1-0.5l0-0.1c1.2-5.3,2.4-7.5,3-8.4c0.9,0.9,2,3,2.7,4.9c6.2,16.5,14.8,27.2,25.4,31.9c10.7,4.8,19.5,1.4,19.9,1.3
	l0.3-0.1c11.5-5.7,18.9-15.4,21.1-28.1C827.4,361.5,826,354.1,825.8,353z"/>
<path d="M624.3,517.4c-2.8-16.9-24.2-44.2-25.4-45.7c-25.4-33.2-55.4-79.6-55.7-80l-3.1-4.8l-3.1,4.8c-0.3,0.5-30.4,46.8-55.8,80
	c-1.2,1.5-22.6,28.8-25.4,45.7c-0.2,1.1-1.6,8.5,0,17.4c2.3,12.7,9.6,22.4,21.1,28.1l0.3,0.1c0.4,0.1,9.2,3.5,19.9-1.3
	c10.6-4.7,19.2-15.4,25.4-31.9c0.7-1.8,1.9-3.9,2.7-4.9c0.6,0.9,1.8,3.1,3,8.3l0,0.1c0,0.2,0.1,0.3,0.1,0.5c0.2,0.9,1,7-0.2,15.4
	c-1.1,7.3-3.9,17.9-11.7,27.2l-5.1,6.1l57.7,0l-5.1-6.1c-7.7-9.3-10.6-19.9-11.7-27.2c-1.2-8.4-0.4-14.5-0.2-15.4
	c0-0.2,0.1-0.3,0.1-0.5l0-0.1c1.2-5.3,2.4-7.5,3-8.4c0.9,0.9,2,3,2.7,4.9c6.2,16.5,14.8,27.2,25.4,31.9c10.7,4.8,19.5,1.4,19.9,1.3
	l0.3-0.1c11.5-5.7,18.9-15.4,21.1-28.1C625.9,525.8,624.5,518.4,624.3,517.4z"/>
<path d="M422.8,943c-2.8,16.9-24.2,44.2-25.4,45.7c-25.4,33.2-55.4,79.6-55.7,80l-3.1,4.8l-3.1-4.8c-0.3-0.5-30.4-46.8-55.8-80
	c-1.2-1.5-22.6-28.8-25.4-45.7c-0.2-1.1-1.6-8.5,0-17.4c2.3-12.7,9.6-22.4,21.1-28.1l0.3-0.1c0.4-0.1,9.2-3.5,19.9,1.3
	c10.6,4.7,19.2,15.4,25.4,31.9c0.7,1.8,1.9,3.9,2.7,4.9c0.6-0.9,1.8-3.1,3-8.3l0-0.1c0-0.2,0.1-0.3,0.1-0.5c0.2-0.9,1-7-0.2-15.4
	c-1.1-7.3-3.9-17.9-11.7-27.2l-5.1-6.1l57.7,0l-5.1,6.1c-7.7,9.3-10.6,19.9-11.7,27.2c-1.2,8.4-0.4,14.5-0.2,15.4
	c0,0.2,0.1,0.3,0.1,0.5l0,0.1c1.2,5.3,2.4,7.5,3,8.4c0.9-0.9,2-3,2.7-4.9c6.2-16.5,14.8-27.2,25.4-31.9c10.7-4.8,19.5-1.4,19.9-1.3
	l0.3,0.1c11.5,5.7,18.9,15.4,21.1,28.1C424.5,934.5,423.1,941.9,422.8,943z"/>
<path d="M825.8,943c-2.8,16.9-24.2,44.2-25.4,45.7c-25.4,33.2-55.4,79.6-55.7,80l-3.1,4.8l-3.1-4.8c-0.3-0.5-30.4-46.8-55.8-80
	c-1.2-1.5-22.6-28.8-25.4-45.7c-0.2-1.1-1.6-8.5,0-17.4c2.3-12.7,9.6-22.4,21.1-28.1l0.3-0.1c0.4-0.1,9.2-3.5,19.9,1.3
	c10.6,4.7,19.2,15.4,25.4,31.9c0.7,1.8,1.9,3.9,2.7,4.9c0.6-0.9,1.8-3.1,3-8.3l0-0.1c0-0.2,0.1-0.3,0.1-0.5c0.2-0.9,1-7-0.2-15.4
	c-1.1-7.3-3.9-17.9-11.7-27.2l-5.1-6.1l57.7,0l-5.1,6.1c-7.7,9.3-10.6,19.9-11.7,27.2c-1.2,8.4-0.4,14.5-0.2,15.4
	c0,0.2,0.1,0.3,0.1,0.5l0,0.1c1.2,5.3,2.4,7.5,3,8.4c0.9-0.9,2-3,2.7-4.9c6.2-16.5,14.8-27.2,25.4-31.9c10.7-4.8,19.5-1.4,19.9-1.3
	l0.3,0.1c11.5,5.7,18.9,15.4,21.1,28.1C827.4,934.5,826,941.9,825.8,943z"/>
<path d="M624.3,778.6c-2.8,16.9-24.2,44.2-25.4,45.7c-25.4,33.2-55.4,79.6-55.7,80l-3.1,4.8l-3.1-4.8c-0.3-0.5-30.4-46.8-55.8-80
	c-1.2-1.5-22.6-28.8-25.4-45.7c-0.2-1.1-1.6-8.5,0-17.4c2.3-12.7,9.6-22.4,21.1-28.1l0.3-0.1c0.4-0.1,9.2-3.5,19.9,1.3
	c10.6,4.7,19.2,15.4,25.4,31.9c0.7,1.8,1.9,3.9,2.7,4.9c0.6-0.9,1.8-3.1,3-8.3l0-0.1c0-0.2,0.1-0.3,0.1-0.5c0.2-0.9,1-7-0.2-15.4
	c-1.1-7.3-3.9-17.9-11.7-27.2l-5.1-6.1l57.7,0l-5.1,6.1c-7.7,9.3-10.6,19.9-11.7,27.2c-1.2,8.4-0.4,14.5-0.2,15.4
	c0,0.2,0.1,0.3,0.1,0.5l0,0.1c1.2,5.3,2.4,7.5,3,8.4c0.9-0.9,2-3,2.7-4.9c6.2-16.5,14.8-27.2,25.4-31.9c10.7-4.8,19.5-1.4,19.9-1.3
	l0.3,0.1c11.5,5.7,18.9,15.4,21.1,28.1C625.9,770.2,624.5,777.6,624.3,778.6z"/>
<path d="M152.7,278.6c-1.6-9.3-13.4-24.4-14-25.2c-14-18.3-30.6-43.9-30.8-44.2l-1.7-2.7l-1.7,2.7c-0.2,0.3-16.8,25.8-30.8,44.1
	c-0.6,0.8-12.5,15.9-14,25.2c-0.1,0.6-0.9,4.7,0,9.6c1.3,7,5.3,12.4,11.7,15.5l0.2,0.1c0.2,0.1,5.1,1.9,11-0.7
	c5.9-2.6,10.6-8.5,14-17.6c0.4-1,1-2.2,1.5-2.7c0.3,0.5,1,1.7,1.6,4.6l0,0.1c0,0.1,0,0.2,0.1,0.3c0.1,0.5,0.5,3.9-0.1,8.5
	c-0.6,4-2.2,9.9-6.5,15l-2.8,3.4l31.9,0l-2.8-3.4c-4.3-5.1-5.9-11-6.4-15c-0.7-4.6-0.2-8-0.1-8.5c0-0.1,0-0.2,0.1-0.3l0,0
	c0.7-2.9,1.3-4.1,1.7-4.6c0.5,0.5,1.1,1.7,1.5,2.7c3.4,9.1,8.1,15,14,17.6c5.9,2.6,10.8,0.8,11,0.7l0.2-0.1
	c6.4-3.1,10.4-8.5,11.7-15.5C153.6,283.3,152.8,279.2,152.7,278.6z"/>
<path d="M927.3,1017.4c1.6,9.3,13.4,24.4,14,25.2c14,18.3,30.6,43.9,30.8,44.2l1.7,2.7l1.7-2.7c0.2-0.3,16.8-25.8,30.8-44.1
	c0.6-0.8,12.5-15.9,14-25.2c0.1-0.6,0.9-4.7,0-9.6c-1.3-7-5.3-12.4-11.7-15.5l-0.2-0.1c-0.2-0.1-5.1-1.9-11,0.7
	c-5.9,2.6-10.6,8.5-14,17.6c-0.4,1-1,2.2-1.5,2.7c-0.3-0.5-1-1.7-1.6-4.6l0-0.1c0-0.1,0-0.2-0.1-0.3c-0.1-0.5-0.5-3.9,0.1-8.5
	c0.6-4,2.2-9.9,6.5-15l2.8-3.4l-31.9,0l2.8,3.4c4.3,5.1,5.9,11,6.4,15c0.7,4.6,0.2,8,0.1,8.5c0,0.1,0,0.2-0.1,0.3l0,0
	c-0.7,2.9-1.3,4.1-1.7,4.6c-0.5-0.5-1.1-1.7-1.5-2.7c-3.4-9.1-8.1-15-14-17.6c-5.9-2.6-10.8-0.8-11-0.7l-0.2,0.1
	c-6.4,3.1-10.4,8.5-11.7,15.5C926.4,1012.7,927.2,1016.8,927.3,1017.4z"/>
<path fill="#11100D" d="M1017.6,1158.7c0,7.4-2,14-5.9,19.8c-3.9,5.8-9.2,10.3-15.9,13.6c7.8,3.3,13.9,8.2,18.4,14.6
	c4.5,6.4,6.8,13.7,6.8,21.8c0,12.9-4.3,23.1-13,30.7c-8.7,7.6-20.1,11.4-34.3,11.4c-14.3,0-25.8-3.8-34.4-11.5
	c-8.6-7.7-12.9-17.9-12.9-30.7c0-8,2.2-15.3,6.6-21.8c4.4-6.5,10.5-11.4,18.2-14.7c-6.6-3.3-11.8-7.8-15.6-13.6
	c-3.8-5.8-5.7-12.4-5.7-19.7c0-12.5,4-22.5,12.1-29.8c8-7.4,18.6-11,31.8-11c13.1,0,23.6,3.7,31.7,11
	C1013.6,1136.3,1017.6,1146.2,1017.6,1158.7z M1002.2,1228.1c0-8.3-2.6-15.1-7.9-20.3c-5.3-5.2-12.2-7.9-20.7-7.9
	c-8.5,0-15.3,2.6-20.5,7.8c-5.1,5.2-7.7,12-7.7,20.4c0,8.4,2.5,15.1,7.5,19.9c5,4.8,12,7.3,20.9,7.3c8.9,0,15.8-2.4,20.8-7.3
	C999.7,1243.1,1002.2,1236.4,1002.2,1228.1z M973.8,1133.4c-7.4,0-13.4,2.3-18,6.9c-4.6,4.6-6.9,10.8-6.9,18.7
	c0,7.6,2.3,13.7,6.8,18.3c4.5,4.7,10.6,7,18.1,7c7.6,0,13.6-2.3,18.1-7c4.5-4.7,6.8-10.8,6.8-18.3s-2.3-13.7-7-18.5
	C987,1135.8,981.1,1133.4,973.8,1133.4z"/>
<path fill="#11100D" d="M150,66.2c0,7.4-2,14-5.9,19.8c-3.9,5.8-9.2,10.3-15.9,13.6c7.8,3.3,13.9,8.2,18.4,14.6
	c4.5,6.4,6.8,13.7,6.8,21.8c0,12.9-4.3,23.1-13,30.7c-8.7,7.6-20.1,11.4-34.3,11.4c-14.3,0-25.8-3.8-34.4-11.5
	c-8.6-7.7-12.9-17.9-12.9-30.7c0-8,2.2-15.3,6.6-21.8c4.4-6.5,10.5-11.4,18.2-14.7c-6.6-3.3-11.8-7.8-15.6-13.6
	c-3.8-5.8-5.7-12.4-5.7-19.7c0-12.5,4-22.5,12.1-29.8c8-7.4,18.6-11,31.8-11c13.1,0,23.6,3.7,31.7,11C145.9,43.7,150,53.7,150,66.2z
	 M134.6,135.5c0-8.3-2.6-15.1-7.9-20.3c-5.3-5.2-12.2-7.9-20.7-7.9c-8.5,0-15.3,2.6-20.5,7.8c-5.1,5.2-7.7,12-7.7,20.4
	c0,8.4,2.5,15.1,7.5,19.9c5,4.8,12,7.3,20.9,7.3c8.9,0,15.8-2.4,20.8-7.3C132,150.5,134.6,143.9,134.6,135.5z M106.2,40.9
	c-7.4,0-13.4,2.3-18,6.9c-4.6,4.6-6.9,10.8-6.9,18.7c0,7.6,2.3,13.7,6.8,18.3c4.5,4.7,10.6,7,18.1,7c7.6,0,13.6-2.3,18.1-7
	c4.5-4.7,6.8-10.8,6.8-18.3s-2.3-13.7-7-18.5C119.3,43.2,113.4,40.9,106.2,40.9z"/>
</svg>
