<?xml version="1.0" encoding="utf-8"?>
<!-- Generator: Adobe Illustrator 18.1.0, SVG Export Plug-In . SVG Version: 6.00 Build 0)  -->
<svg version="1.1" id="Layer_10" xmlns="http://www.w3.org/2000/svg" xmlns:xlink="http://www.w3.org/1999/xlink" x="0px" y="0px"
	 viewBox="0 0 1080 1296" enable-background="new 0 0 1080 1296" xml:space="preserve">
<path d="M152.7,278.6c-1.6-9.3-13.4-24.4-14-25.2c-14-18.3-30.6-43.9-30.8-44.2l-1.7-2.7l-1.7,2.7c-0.2,0.3-16.8,25.8-30.8,44.1
	c-0.6,0.8-12.5,15.9-14,25.2c-0.1,0.6-0.9,4.7,0,9.6c1.3,7,5.3,12.4,11.7,15.5l0.2,0.1c0.2,0.1,5.1,1.9,11-0.7
	c5.9-2.6,10.6-8.5,14-17.6c0.4-1,1-2.2,1.5-2.7c0.3,0.5,1,1.7,1.6,4.6l0,0.1c0,0.1,0,0.2,0.1,0.3c0.1,0.5,0.5,3.9-0.1,8.5
	c-0.6,4-2.2,9.9-6.5,15l-2.8,3.4l31.9,0l-2.8-3.4c-4.3-5.1-5.9-11-6.4-15c-0.7-4.6-0.2-8-0.1-8.5c0-0.1,0-0.2,0.1-0.3l0,0
	c0.7-2.9,1.3-4.1,1.7-4.6c0.5,0.5,1.1,1.7,1.5,2.7c3.4,9.1,8.1,15,14,17.6c5.9,2.6,10.8,0.8,11,0.7l0.2-0.1
	c6.4-3.1,10.4-8.5,11.7-15.5C153.6,283.3,152.8,279.2,152.7,278.6z"/>
<path fill="#11100D" d="M68.7,158.5h19.5v17.5H68.7v0h-19v0H30.2v-17.5h19.5V53.7l-19.5,7.1V40.1l35.6-13.4h3V158.5z M182.1,88.2
	v24.5c0,22.1-3.8,38.6-11.3,49.3c-7.6,10.8-19.4,16.1-35.4,16.1c-15.9,0-27.6-5.3-35.2-15.8c-7.6-10.5-11.6-26.2-11.8-47.1V90
	c0-21.9,3.8-38.1,11.3-48.7c7.6-10.6,19.4-15.9,35.5-15.9c16,0,27.8,5.1,35.3,15.4C178,51,181.9,66.8,182.1,88.2z M163.2,86.8
	c0-16-2.2-27.7-6.7-35c-4.5-7.3-11.6-11-21.3-11c-9.7,0-16.7,3.6-21.1,10.9c-4.4,7.3-6.7,18.5-6.8,33.6v30.2c0,16.1,2.3,27.9,7,35.6
	c4.7,7.7,11.7,11.5,21.2,11.5c9.3,0,16.3-3.6,20.8-10.8c4.5-7.2,6.9-18.6,7.1-34.1V86.8z"/>
<path d="M927.3,1017.4c1.6,9.3,13.4,24.4,14,25.2c14,18.3,30.6,43.9,30.8,44.2l1.7,2.7l1.7-2.7c0.2-0.3,16.8-25.8,30.8-44.1
	c0.6-0.8,12.5-15.9,14-25.2c0.1-0.6,0.9-4.7,0-9.6c-1.3-7-5.3-12.4-11.7-15.5l-0.2-0.1c-0.2-0.1-5.1-1.9-11,0.7
	c-5.9,2.6-10.6,8.5-14,17.6c-0.4,1-1,2.2-1.5,2.7c-0.3-0.5-1-1.7-1.6-4.6l0-0.1c0-0.1,0-0.2-0.1-0.3c-0.1-0.5-0.5-3.9,0.1-8.5
	c0.6-4,2.2-9.9,6.5-15l2.8-3.4l-31.9,0l2.8,3.4c4.3,5.1,5.9,11,6.4,15c0.7,4.6,0.2,8,0.1,8.5c0,0.1,0,0.2-0.1,0.3l0,0
	c-0.7,2.9-1.3,4.1-1.7,4.6c-0.5-0.5-1.1-1.7-1.5-2.7c-3.4-9.1-8.1-15-14-17.6c-5.9-2.6-10.8-0.8-11-0.7l-0.2,0.1
	c-6.4,3.1-10.4,8.5-11.7,15.5C926.4,1012.7,927.2,1016.8,927.3,1017.4z"/>
<path fill="#11100D" d="M1011.3,1137.5h-19.5v-17.5h19.5v0h19v0h19.5v17.5h-19.5v104.8l19.5-7.1v20.7l-35.6,13.4h-3V1137.5z
	 M897.9,1207.8v-24.5c0-22.1,3.8-38.6,11.3-49.3c7.6-10.8,19.4-16.1,35.4-16.1c15.9,0,27.6,5.3,35.2,15.8
	c7.6,10.5,11.6,26.2,11.8,47.1v25.2c0,21.9-3.8,38.1-11.3,48.7c-7.6,10.6-19.4,15.9-35.5,15.9c-16,0-27.8-5.1-35.3-15.4
	C902,1245,898.1,1229.2,897.9,1207.8z M916.8,1209.2c0,16,2.2,27.7,6.7,35c4.5,7.3,11.6,11,21.3,11c9.7,0,16.7-3.6,21.1-10.9
	c4.4-7.3,6.7-18.5,6.8-33.6v-30.2c0-16.1-2.3-27.9-7-35.6c-4.7-7.7-11.7-11.5-21.2-11.5c-9.3,0-16.3,3.6-20.8,10.8
	c-4.5,7.2-6.9,18.6-7.1,34.1V1209.2z"/>
<path d="M422.8,353c-2.8-16.9-24.2-44.2-25.4-45.7c-25.4-33.2-55.4-79.6-55.7-80l-3.1-4.8l-3.1,4.8c-0.3,0.5-30.4,46.8-55.8,80
	c-1.2,1.5-22.6,28.8-25.4,45.7c-0.2,1.1-1.6,8.5,0,17.4c2.3,12.7,9.6,22.4,21.1,28.1l0.3,0.1c0.4,0.1,9.2,3.5,19.9-1.3
	c10.6-4.7,19.2-15.4,25.4-31.9c0.7-1.8,1.9-3.9,2.7-4.9c0.6,0.9,1.8,3.1,3,8.3l0,0.1c0,0.2,0.1,0.3,0.1,0.5c0.2,0.9,1,7-0.2,15.4
	c-1.1,7.3-3.9,17.9-11.7,27.2l-5.1,6.1l57.7,0l-5.1-6.1c-7.7-9.3-10.6-19.9-11.7-27.2c-1.2-8.4-0.4-14.5-0.2-15.4
	c0-0.2,0.1-0.3,0.1-0.5l0-0.1c1.2-5.3,2.4-7.5,3-8.4c0.9,0.9,2,3,2.7,4.9c6.2,16.5,14.8,27.2,25.4,31.9c10.7,4.8,19.5,1.4,19.9,1.3
	l0.3-0.1c11.5-5.7,18.9-15.4,21.1-28.1C424.5,361.5,423.1,354.1,422.8,353z"/>
<path d="M422.8,575.6c-2.8-16.9-24.2-44.2-25.4-45.7c-25.4-33.2-55.4-79.6-55.7-80l-3.1-4.8l-3.1,4.8c-0.3,0.5-30.4,46.8-55.8,80
	c-1.2,1.5-22.6,28.8-25.4,45.7c-0.2,1.1-1.6,8.5,0,17.4c2.3,12.7,9.6,22.4,21.1,28.1l0.3,0.1c0.4,0.1,9.2,3.5,19.9-1.3
	c10.6-4.7,19.2-15.4,25.4-31.9c0.7-1.8,1.9-3.9,2.7-4.9c0.6,0.9,1.8,3.1,3,8.3l0,0.1c0,0.2,0.1,0.3,0.1,0.5c0.2,0.9,1,7-0.2,15.4
	c-1.1,7.3-3.9,17.9-11.7,27.2l-5.1,6.1l57.7,0l-5.1-6.1c-7.7-9.3-10.6-19.9-11.7-27.2c-1.2-8.4-0.4-14.5-0.2-15.4
	c0-0.2,0.1-0.3,0.1-0.5l0-0.1c1.2-5.3,2.4-7.5,3-8.4c0.9,0.9,2,3,2.7,4.9c6.2,16.5,14.8,27.2,25.4,31.9c10.7,4.8,19.5,1.4,19.9,1.3
	l0.3-0.1c11.5-5.7,18.9-15.4,21.1-28.1C424.5,584.1,423.1,576.7,422.8,575.6z"/>
<path d="M825.8,575.6c-2.8-16.9-24.2-44.2-25.4-45.7c-25.4-33.2-55.4-79.6-55.7-80l-3.1-4.8l-3.1,4.8c-0.3,0.5-30.4,46.8-55.8,80
	c-1.2,1.5-22.6,28.8-25.4,45.7c-0.2,1.1-1.6,8.5,0,17.4c2.3,12.7,9.6,22.4,21.1,28.1l0.3,0.1c0.4,0.1,9.2,3.5,19.9-1.3
	c10.6-4.7,19.2-15.4,25.4-31.9c0.7-1.8,1.9-3.9,2.7-4.9c0.6,0.9,1.8,3.1,3,8.3l0,0.1c0,0.2,0.1,0.3,0.1,0.5c0.2,0.9,1,7-0.2,15.4
	c-1.1,7.3-3.9,17.9-11.7,27.2l-5.1,6.1l57.7,0l-5.1-6.1c-7.7-9.3-10.6-19.9-11.7-27.2c-1.2-8.4-0.4-14.5-0.2-15.4
	c0-0.2,0.1-0.3,0.1-0.5l0-0.1c1.2-5.3,2.4-7.5,3-8.4c0.9,0.9,2,3,2.7,4.9c6.2,16.5,14.8,27.2,25.4,31.9c10.7,4.8,19.5,1.4,19.9,1.3
	l0.3-0.1c11.5-5.7,18.9-15.4,21.1-28.1C827.4,584.1,826,576.7,825.8,575.6z"/>
<path d="M825.8,353c-2.8-16.9-24.2-44.2-25.4-45.7c-25.4-33.2-55.4-79.6-55.7-80l-3.1-4.8l-3.1,4.8c-0.3,0.5-30.4,46.8-55.8,80
	c-1.2,1.5-22.6,28.8-25.4,45.7c-0.2,1.1-1.6,8.5,0,17.4c2.3,12.7,9.6,22.4,21.1,28.1l0.3,0.1c0.4,0.1,9.2,3.5,19.9-1.3
	c10.6-4.7,19.2-15.4,25.4-31.9c0.7-1.8,1.9-3.9,2.7-4.9c0.6,0.9,1.8,3.1,3,8.3l0,0.1c0,0.2,0.1,0.3,0.1,0.5c0.2,0.9,1,7-0.2,15.4
	c-1.1,7.3-3.9,17.9-11.7,27.2l-5.1,6.1l57.7,0l-5.1-6.1c-7.7-9.3-10.6-19.9-11.7-27.2c-1.2-8.4-0.4-14.5-0.2-15.4
	c0-0.2,0.1-0.3,0.1-0.5l0-0.1c1.2-5.3,2.4-7.5,3-8.4c0.9,0.9,2,3,2.7,4.9c6.2,16.5,14.8,27.2,25.4,31.9c10.7,4.8,19.5,1.4,19.9,1.3
	l0.3-0.1c11.5-5.7,18.9-15.4,21.1-28.1C827.4,361.5,826,354.1,825.8,353z"/>
<path d="M624.3,464.3c-2.8-16.9-24.2-44.2-25.4-45.7c-25.4-33.2-55.4-79.6-55.7-80l-3.1-4.8l-3.1,4.8c-0.3,0.5-30.4,46.8-55.8,80
	c-1.2,1.5-22.6,28.8-25.4,45.7c-0.2,1.1-1.6,8.5,0,17.4c2.3,12.7,9.6,22.4,21.1,28.1l0.3,0.1c0.4,0.1,9.2,3.5,19.9-1.3
	c10.6-4.7,19.2-15.4,25.4-31.9c0.7-1.8,1.9-3.9,2.7-4.9c0.6,0.9,1.8,3.1,3,8.3l0,0.1c0,0.2,0.1,0.3,0.1,0.5c0.2,0.9,1,7-0.2,15.4
	c-1.1,7.3-3.9,17.9-11.7,27.2l-5.1,6.1l57.7,0l-5.1-6.1c-7.7-9.3-10.6-19.9-11.7-27.2c-1.2-8.4-0.4-14.5-0.2-15.4
	c0-0.2,0.1-0.3,0.1-0.5l0-0.1c1.2-5.3,2.4-7.5,3-8.4c0.9,0.9,2,3,2.7,4.9c6.2,16.5,14.8,27.2,25.4,31.9c10.7,4.8,19.5,1.4,19.9,1.3
	l0.3-0.1c11.5-5.7,18.9-15.4,21.1-28.1C625.9,472.8,624.5,465.4,624.3,464.3z"/>
<path d="M422.8,943c-2.8,16.9-24.2,44.2-25.4,45.7c-25.4,33.2-55.4,79.6-55.7,80l-3.1,4.8l-3.1-4.8c-0.3-0.5-30.4-46.8-55.8-80
	c-1.2-1.5-22.6-28.8-25.4-45.7c-0.2-1.1-1.6-8.5,0-17.4c2.3-12.7,9.6-22.4,21.1-28.1l0.3-0.1c0.4-0.1,9.2-3.5,19.9,1.3
	c10.6,4.7,19.2,15.4,25.4,31.9c0.7,1.8,1.9,3.9,2.7,4.9c0.6-0.9,1.8-3.1,3-8.3l0-0.1c0-0.2,0.1-0.3,0.1-0.5c0.2-0.9,1-7-0.2-15.4
	c-1.1-7.3-3.9-17.9-11.7-27.2l-5.1-6.1l57.7,0l-5.1,6.1c-7.7,9.3-10.6,19.9-11.7,27.2c-1.2,8.4-0.4,14.5-0.2,15.4
	c0,0.2,0.1,0.3,0.1,0.5l0,0.1c1.2,5.3,2.4,7.5,3,8.4c0.9-0.9,2-3,2.7-4.9c6.2-16.5,14.8-27.2,25.4-31.9c10.7-4.8,19.5-1.4,19.9-1.3
	l0.3,0.1c11.5,5.7,18.9,15.4,21.1,28.1C424.5,934.5,423.1,941.9,422.8,943z"/>
<path d="M422.8,720.4c-2.8,16.9-24.2,44.2-25.4,45.7c-25.4,33.2-55.4,79.6-55.7,80l-3.1,4.8l-3.1-4.8c-0.3-0.5-30.4-46.8-55.8-80
	c-1.2-1.5-22.6-28.8-25.4-45.7c-0.2-1.1-1.6-8.5,0-17.4c2.3-12.7,9.6-22.4,21.1-28.1l0.3-0.1c0.4-0.1,9.2-3.5,19.9,1.3
	c10.6,4.7,19.2,15.4,25.4,31.9c0.7,1.8,1.9,3.9,2.7,4.9c0.6-0.9,1.8-3.1,3-8.3l0-0.1c0-0.2,0.1-0.3,0.1-0.5c0.2-0.9,1-7-0.2-15.4
	c-1.1-7.3-3.9-17.9-11.7-27.2l-5.1-6.1l57.7,0l-5.1,6.1c-7.7,9.3-10.6,19.9-11.7,27.2c-1.2,8.4-0.4,14.5-0.2,15.4
	c0,0.2,0.1,0.3,0.1,0.5l0,0.1c1.2,5.3,2.4,7.5,3,8.4c0.9-0.9,2-3,2.7-4.9c6.2-16.5,14.8-27.2,25.4-31.9c10.7-4.8,19.5-1.4,19.9-1.3
	l0.3,0.1c11.5,5.7,18.9,15.4,21.1,28.1C424.5,711.9,423.1,719.3,422.8,720.4z"/>
<path d="M825.8,720.4c-2.8,16.9-24.2,44.2-25.4,45.7c-25.4,33.2-55.4,79.6-55.7,80l-3.1,4.8l-3.1-4.8c-0.3-0.5-30.4-46.8-55.8-80
	c-1.2-1.5-22.6-28.8-25.4-45.7c-0.2-1.1-1.6-8.5,0-17.4c2.3-12.7,9.6-22.4,21.1-28.1l0.3-0.1c0.4-0.1,9.2-3.5,19.9,1.3
	c10.6,4.7,19.2,15.4,25.4,31.9c0.7,1.8,1.9,3.9,2.7,4.9c0.6-0.9,1.8-3.1,3-8.3l0-0.1c0-0.2,0.1-0.3,0.1-0.5c0.2-0.9,1-7-0.2-15.4
	c-1.1-7.3-3.9-17.9-11.7-27.2l-5.1-6.1l57.7,0l-5.1,6.1c-7.7,9.3-10.6,19.9-11.7,27.2c-1.2,8.4-0.4,14.5-0.2,15.4
	c0,0.2,0.1,0.3,0.1,0.5l0,0.1c1.2,5.3,2.4,7.5,3,8.4c0.9-0.9,2-3,2.7-4.9c6.2-16.5,14.8-27.2,25.4-31.9c10.7-4.8,19.5-1.4,19.9-1.3
	l0.3,0.1c11.5,5.7,18.9,15.4,21.1,28.1C827.4,711.9,826,719.3,825.8,720.4z"/>
<path d="M825.8,943c-2.8,16.9-24.2,44.2-25.4,45.7c-25.4,33.2-55.4,79.6-55.7,80l-3.1,4.8l-3.1-4.8c-0.3-0.5-30.4-46.8-55.8-80
	c-1.2-1.5-22.6-28.8-25.4-45.7c-0.2-1.1-1.6-8.5,0-17.4c2.3-12.7,9.6-22.4,21.1-28.1l0.3-0.1c0.4-0.1,9.2-3.5,19.9,1.3
	c10.6,4.7,19.2,15.4,25.4,31.9c0.7,1.8,1.9,3.9,2.7,4.9c0.6-0.9,1.8-3.1,3-8.3l0-0.1c0-0.2,0.1-0.3,0.1-0.5c0.2-0.9,1-7-0.2-15.4
	c-1.1-7.3-3.9-17.9-11.7-27.2l-5.1-6.1l57.7,0l-5.1,6.1c-7.7,9.3-10.6,19.9-11.7,27.2c-1.2,8.4-0.4,14.5-0.2,15.4
	c0,0.2,0.1,0.3,0.1,0.5l0,0.1c1.2,5.3,2.4,7.5,3,8.4c0.9-0.9,2-3,2.7-4.9c6.2-16.5,14.8-27.2,25.4-31.9c10.7-4.8,19.5-1.4,19.9-1.3
	l0.3,0.1c11.5,5.7,18.9,15.4,21.1,28.1C827.4,934.5,826,941.9,825.8,943z"/>
<path d="M624.3,831.7c-2.8,16.9-24.2,44.2-25.4,45.7c-25.4,33.2-55.4,79.6-55.7,80l-3.1,4.8l-3.1-4.8c-0.3-0.5-30.4-46.8-55.8-80
	c-1.2-1.5-22.6-28.8-25.4-45.7c-0.2-1.1-1.6-8.5,0-17.4c2.3-12.7,9.6-22.4,21.1-28.1l0.3-0.1c0.4-0.1,9.2-3.5,19.9,1.3
	c10.6,4.7,19.2,15.4,25.4,31.9c0.7,1.8,1.9,3.9,2.7,4.9c0.6-0.9,1.8-3.1,3-8.3l0-0.1c0-0.2,0.1-0.3,0.1-0.5c0.2-0.9,1-7-0.2-15.4
	c-1.1-7.3-3.9-17.9-11.7-27.2l-5.1-6.1l57.7,0l-5.1,6.1c-7.7,9.3-10.6,19.9-11.7,27.2c-1.2,8.4-0.4,14.5-0.2,15.4
	c0,0.2,0.1,0.3,0.1,0.5l0,0.1c1.2,5.3,2.4,7.5,3,8.4c0.9-0.9,2-3,2.7-4.9c6.2-16.5,14.8-27.2,25.4-31.9c10.7-4.8,19.5-1.4,19.9-1.3
	l0.3,0.1c11.5,5.7,18.9,15.4,21.1,28.1C625.9,823.2,624.5,830.6,624.3,831.7z"/>
</svg>
