<?xml version="1.0" encoding="utf-8"?>
<!-- Generator: Adobe Illustrator 18.1.0, SVG Export Plug-In . SVG Version: 6.00 Build 0)  -->
<svg version="1.1" id="Layer_10" xmlns="http://www.w3.org/2000/svg" xmlns:xlink="http://www.w3.org/1999/xlink" x="0px" y="0px"
	 viewBox="0 0 1080 1296" enable-background="new 0 0 1080 1296" xml:space="preserve">
<path d="M747,728.4c-6.9-41.6-59.5-108.6-62.3-112.3c-62.4-81.6-136.1-195.4-136.9-196.5l-7.7-11.9l-7.7,11.9
	c-0.7,1.1-74.5,114.8-137,196.4c-2.9,3.6-55.4,70.7-62.4,112.3c-0.5,2.6-4,20.8-0.1,42.7c5.6,31.2,23.5,55.1,51.9,69l0.7,0.3
	c0.9,0.4,22.5,8.6,48.8-3.1c26.1-11.6,47-37.9,62.3-78.4c1.7-4.5,4.6-9.6,6.7-12c1.5,2.2,4.3,7.6,7.3,20.5l0,0.2
	c0.1,0.4,0.2,0.8,0.3,1.2c0.5,2.1,2.4,17.3-0.6,37.8c-2.6,17.8-9.7,43.9-28.7,66.7l-12.5,15l141.7,0l-12.5-15
	c-19-22.8-26.1-48.9-28.7-66.7c-3-20.6-1-35.7-0.5-37.8c0.1-0.4,0.2-0.8,0.2-1.2l0-0.2c3-12.9,5.8-18.3,7.4-20.5
	c2.1,2.3,5,7.4,6.7,12c15.3,40.4,36.2,66.8,62.3,78.4c26.3,11.7,47.8,3.5,48.8,3.1l0.7-0.3c28.4-13.9,46.3-37.7,51.9-69
	C751,749.2,747.5,731,747,728.4z"/>
<path d="M142.2,26l-41.4,47.4l42.8,93.6h13.9v15h-45.3v-15h14.9L90,85.8l-5.7,6.6V167h15.2v15H54.1v-15h15.2V26H54.1V11h45.3v15
	H84.3v43.2l0.5-0.2l37.5-43h-10.1V11h45.3v15H142.2z"/>
<path d="M152.7,278.6c-1.6-9.3-13.4-24.4-14-25.2c-14-18.3-30.6-43.9-30.8-44.2l-1.7-2.7l-1.7,2.7c-0.2,0.3-16.8,25.8-30.8,44.1
	c-0.6,0.8-12.5,15.9-14,25.2c-0.1,0.6-0.9,4.7,0,9.6c1.3,7,5.3,12.4,11.7,15.5l0.2,0.1c0.2,0.1,5.1,1.9,11-0.7
	c5.9-2.6,10.6-8.5,14-17.6c0.4-1,1-2.2,1.5-2.7c0.3,0.5,1,1.7,1.6,4.6l0,0.1c0,0.1,0,0.2,0.1,0.3c0.1,0.5,0.5,3.9-0.1,8.5
	c-0.6,4-2.2,9.9-6.5,15l-2.8,3.4l31.9,0l-2.8-3.4c-4.3-5.1-5.9-11-6.4-15c-0.7-4.6-0.2-8-0.1-8.5c0-0.1,0-0.2,0.1-0.3l0,0
	c0.7-2.9,1.3-4.1,1.7-4.6c0.5,0.5,1.1,1.7,1.5,2.7c3.4,9.1,8.1,15,14,17.6c5.9,2.6,10.8,0.8,11,0.7l0.2-0.1
	c6.4-3.1,10.4-8.5,11.7-15.5C153.6,283.3,152.8,279.2,152.7,278.6z"/>
<path d="M937.8,1270l41.4-47.4l-42.8-93.6h-13.9v-15h45.3v15h-14.9l37.1,81.2l5.7-6.6V1129h-15.2v-15h45.3v15h-15.2v141h15.2v15
	h-45.3v-15h15.2v-43.2l-0.5,0.2l-37.5,43h10.1v15h-45.3v-15H937.8z"/>
<path d="M927.3,1017.4c1.6,9.3,13.4,24.4,14,25.2c14,18.3,30.6,43.9,30.8,44.2l1.7,2.7l1.7-2.7c0.2-0.3,16.8-25.8,30.8-44.1
	c0.6-0.8,12.5-15.9,14-25.2c0.1-0.6,0.9-4.7,0-9.6c-1.3-7-5.3-12.4-11.7-15.5l-0.2-0.1c-0.2-0.1-5.1-1.9-11,0.7
	c-5.9,2.6-10.6,8.5-14,17.6c-0.4,1-1,2.2-1.5,2.7c-0.3-0.5-1-1.7-1.6-4.6l0-0.1c0-0.1,0-0.2-0.1-0.3c-0.1-0.5-0.5-3.9,0.1-8.5
	c0.6-4,2.2-9.9,6.5-15l2.8-3.4l-31.9,0l2.8,3.4c4.3,5.1,5.9,11,6.4,15c0.7,4.6,0.2,8,0.1,8.5c0,0.1,0,0.2-0.1,0.3l0,0
	c-0.7,2.9-1.3,4.1-1.7,4.6c-0.5-0.5-1.1-1.7-1.5-2.7c-3.4-9.1-8.1-15-14-17.6c-5.9-2.6-10.8-0.8-11-0.7l-0.2,0.1
	c-6.4,3.1-10.4,8.5-11.7,15.5C926.4,1012.7,927.2,1016.8,927.3,1017.4z"/>
</svg>
