<?xml version="1.0" encoding="utf-8"?>
<!-- Generator: Adobe Illustrator 18.1.0, SVG Export Plug-In . SVG Version: 6.00 Build 0)  -->
<svg version="1.1" id="Layer_10" xmlns="http://www.w3.org/2000/svg" xmlns:xlink="http://www.w3.org/1999/xlink" x="0px" y="0px"
	 viewBox="0 0 1080 1296" enable-background="new 0 0 1080 1296" xml:space="preserve">
<path d="M747,728.4c-6.9-41.6-59.5-108.6-62.3-112.3c-62.4-81.6-136.1-195.4-136.9-196.5l-7.7-11.9l-7.7,11.9
	c-0.7,1.1-74.5,114.8-137,196.4c-2.9,3.6-55.4,70.7-62.4,112.3c-0.5,2.6-4,20.8-0.1,42.7c5.6,31.2,23.5,55.1,51.9,69l0.7,0.3
	c0.9,0.4,22.5,8.6,48.8-3.1c26.1-11.6,47-37.9,62.3-78.4c1.7-4.5,4.6-9.6,6.7-12c1.5,2.2,4.3,7.6,7.3,20.5l0,0.2
	c0.1,0.4,0.2,0.8,0.3,1.2c0.5,2.1,2.4,17.3-0.6,37.8c-2.6,17.8-9.7,43.9-28.7,66.7l-12.5,15l141.7,0l-12.5-15
	c-19-22.8-26.1-48.9-28.7-66.7c-3-20.6-1-35.7-0.5-37.8c0.1-0.4,0.2-0.8,0.2-1.2l0-0.2c3-12.9,5.8-18.3,7.4-20.5
	c2.1,2.3,5,7.4,6.7,12c15.3,40.4,36.2,66.8,62.3,78.4c26.3,11.7,47.8,3.5,48.8,3.1l0.7-0.3c28.4-13.9,46.3-37.7,51.9-69
	C751,749.2,747.5,731,747,728.4z"/>
<path fill="#11100D" d="M165.3,184.2c0-1.1,0-3-0.2-5.3c0-1-0.1-2.2-0.2-3.8c-0.1-1.5-0.2-3-0.4-4.5c-0.3-3.2-0.8-6.9-1.6-10.9
	c-0.8-4.6-2-8.9-3.5-13.1c-1.5-4-3.7-9.3-7.5-14.2c-1.8-2.4-3.9-4.6-6.2-6.7c-0.3-0.3-0.6-0.5-0.9-0.8l0-1.4c-0.1-5.6-0.3-12-0.3-19
	c-0.1-10.4,0-19.2,0.1-26.9c0.4-28.7,0.6-41.8-11.1-52.9c-2-1.9-8-7.6-22.8-10.6c-1.8-0.4-3.8-0.6-5.7-0.6
	c-15.7,0-29.5,11.7-29.7,11.8C63.7,36.2,63.8,47.7,64.2,90.2l0,0.5c0,3.5,0.1,7.3,0.1,11.3c0,3.2,0,6.3,0.1,9.2
	c0.1,9,0.1,16.9,0.3,23.5c-0.4,0.4-0.8,0.8-1.2,1.2c-2.5,2.4-4.9,5.1-7.4,8.2c-1.8,2.3-3.5,4.6-5,6.9c-1.4,2.2-2.3,3.7-2.8,4.7
	l-0.1,0.2c-0.3,0.5-0.5,0.8-0.6,1.1l-1.1,2.3l6.3,5l7.2-5.7c1.8-1.4,3.9-3,6.3-4.9c1.5,9.7,4.5,15.9,10.2,22
	c8.8,9.3,19.4,14.4,29.8,14.4c0.7,0,1.3,0,2-0.1c11.8-0.7,19.9-7.8,23-10.5l0.1-0.1c0.2-0.2,0.3-0.3,0.5-0.4
	c7.8-6.3,11-13.8,12.4-23c1,2.7,1.7,5.3,2.3,7.6c0.9,3.5,1.6,6.7,2.1,9.5c0.3,1.3,0.5,2.6,0.7,4c0.2,1.2,0.4,2.4,0.6,3.5
	c0.3,2,0.5,3.5,0.7,4.7l0.6,4.3l14.2-1L165.3,184.2z M129.5,104.7c0,4.5,0.1,8.7,0.2,12.5c-0.1,0-0.3-0.1-0.4-0.1
	c-3-0.8-5.9-1.4-8.8-1.8c-3.1-0.4-5.8-0.6-8.6-0.6l-0.7,0c-0.5,0-1.1,0-1.4,0l-1.9,0c-1.5,0-3,0.2-4.4,0.3l-0.2,0
	c-5.5,0.7-11.1,2.2-16.5,4.7c-2.5,1.1-4.9,2.4-7.3,3.8c0-3.9-0.1-8-0.1-12.4l-0.1-9.2c0-3.9-0.1-7.6-0.1-11.1l0-0.7
	c-0.4-39-0.3-47.5,6.3-53.7c1.6-1.3,11.1-7.9,19.5-7.9c1,0,1.9,0.1,2.8,0.3c10.6,2.1,14.2,5.6,15.4,6.8c6.9,6.6,6.8,17,6.5,41.9
	C129.6,85.2,129.4,94.1,129.5,104.7z M83.2,141.9c3.8-2.3,7.3-4.1,10.8-5.5c3.7-1.6,7.6-2.6,11.4-3c0.3,0,0.5,0,0.8-0.1
	c0.2,0,0.4,0,0.6,0l3.5-0.1c0.3,0,0.5,0,0.8,0c0.2,0,0.4,0,0.7,0c0.9,0,1.8,0.1,2.8,0.1l0.4,0c1.2,0.1,2.2,0.2,3.2,0.3
	c4.4,0.6,8.2,1.6,11.3,3.3c0.2,0.1,0.4,0.2,0.5,0.3c0.1,19.2-1.4,24.9-7.7,30c-0.3,0.2-0.6,0.5-1,0.9c-2.2,1.9-7.3,6.4-14,6.8
	c-0.4,0-0.7,0-1.1,0c-6.3,0-13-3.4-18.9-9.7c-4.5-4.8-6.3-10.1-7.1-21.5C81.2,143.1,82.2,142.5,83.2,141.9z M106.2,187.5
	L106.2,187.5L106.2,187.5L106.2,187.5z"/>
<path d="M152.7,278.6c-1.6-9.3-13.4-24.4-14-25.2c-14-18.3-30.6-43.9-30.8-44.2l-1.7-2.7l-1.7,2.7c-0.2,0.3-16.8,25.8-30.8,44.1
	c-0.6,0.8-12.5,15.9-14,25.2c-0.1,0.6-0.9,4.7,0,9.6c1.3,7,5.3,12.4,11.7,15.5l0.2,0.1c0.2,0.1,5.1,1.9,11-0.7
	c5.9-2.6,10.6-8.5,14-17.6c0.4-1,1-2.2,1.5-2.7c0.3,0.5,1,1.7,1.6,4.6l0,0.1c0,0.1,0,0.2,0.1,0.3c0.1,0.5,0.5,3.9-0.1,8.5
	c-0.6,4-2.2,9.9-6.5,15l-2.8,3.4l31.9,0l-2.8-3.4c-4.3-5.1-5.9-11-6.4-15c-0.7-4.6-0.2-8-0.1-8.5c0-0.1,0-0.2,0.1-0.3l0,0
	c0.7-2.9,1.3-4.1,1.7-4.6c0.5,0.5,1.1,1.7,1.5,2.7c3.4,9.1,8.1,15,14,17.6c5.9,2.6,10.8,0.8,11,0.7l0.2-0.1
	c6.4-3.1,10.4-8.5,11.7-15.5C153.6,283.3,152.8,279.2,152.7,278.6z"/>
<path fill="#11100D" d="M914.4,1111.8c0,1.1,0,3,0.2,5.3c0,1,0.1,2.2,0.2,3.8c0.1,1.5,0.2,3,0.4,4.5c0.3,3.2,0.8,6.9,1.6,10.9
	c0.8,4.6,2,8.9,3.5,13.1c1.5,4,3.7,9.3,7.5,14.2c1.8,2.4,3.9,4.6,6.2,6.7c0.3,0.3,0.6,0.5,0.9,0.8l0,1.4c0.1,5.6,0.3,12,0.3,19
	c0.1,10.4,0,19.2-0.1,26.9c-0.4,28.7-0.6,41.8,11.1,52.9c2,1.9,8,7.6,22.8,10.6c1.8,0.4,3.8,0.6,5.7,0.6c15.7,0,29.5-11.7,29.7-11.8
	c11.7-10.9,11.6-22.4,11.1-64.9l0-0.5c0-3.5-0.1-7.3-0.1-11.3c0-3.2,0-6.3-0.1-9.2c-0.1-9-0.1-16.9-0.3-23.5
	c0.4-0.4,0.8-0.8,1.2-1.2c2.5-2.4,4.9-5.1,7.4-8.2c1.8-2.3,3.5-4.6,5-6.9c1.4-2.2,2.3-3.7,2.8-4.7l0.1-0.2c0.3-0.5,0.5-0.8,0.6-1.1
	l1.1-2.3l-6.3-5l-7.2,5.7c-1.8,1.4-3.9,3-6.3,4.9c-1.5-9.7-4.5-15.9-10.2-22c-8.8-9.3-19.4-14.4-29.8-14.4c-0.7,0-1.3,0-2,0.1
	c-11.8,0.7-19.9,7.8-23,10.5l-0.1,0.1c-0.2,0.2-0.3,0.3-0.5,0.4c-7.8,6.3-11,13.8-12.4,23c-1-2.7-1.7-5.3-2.3-7.6
	c-0.9-3.5-1.6-6.7-2.1-9.5c-0.3-1.3-0.5-2.6-0.7-4c-0.2-1.2-0.4-2.4-0.6-3.5c-0.3-2-0.5-3.5-0.7-4.7l-0.6-4.3l-14.2,1L914.4,1111.8z
	 M950.2,1191.3c0-4.5-0.1-8.7-0.2-12.5c0.1,0,0.3,0.1,0.4,0.1c3,0.8,5.9,1.4,8.8,1.8c3.1,0.4,5.8,0.6,8.6,0.6l0.7,0
	c0.5,0,1.1,0,1.4,0l1.9,0c1.5,0,3-0.2,4.4-0.3l0.2,0c5.5-0.7,11.1-2.2,16.5-4.7c2.5-1.1,4.9-2.4,7.3-3.8c0,3.9,0.1,8,0.1,12.4
	l0.1,9.2c0,3.9,0.1,7.6,0.1,11.1l0,0.7c0.4,39,0.3,47.5-6.3,53.7c-1.6,1.3-11.1,7.9-19.5,7.9c-1,0-1.9-0.1-2.8-0.3
	c-10.6-2.1-14.2-5.6-15.4-6.8c-6.9-6.6-6.8-17-6.5-41.9C950.1,1210.8,950.3,1201.9,950.2,1191.3z M996.5,1154.1
	c-3.8,2.3-7.3,4.1-10.8,5.5c-3.7,1.6-7.6,2.6-11.4,3c-0.3,0-0.5,0-0.8,0.1c-0.2,0-0.4,0-0.6,0l-3.5,0.1c-0.3,0-0.5,0-0.8,0
	c-0.2,0-0.4,0-0.7,0c-0.9,0-1.8-0.1-2.8-0.1l-0.4,0c-1.2-0.1-2.2-0.2-3.2-0.3c-4.4-0.6-8.2-1.6-11.3-3.3c-0.2-0.1-0.4-0.2-0.5-0.3
	c-0.1-19.2,1.4-24.9,7.7-30c0.3-0.2,0.6-0.5,1-0.9c2.2-1.9,7.3-6.4,14-6.8c0.4,0,0.7,0,1.1,0c6.3,0,13,3.4,18.9,9.7
	c4.5,4.8,6.3,10.1,7.1,21.5C998.5,1152.9,997.5,1153.5,996.5,1154.1z M973.5,1108.5L973.5,1108.5L973.5,1108.5L973.5,1108.5z"/>
<path d="M927,1017.4c1.6,9.3,13.4,24.4,14,25.2c14,18.3,30.6,43.9,30.8,44.2l1.7,2.7l1.7-2.7c0.2-0.3,16.8-25.8,30.8-44.1
	c0.6-0.8,12.5-15.9,14-25.2c0.1-0.6,0.9-4.7,0-9.6c-1.3-7-5.3-12.4-11.7-15.5l-0.2-0.1c-0.2-0.1-5.1-1.9-11,0.7
	c-5.9,2.6-10.6,8.5-14,17.6c-0.4,1-1,2.2-1.5,2.7c-0.3-0.5-1-1.7-1.6-4.6l0-0.1c0-0.1,0-0.2-0.1-0.3c-0.1-0.5-0.5-3.9,0.1-8.5
	c0.6-4,2.2-9.9,6.5-15l2.8-3.4l-31.9,0l2.8,3.4c4.3,5.1,5.9,11,6.4,15c0.7,4.6,0.2,8,0.1,8.5c0,0.1,0,0.2-0.1,0.3l0,0
	c-0.7,2.9-1.3,4.1-1.7,4.6c-0.5-0.5-1.1-1.7-1.5-2.7c-3.4-9.1-8.1-15-14-17.6c-5.9-2.6-10.8-0.8-11-0.7l-0.2,0.1
	c-6.4,3.1-10.4,8.5-11.7,15.5C926.1,1012.7,926.9,1016.8,927,1017.4z"/>
</svg>
